<?xml version="1.0" encoding="UTF-8"?>
<svg width="97px" height="51px" viewBox="0 0 97 51" version="1.1" xmlns="http://www.w3.org/2000/svg" xmlns:xlink="http://www.w3.org/1999/xlink">
    <!-- Generator: Sketch 48.2 (47327) - http://www.bohemiancoding.com/sketch -->
    <title>Foundation / Icons / Logos / CTE</title>
    <desc>Created with Sketch.</desc>
    <defs>
        <polygon id="path-1" points="0.000654229609 1.248 50.7565145 1.248 50.7565145 51.9999104 0.000654229609 51.9999104"></polygon>
        <polygon id="path-3" points="1.0211314 1.03528146 4.378 1.03528146 4.378 6.7255044 1.0211314 6.7255044"></polygon>
    </defs>
    <g id="Por-qué-TLS---Convenios" stroke="none" stroke-width="1" fill="none" fill-rule="evenodd" transform="translate(-739.000000, -839.000000)">
        <g id="content" transform="translate(102.000000, 286.000000)">
            <g id="Foundation-/-Icons-/-Logos-/-CTE" transform="translate(637.000000, 551.000000)">
                <g>
                    <g id="Group-3" transform="translate(0.000000, 0.752400)">
                        <mask id="mask-2" fill="white">
                            <use xlink:href="#path-1"></use>
                        </mask>
                        <g id="Clip-2"></g>
                        <path d="M31.9338,31.6306 C31.9558,31.6246 31.9778,31.6166 31.9998,31.6106 L31.9998,31.4306 C31.9998,26.9966 32.0018,22.5606 31.9978,18.1266 C31.9978,16.6366 30.8218,15.4446 29.3598,15.4346 C27.9118,15.4246 26.7398,16.6286 26.7378,18.1306 C26.7358,19.7726 26.7398,21.4166 26.7318,23.0586 C26.7318,23.2926 26.7918,23.4846 26.9138,23.6806 C27.9198,25.2646 28.9158,26.8546 29.9178,28.4406 C30.5878,29.5046 31.2618,30.5666 31.9338,31.6306 M19.0998,22.9746 C19.7578,24.0446 20.3718,25.0546 20.9998,26.0546 C22.9478,29.1466 24.8978,32.2366 26.8498,35.3266 C27.1638,35.8226 27.4978,36.2886 28.0198,36.6146 C29.0178,37.2406 30.4738,36.9906 31.2778,36.1226 C32.0378,35.3006 32.2098,33.9586 31.5958,32.9706 C30.8158,31.7146 30.0258,30.4686 29.2378,29.2186 C27.4598,26.3926 25.6778,23.5686 23.8958,20.7426 C23.0358,19.3746 22.1818,18.0006 21.3098,16.6386 C20.3458,15.1326 18.2818,14.9486 17.1178,16.2646 C16.8838,16.5306 16.7058,16.8486 16.5178,17.1526 C13.2838,22.3806 10.0538,27.6086 6.8158,32.8346 C6.5938,33.1966 6.4098,33.5846 6.3758,33.9986 C6.2338,35.6726 7.5198,36.9266 9.0578,36.9146 C12.1438,36.8886 15.2338,36.9086 18.3218,36.9046 C18.5178,36.9046 18.7198,36.8966 18.9098,36.8526 C20.3018,36.5406 21.1118,35.3546 20.9638,33.8686 C20.8418,32.6646 19.6518,31.6526 18.3398,31.6446 C16.9558,31.6386 15.5718,31.6446 14.1898,31.6426 C14.0598,31.6426 13.9338,31.6306 13.7518,31.6246 C15.5418,28.7306 17.2998,25.8866 19.0998,22.9746 M31.9058,15.4886 C32.4858,16.1186 32.8918,16.8166 32.9478,17.6426 C33.0038,18.4906 32.9678,19.3446 32.9758,20.1986 C32.9798,20.8086 32.8898,20.7226 33.5038,20.7246 C34.4918,20.7306 35.4798,20.7386 36.4678,20.7186 C36.7618,20.7146 36.8358,20.8006 36.8338,21.0906 C36.8258,25.5126 36.8278,29.9346 36.8278,34.3586 C36.8278,35.5026 37.5338,36.5426 38.6338,36.8486 C40.4458,37.3546 41.9058,36.2306 42.0818,34.5466 C42.0978,34.3866 42.0898,34.2246 42.0918,34.0646 C42.0918,29.7526 42.0958,25.4406 42.0838,21.1306 C42.0818,20.8106 42.1498,20.7166 42.4858,20.7186 C44.8938,20.7346 47.3058,20.7326 49.7138,20.7206 C49.9858,20.7186 50.0938,20.7986 50.1498,21.0686 C50.7658,23.9546 50.9318,26.8546 50.5598,29.7866 C49.8738,35.1406 47.7198,39.8226 44.0658,43.7886 C40.1298,48.0646 35.2838,50.7446 29.5338,51.6466 C21.7478,52.8666 14.7898,50.9286 8.7898,45.8086 C4.3318,42.0086 1.5158,37.1726 0.4718,31.4146 C-0.9702,23.4686 0.8938,16.3146 6.1198,10.1306 C10.0138,5.5206 14.9998,2.6646 20.9458,1.6526 C28.3198,0.3966 35.0338,2.0626 40.9858,6.6246 C43.9098,8.8646 46.1938,11.6606 47.8998,14.9246 C48.1618,15.4246 48.1598,15.4246 47.5858,15.4246 C42.5218,15.4246 37.4578,15.4246 32.3918,15.4266 C32.2478,15.4266 32.0978,15.3906 31.9058,15.4886" id="Fill-1" fill="#FEFEFE" mask="url(#mask-2)"></path>
                    </g>
                    <path d="M56.842,35.0178 C56.842,34.0918 56.85,33.1658 56.838,32.2398 C56.834,32.0118 56.904,31.9438 57.132,31.9458 C58.242,31.9578 59.356,31.9578 60.466,31.9458 C60.716,31.9438 60.776,32.0298 60.776,32.2678 C60.772,32.9058 60.782,32.9058 60.132,32.9058 C59.474,32.9058 58.82,32.9198 58.166,32.8978 C57.878,32.8878 57.802,32.9858 57.822,33.2558 C57.844,33.5618 57.848,33.8758 57.82,34.1818 C57.794,34.4898 57.922,34.5498 58.2,34.5418 C58.804,34.5218 59.41,34.5458 60.016,34.5318 C60.248,34.5258 60.34,34.5798 60.332,34.8338 C60.304,35.5758 60.414,35.4338 59.73,35.4438 C59.2,35.4538 58.668,35.4558 58.136,35.4418 C57.89,35.4338 57.812,35.5278 57.822,35.7658 C57.838,36.1238 57.838,36.4818 57.822,36.8398 C57.812,37.0638 57.884,37.1398 58.116,37.1358 C58.892,37.1218 59.672,37.1418 60.45,37.1238 C60.716,37.1178 60.804,37.2038 60.772,37.4578 C60.756,37.5798 60.762,37.7058 60.77,37.8278 C60.78,37.9918 60.702,38.0418 60.55,38.0418 C59.386,38.0398 58.226,38.0358 57.066,38.0438 C56.842,38.0458 56.84,37.9198 56.842,37.7598 C56.844,36.8458 56.842,35.9318 56.842,35.0178" id="Fill-4" fill="#FEFEFE"></path>
                    <path d="M63.8848,36.0246 C63.8868,35.6246 63.8488,35.3346 63.7548,35.0526 C63.6448,34.7306 63.4188,34.5966 63.0808,34.5966 C62.7428,34.5966 62.5048,34.7306 62.4088,35.0546 C62.2508,35.5926 62.2548,36.1406 62.3928,36.6826 C62.4868,37.0426 62.7468,37.2046 63.1028,37.2006 C63.4708,37.1986 63.7048,37.0006 63.7908,36.6486 C63.8468,36.4126 63.8648,36.1666 63.8848,36.0246 M63.8848,33.8746 C63.8848,33.3206 63.8928,32.7966 63.8808,32.2706 C63.8748,32.0446 63.9188,31.9426 64.1788,31.9446 C64.8448,31.9466 64.8448,31.9346 64.8448,32.6066 C64.8448,34.3086 64.8408,36.0126 64.8528,37.7146 C64.8548,37.9986 64.7608,38.1126 64.4968,38.0606 C64.2868,38.0186 64.0348,38.1986 63.8608,37.9286 C63.8108,37.8526 63.7168,37.9646 63.6428,37.9866 C62.5928,38.3166 61.5228,37.9766 61.3588,36.5566 C61.3048,36.0986 61.3128,35.6506 61.3608,35.1946 C61.4908,34.0246 62.4388,33.4066 63.5648,33.7766 C63.6568,33.8066 63.7488,33.8326 63.8848,33.8746" id="Fill-6" fill="#FEFEFE"></path>
                    <path d="M75.9122,36.2396 C75.6942,36.2516 75.4462,36.2056 75.2102,36.3136 C75.0222,36.4016 74.9302,36.5516 74.9362,36.7496 C74.9422,36.9476 75.0322,37.1076 75.2422,37.1576 C75.5542,37.2316 75.8702,37.2516 76.1782,37.1316 C76.5222,36.9996 76.5542,36.6836 76.5242,36.3956 C76.4902,36.0876 76.2042,36.3016 76.0442,36.2416 C76.0122,36.2296 75.9722,36.2396 75.9122,36.2396 M77.5142,36.4616 C77.5142,36.9056 77.5082,37.3496 77.5182,37.7936 C77.5222,37.9776 77.4642,38.0836 77.2682,38.0636 C77.0182,38.0356 76.7522,38.1456 76.5122,37.9876 C76.3962,37.9076 76.2982,38.0096 76.2002,38.0336 C75.7962,38.1316 75.3902,38.1376 74.9942,38.0416 C74.3102,37.8776 73.9022,37.2856 73.9762,36.6196 C74.0522,35.9416 74.5682,35.4596 75.2702,35.4296 C75.5522,35.4156 75.8362,35.4376 76.1202,35.4196 C76.2502,35.4116 76.4542,35.5176 76.4982,35.3136 C76.5422,35.0976 76.5182,34.8656 76.3122,34.7096 C76.0042,34.4776 75.1782,34.5556 74.9522,34.8756 C74.7822,35.1156 74.6842,35.0676 74.5062,34.8996 C74.0182,34.4336 74.0222,34.2456 74.6422,33.9216 C75.3662,33.5476 76.1202,33.5676 76.8422,33.9296 C77.3462,34.1836 77.4982,34.6716 77.5122,35.2036 C77.5242,35.6216 77.5162,36.0416 77.5142,36.4616" id="Fill-8" fill="#FEFEFE"></path>
                    <path d="M69.342,35.8694 C69.342,36.4854 69.328,37.1034 69.348,37.7194 C69.356,38.0014 69.256,38.1054 68.984,38.0654 C68.762,38.0334 68.522,38.1394 68.314,37.9534 C68.234,37.8794 68.134,37.9834 68.044,38.0134 C66.884,38.3894 65.89,37.7314 65.848,36.5214 C65.816,35.6854 65.846,34.8454 65.836,34.0054 C65.834,33.7774 65.926,33.7194 66.144,33.7174 C66.84,33.7094 66.84,33.7014 66.84,34.3834 C66.84,35.0614 66.836,35.7394 66.842,36.4174 C66.848,36.9214 67.12,37.2054 67.574,37.2034 C68.058,37.1994 68.336,36.9194 68.34,36.4054 C68.346,35.6274 68.352,34.8514 68.336,34.0754 C68.33,33.8074 68.39,33.7034 68.68,33.7154 C69.44,33.7474 69.332,33.6014 69.34,34.3894 C69.346,34.8814 69.342,35.3754 69.342,35.8694" id="Fill-10" fill="#FEFEFE"></path>
                    <path d="M83.5958,35.8792 C83.6438,35.6672 83.5658,35.4392 83.5218,35.2112 C83.4438,34.8152 83.1618,34.6012 82.7598,34.6012 C82.3678,34.6032 82.0678,34.8252 81.9838,35.2052 C81.8878,35.6552 81.8898,36.1112 81.9818,36.5612 C82.0618,36.9532 82.3978,37.2132 82.7758,37.2032 C83.1718,37.1912 83.4498,36.9452 83.5318,36.5272 C83.5698,36.3232 83.6218,36.1192 83.5958,35.8792 M84.5598,35.8892 C84.5738,36.1712 84.5458,36.4152 84.4958,36.6592 C84.3018,37.6152 83.6458,38.1172 82.6098,38.0932 C81.7998,38.0772 81.1558,37.4652 81.0018,36.5892 C80.8998,35.9972 80.9038,35.4132 81.0878,34.8392 C81.3318,34.0872 82.0598,33.6172 82.8638,33.6752 C83.7138,33.7392 84.3378,34.2792 84.4898,35.0832 C84.5438,35.3612 84.5858,35.6392 84.5598,35.8892" id="Fill-12" fill="#FEFEFE"></path>
                    <path d="M90.129,38.095 C89.525,38.121 88.991,37.945 88.519,37.561 C88.337,37.411 88.301,37.281 88.509,37.131 C88.549,37.101 88.585,37.065 88.613,37.027 C88.815,36.771 88.965,36.653 89.295,36.943 C89.693,37.297 90.229,37.283 90.735,37.119 C90.927,37.055 91.033,36.915 91.023,36.697 C91.015,36.479 90.883,36.397 90.691,36.373 C90.337,36.327 89.983,36.299 89.633,36.239 C89.037,36.139 88.635,35.757 88.573,35.259 C88.491,34.613 88.759,34.093 89.349,33.855 C90.173,33.525 90.963,33.637 91.709,34.109 C91.889,34.223 91.919,34.329 91.737,34.467 C91.687,34.503 91.645,34.549 91.605,34.595 C91.415,34.841 91.239,34.957 90.919,34.729 C90.619,34.517 90.233,34.551 89.875,34.615 C89.665,34.653 89.523,34.785 89.531,35.025 C89.539,35.261 89.683,35.339 89.893,35.361 C90.247,35.401 90.601,35.435 90.951,35.499 C91.551,35.607 91.913,35.943 91.975,36.417 C92.065,37.087 91.825,37.587 91.275,37.875 C90.961,38.041 90.677,38.095 90.129,38.095" id="Fill-14" fill="#FEFEFE"></path>
                    <path d="M91.6134,27.8586 C91.6194,27.5306 91.6074,27.2466 91.5274,26.9726 C91.4014,26.5426 91.0954,26.3126 90.6554,26.3106 C90.2134,26.3066 89.8734,26.5546 89.7674,26.9966 C89.6514,27.4826 89.6354,27.9726 89.7494,28.4626 C89.8734,28.9846 90.1494,29.2186 90.6474,29.2226 C91.1534,29.2246 91.4054,29.0066 91.5534,28.4766 C91.6114,28.2566 91.5974,28.0346 91.6134,27.8586 M91.6174,29.3286 C91.3534,29.5486 91.1474,29.6886 90.8834,29.7446 C90.0634,29.9206 89.3534,29.4966 89.1714,28.6826 C89.0434,28.0986 89.0374,27.5046 89.1634,26.9186 C89.3954,25.8386 90.5414,25.4086 91.4354,26.0646 C91.4734,26.0926 91.5114,26.1186 91.5814,26.1706 C91.6294,25.9926 91.5894,25.7806 91.8774,25.8026 C92.1234,25.8186 92.2214,25.8646 92.2174,26.1346 C92.2034,27.3946 92.2134,28.6526 92.2114,29.9126 C92.2094,30.5806 91.9794,31.1426 91.3394,31.4206 C90.6914,31.7026 90.0394,31.6746 89.4434,31.2446 C89.3534,31.1806 89.1454,31.1086 89.3214,30.9446 C89.4314,30.8446 89.5054,30.5846 89.7554,30.7866 C90.1574,31.1106 90.6194,31.1666 91.0734,30.9366 C91.5454,30.6986 91.6234,30.2426 91.6174,29.7646 C91.6154,29.6426 91.6174,29.5226 91.6174,29.3286" id="Fill-16" fill="#FEFEFE"></path>
                    <path d="M70.1856,35.8576 C70.1736,34.9676 70.4416,34.2236 71.3116,33.8336 C72.0656,33.4956 72.9496,33.6816 73.4956,34.2536 C73.6376,34.4016 73.7096,34.5216 73.4916,34.6596 C73.4216,34.7056 73.3616,34.7716 73.3056,34.8376 C73.1116,35.0616 72.9696,35.0796 72.7236,34.8436 C72.1916,34.3336 71.3996,34.5816 71.2156,35.2936 C71.0976,35.7396 71.0816,36.1976 71.2596,36.6356 C71.5016,37.2316 72.2416,37.4176 72.6856,36.9556 C72.9656,36.6656 73.1016,36.7236 73.3376,36.9736 C73.6916,37.3476 73.7136,37.3396 73.3296,37.6696 C72.7236,38.1936 72.0296,38.2216 71.3176,37.9476 C70.5636,37.6536 70.2716,37.0236 70.1876,36.2656 C70.1716,36.1316 70.1856,35.9936 70.1856,35.8576" id="Fill-18" fill="#FEFEFE"></path>
                    <path d="M57.4356,18.8714 C57.4456,19.2534 57.4256,19.6334 57.4896,20.0154 C57.6036,20.6814 57.9856,21.0734 58.6496,21.1714 C59.2336,21.2594 59.7836,20.9354 60.0556,20.3614 C60.1116,20.2374 60.0836,20.0374 60.2876,20.0234 C60.4316,20.0134 60.6156,19.9834 60.7176,20.0554 C60.8616,20.1574 60.7276,20.3314 60.6836,20.4594 C60.3616,21.3854 59.4936,21.8654 58.4356,21.7114 C57.5316,21.5814 56.8916,20.8494 56.8316,19.9094 C56.7836,19.1694 56.7856,18.4334 56.8376,17.6934 C56.9056,16.7394 57.6296,16.0194 58.6216,15.9394 C59.6476,15.8554 60.5376,16.4674 60.7416,17.3994 C60.7616,17.4874 60.8236,17.6354 60.6756,17.6294 C60.4756,17.6194 60.2196,17.7894 60.0836,17.4474 C59.8056,16.7374 59.3716,16.4694 58.6636,16.5174 C58.0716,16.5554 57.6036,16.9914 57.5016,17.5794 C57.4276,18.0074 57.4336,18.4394 57.4356,18.8714" id="Fill-20" fill="#FEFEFE"></path>
                    <path d="M78.59,35.8362 C78.59,35.5142 78.584,35.1942 78.592,34.8742 C78.596,34.7002 78.562,34.5762 78.354,34.6022 C78.144,34.6282 78.094,34.5122 78.118,34.3362 C78.15,34.0762 77.948,33.6742 78.492,33.7122 C78.582,33.7182 78.584,33.6142 78.588,33.5402 C78.59,33.4422 78.59,33.3422 78.59,33.2442 C78.59,32.4522 78.59,32.4582 79.384,32.5302 C79.548,32.5442 79.602,32.6042 79.592,32.7562 C79.584,32.8542 79.59,32.9542 79.59,33.0522 C79.59,33.6702 79.59,33.6762 80.196,33.7262 C80.348,33.7382 80.424,33.7822 80.414,33.9442 C80.408,34.0662 80.402,34.1922 80.416,34.3142 C80.442,34.5462 80.342,34.6062 80.12,34.6062 C79.59,34.6062 79.59,34.6182 79.59,35.1302 C79.59,35.6502 79.606,36.1702 79.584,36.6862 C79.57,37.0142 79.678,37.1962 80.018,37.1562 C80.572,37.0902 80.38,37.4942 80.414,37.7582 C80.464,38.1362 80.192,38.0642 79.982,38.0642 C79.048,38.0682 78.6,37.6262 78.59,36.6882 C78.588,36.4042 78.59,36.1202 78.59,35.8362" id="Fill-22" fill="#FEFEFE"></path>
                    <path d="M70.049,26.2092 C70.451,25.8712 70.839,25.7632 71.275,25.7852 C71.985,25.8192 72.525,26.3052 72.551,27.0212 C72.583,27.8592 72.557,28.7012 72.573,29.5412 C72.577,29.7852 72.443,29.7832 72.267,29.7872 C72.087,29.7892 71.965,29.7732 71.969,29.5352 C71.979,28.7812 71.983,28.0272 71.963,27.2752 C71.941,26.5132 71.275,26.0952 70.591,26.3992 C70.171,26.5852 70.055,26.9592 70.051,27.3752 C70.043,28.0672 70.043,28.7572 70.051,29.4492 C70.053,29.6572 70.043,29.7932 69.763,29.7932 C69.481,29.7932 69.447,29.6752 69.449,29.4392 C69.457,27.7712 69.455,26.1052 69.451,24.4372 C69.451,24.2272 69.431,24.0612 69.743,24.0632 C70.033,24.0632 70.057,24.1912 70.051,24.4192 C70.041,24.9872 70.049,25.5512 70.049,26.2092" id="Fill-24" fill="#FEFEFE"></path>
                    <path d="M71.1662,19.8704 L71.1662,19.8824 C70.9822,19.8824 70.7962,19.8764 70.6142,19.8844 C70.5302,19.8884 70.4442,19.9124 70.3602,19.9364 C70.0282,20.0304 69.8642,20.2704 69.8902,20.6324 C69.9162,20.9644 70.1142,21.1384 70.4282,21.1904 C70.6982,21.2344 70.9702,21.2364 71.2382,21.1844 C71.6962,21.0944 71.9322,20.6784 71.8322,20.0784 C71.7642,19.6564 71.4062,19.9644 71.2042,19.8704 C71.1942,19.8664 71.1802,19.8704 71.1662,19.8704 M71.8022,21.4104 C71.3222,21.7764 70.8022,21.7884 70.2662,21.7124 C69.7242,21.6344 69.3482,21.2424 69.3042,20.7024 C69.2582,20.0944 69.5542,19.6504 70.1142,19.4964 C70.5602,19.3704 71.0222,19.4184 71.4742,19.4304 C71.7662,19.4384 71.8722,19.3524 71.8442,19.0584 C71.8122,18.7344 71.7582,18.4284 71.4082,18.3144 C70.9362,18.1604 70.4622,18.1344 70.0422,18.4684 C69.9382,18.5504 69.8742,18.6724 69.7082,18.5364 C69.4842,18.3544 69.4542,18.2144 69.6962,18.0184 C70.2442,17.5704 71.5282,17.5724 72.0622,18.0384 C72.3902,18.3244 72.4542,18.7124 72.4582,19.1144 C72.4642,19.8524 72.4642,20.5924 72.4562,21.3324 C72.4542,21.4664 72.5562,21.6864 72.2862,21.7004 C72.0782,21.7104 71.8222,21.7864 71.8022,21.4104" id="Fill-26" fill="#FEFEFE"></path>
                    <path d="M85.383,35.9026 C85.383,35.2746 85.391,34.6446 85.379,34.0166 C85.375,33.7946 85.431,33.6846 85.667,33.7226 C85.923,33.7646 86.199,33.6226 86.437,33.8446 C86.509,33.9106 86.617,33.7986 86.707,33.7706 C87.287,33.5966 87.823,33.6506 88.305,34.0466 C88.459,34.1726 88.519,34.2706 88.337,34.4166 C88.241,34.4926 88.153,34.5846 88.079,34.6806 C87.911,34.9006 87.767,34.9946 87.531,34.7346 C87.351,34.5326 87.077,34.5606 86.841,34.6526 C86.545,34.7646 86.401,35.0086 86.397,35.3166 C86.387,36.0066 86.397,36.6966 86.387,37.3886 C86.377,38.1506 86.535,38.0506 85.697,38.0666 C85.465,38.0706 85.369,38.0066 85.377,37.7526 C85.395,37.1366 85.383,36.5206 85.383,35.9026" id="Fill-28" fill="#FEFEFE"></path>
                    <path d="M62.6778,27.5022 C62.9618,27.5022 63.2458,27.4962 63.5298,27.5042 C63.6938,27.5082 63.7398,27.4462 63.7278,27.2862 C63.6978,26.7762 63.3138,26.3482 62.8338,26.3042 C62.3118,26.2542 61.8718,26.5542 61.7418,27.0462 C61.6278,27.4822 61.6398,27.5022 62.0858,27.5022 C62.2838,27.5022 62.4798,27.5022 62.6778,27.5022 M63.0058,27.9882 C62.6598,27.9882 62.3138,27.9962 61.9698,27.9862 C61.7538,27.9802 61.6638,28.0142 61.7058,28.2722 C61.8638,29.2422 62.8338,29.6402 63.6358,29.0422 C63.7718,28.9422 63.8578,28.8442 64.0398,28.9962 C64.2498,29.1702 64.2538,29.2642 64.0398,29.4342 C62.9018,30.3362 61.3718,29.7662 61.1258,28.3462 C61.0198,27.7342 61.0618,27.1382 61.3478,26.5822 C61.6358,26.0202 62.1158,25.7762 62.7418,25.7862 C63.3518,25.7942 63.8098,26.0462 64.0978,26.5862 C64.2878,26.9442 64.3378,27.3322 64.3338,27.7342 C64.3318,27.9262 64.2738,27.9982 64.0798,27.9922 C63.7218,27.9802 63.3638,27.9882 63.0058,27.9882" id="Fill-30" fill="#FEFEFE"></path>
                    <path d="M83.4806,19.4222 C83.7506,19.4222 84.0226,19.4182 84.2906,19.4242 C84.4526,19.4282 84.4986,19.3662 84.4946,19.2062 C84.4846,18.6742 84.0746,18.2402 83.5446,18.2202 C82.9686,18.1982 82.5466,18.5622 82.4846,19.1202 C82.4586,19.3322 82.4926,19.4462 82.7446,19.4262 C82.9886,19.4082 83.2346,19.4222 83.4806,19.4222 Z M83.7646,19.8702 C83.4186,19.8702 83.0726,19.8802 82.7266,19.8662 C82.5026,19.8582 82.4526,19.9542 82.4786,20.1562 C82.5286,20.5742 82.6826,20.9422 83.0866,21.1042 C83.5246,21.2822 83.9766,21.2742 84.3866,20.9742 C84.4966,20.8962 84.5786,20.7422 84.7666,20.8702 C85.0406,21.0602 85.0586,21.1502 84.7946,21.3542 C84.1906,21.8202 83.5166,21.8622 82.8346,21.6042 C82.1966,21.3622 81.9706,20.8102 81.8846,20.1722 C81.8286,19.7602 81.8466,19.3602 81.9446,18.9622 C82.1686,18.0622 82.7546,17.6402 83.6766,17.7082 C84.4366,17.7622 84.9866,18.3382 85.0826,19.1782 C85.1606,19.8702 85.1606,19.8702 84.4666,19.8702 L83.7646,19.8702 Z" id="Fill-32" fill="#FEFEFE"></path>
                    <path d="M66.7618,19.4222 C67.0458,19.4222 67.3278,19.4162 67.6098,19.4242 C67.7778,19.4302 67.8158,19.3582 67.8058,19.2022 C67.7738,18.6762 67.3818,18.2502 66.8838,18.2202 C66.3058,18.1862 65.9198,18.4922 65.8038,19.0502 C65.7458,19.3182 65.7678,19.4662 66.0998,19.4282 C66.3158,19.4022 66.5418,19.4222 66.7618,19.4222 Z M67.0658,19.8702 C66.7198,19.8702 66.3758,19.8802 66.0298,19.8662 C65.7878,19.8582 65.7458,19.9422 65.7838,20.1742 C65.9398,21.1462 66.9058,21.5482 67.7098,20.9642 C67.8198,20.8842 67.8978,20.7442 68.0838,20.8822 C68.3158,21.0582 68.3558,21.1702 68.0978,21.3662 C66.9438,22.2502 65.4478,21.6722 65.1958,20.2382 C65.1198,19.8042 65.1418,19.3762 65.2478,18.9542 C65.4698,18.0642 66.0738,17.6382 66.9898,17.7082 C67.7598,17.7662 68.3158,18.3802 68.3978,19.2642 C68.4018,19.3002 68.4038,19.3382 68.4058,19.3762 C68.4258,19.8702 68.4258,19.8702 67.9178,19.8702 L67.0658,19.8702 Z" id="Fill-34" fill="#FEFEFE"></path>
                    <g id="Group-38" transform="translate(92.000000, 24.752400)">
                        <mask id="mask-4" fill="white">
                            <use xlink:href="#path-3"></use>
                        </mask>
                        <g id="Clip-37"></g>
                        <path d="M2.7598,4.0642 C3.0678,3.1582 3.3778,2.2522 3.6838,1.3462 C3.7358,1.1882 3.7758,1.0582 3.9938,1.0542 C4.4338,1.0462 4.4418,1.0382 4.2878,1.4582 C3.7418,2.9502 3.1978,4.4422 2.6478,5.9342 C2.4438,6.4902 2.0618,6.7462 1.5378,6.7242 C1.3558,6.7162 1.2958,6.6482 1.3098,6.4802 C1.3218,6.3402 1.2658,6.1622 1.5098,6.1742 C1.8898,6.1942 2.0218,5.9442 2.1618,5.6422 C2.3838,5.1722 2.3778,4.7502 2.1798,4.2702 C1.7998,3.3482 1.4758,2.4022 1.1438,1.4622 C1.1038,1.3462 0.8938,1.1502 1.1358,1.0802 C1.3438,1.0222 1.6278,0.9602 1.7398,1.3122 C1.9958,2.1082 2.2758,2.8982 2.5478,3.6902 C2.5898,3.8142 2.6358,3.9402 2.6778,4.0662 C2.7058,4.0642 2.7318,4.0642 2.7598,4.0642" id="Fill-36" fill="#FEFEFE" mask="url(#mask-4)"></path>
                    </g>
                    <path d="M78.8498,27.802 C78.8578,28.048 78.8358,28.294 78.9058,28.536 C79.0498,29.024 79.3518,29.276 79.8338,29.282 C80.3418,29.288 80.6698,29.05 80.7958,28.54 C80.9198,28.03 80.9098,27.51 80.7818,27.002 C80.6778,26.594 80.3058,26.326 79.8738,26.31 C79.4858,26.296 79.1218,26.53 78.9658,26.89 C78.8378,27.184 78.8438,27.492 78.8498,27.802 M81.4778,27.808 C81.4598,28.042 81.4598,28.278 81.4118,28.506 C81.2378,29.376 80.5738,29.904 79.7678,29.838 C78.8738,29.764 78.3158,29.18 78.2578,28.266 C78.2358,27.96 78.2378,27.654 78.2578,27.346 C78.3158,26.412 78.9258,25.796 79.8058,25.788 C80.7458,25.78 81.3818,26.372 81.4498,27.326 C81.4618,27.486 81.4518,27.646 81.4518,27.806 C81.4618,27.808 81.4698,27.808 81.4778,27.808" id="Fill-39" fill="#FEFEFE"></path>
                    <path d="M87.4864,27.7308 C87.4664,27.5628 87.4624,27.3128 87.4104,27.0748 C87.3044,26.6068 86.9424,26.3208 86.4904,26.3108 C86.0284,26.2988 85.6404,26.5928 85.5244,27.0668 C85.4064,27.5428 85.4084,28.0228 85.5164,28.4988 C85.6404,29.0588 85.9924,29.3128 86.5544,29.2808 C87.0304,29.2548 87.3784,28.9168 87.4464,28.4008 C87.4744,28.2048 87.4704,28.0068 87.4864,27.7308 M84.8664,27.7908 C84.8484,27.2908 84.8804,26.7968 85.2004,26.3808 C85.6144,25.8428 86.1884,25.6948 86.8224,25.8148 C87.4364,25.9308 87.8244,26.3248 87.9844,26.9268 C88.1264,27.4608 88.1244,28.0048 88.0224,28.5388 C87.8604,29.3748 87.1824,29.8988 86.3824,29.8388 C85.5144,29.7748 84.9444,29.2028 84.8684,28.3088 C84.8564,28.1368 84.8664,27.9628 84.8664,27.7908" id="Fill-41" fill="#FEFEFE"></path>
                    <path d="M74.545,26.1976 C74.921,25.9216 75.249,25.7776 75.641,25.7836 C76.491,25.7976 77.045,26.3016 77.065,27.1516 C77.085,27.9396 77.063,28.7296 77.075,29.5196 C77.077,29.7396 76.991,29.7916 76.791,29.7876 C76.595,29.7836 76.465,29.7776 76.469,29.5196 C76.485,28.8036 76.487,28.0876 76.471,27.3716 C76.453,26.5576 75.899,26.1396 75.175,26.3696 C74.787,26.4956 74.565,26.8016 74.557,27.2776 C74.543,28.0056 74.543,28.7336 74.555,29.4616 C74.557,29.6876 74.515,29.7936 74.253,29.7916 C74.003,29.7896 73.947,29.6976 73.949,29.4656 C73.961,28.3676 73.953,27.2696 73.957,26.1716 C73.957,26.0156 73.883,25.8116 74.177,25.8076 C74.413,25.8056 74.609,25.8096 74.545,26.1976" id="Fill-43" fill="#FEFEFE"></path>
                    <path d="M58.092,27.1956 C58.092,26.4676 58.078,25.7396 58.1,25.0136 C58.108,24.7116 58.004,24.6296 57.72,24.6476 C57.378,24.6676 57.03,24.6436 56.686,24.6536 C56.462,24.6636 56.42,24.5516 56.418,24.3596 C56.418,24.1696 56.454,24.0676 56.68,24.0696 C57.826,24.0796 58.974,24.0796 60.122,24.0696 C60.352,24.0676 60.38,24.1756 60.38,24.3636 C60.382,24.5596 60.332,24.6616 60.11,24.6536 C59.766,24.6436 59.418,24.6696 59.074,24.6476 C58.786,24.6276 58.696,24.7196 58.7,25.0156 C58.714,26.4956 58.7,27.9756 58.712,29.4556 C58.714,29.7136 58.638,29.7956 58.38,29.7896 C58.148,29.7856 58.084,29.7116 58.088,29.4896 C58.1,28.7256 58.092,27.9596 58.092,27.1956" id="Fill-45" fill="#FEFEFE"></path>
                    <path d="M79.5704,20.8568 C79.9104,19.8728 80.2464,18.9748 80.5224,18.0588 C80.6384,17.6728 80.8844,17.7108 81.1464,17.7408 C81.3764,17.7688 81.2204,17.9368 81.1924,18.0208 C80.8744,18.8988 80.5464,19.7768 80.2224,20.6528 C80.1284,20.9088 80.0284,21.1608 79.9484,21.4188 C79.8844,21.6208 79.7864,21.7168 79.5544,21.7128 C79.3304,21.7088 79.2664,21.6028 79.2004,21.4208 C78.8064,20.3208 78.3964,19.2268 78.0064,18.1228 C77.9644,18.0128 77.7824,17.8628 77.9864,17.7448 C78.1844,17.6288 78.5184,17.7608 78.5924,17.9708 C78.7364,18.3768 78.8684,18.7868 79.0084,19.1948 C79.1864,19.7188 79.3624,20.2428 79.5704,20.8568" id="Fill-47" fill="#FEFEFE"></path>
                    <path d="M65.9416,27.845 C65.9436,28.079 65.9396,28.311 66.0196,28.539 C66.2836,29.285 67.1676,29.557 67.7616,29.037 C68.0136,28.817 68.1116,28.955 68.2596,29.109 C68.4596,29.315 68.2416,29.391 68.1376,29.477 C67.4116,30.081 66.2036,29.913 65.6756,29.143 C65.1756,28.415 65.1996,27.123 65.7236,26.409 C66.2756,25.655 67.5816,25.553 68.2296,26.205 C68.3556,26.333 68.3696,26.435 68.2236,26.531 C68.1136,26.603 68.0496,26.845 67.8436,26.637 C67.4796,26.271 67.0436,26.217 66.5836,26.425 C66.1276,26.635 65.9716,27.041 65.9416,27.511 C65.9356,27.623 65.9416,27.733 65.9416,27.845" id="Fill-49" fill="#FEFEFE"></path>
                    <path d="M73.9006,19.549 L73.9006,18.661 C73.9006,18.435 73.9666,18.167 73.5746,18.223 C73.4286,18.243 73.4386,18.113 73.4386,18.015 C73.4386,17.907 73.4166,17.759 73.5846,17.779 C73.9486,17.825 73.9066,17.585 73.9006,17.361 C73.8986,17.201 73.9106,17.039 73.8986,16.881 C73.8806,16.651 73.9166,16.525 74.2046,16.521 C74.5086,16.517 74.5666,16.641 74.5346,16.895 C74.5266,16.967 74.5346,17.043 74.5346,17.117 C74.5346,17.729 74.5346,17.735 75.1286,17.767 C75.3006,17.777 75.3666,17.827 75.3686,18.005 C75.3706,18.189 75.2906,18.225 75.1246,18.233 C74.5346,18.259 74.5346,18.265 74.5346,18.845 C74.5346,19.437 74.5286,20.029 74.5366,20.621 C74.5406,21.019 74.6666,21.159 75.0646,21.175 C75.2746,21.183 75.3726,21.215 75.3726,21.459 C75.3726,21.743 75.2006,21.703 75.0306,21.703 C74.3426,21.707 73.9646,21.381 73.9146,20.695 C73.8866,20.315 73.9106,19.931 73.9106,19.549 L73.9006,19.549 Z" id="Fill-51" fill="#FEFEFE"></path>
                    <path d="M82.6622,26.5754 C82.6622,25.8594 82.6682,25.1434 82.6582,24.4294 C82.6542,24.1874 82.6722,24.0394 82.9842,24.0434 C83.2862,24.0474 83.2862,24.1994 83.2862,24.4154 C83.2802,25.8114 83.2822,27.2034 83.2822,28.5994 C83.2822,29.1454 83.3482,29.2334 83.8762,29.2654 C84.0862,29.2774 84.1142,29.3614 84.1182,29.5354 C84.1202,29.7374 84.0362,29.7794 83.8542,29.7874 C83.0442,29.8194 82.6642,29.4634 82.6622,28.6474 C82.6602,27.9554 82.6622,27.2654 82.6622,26.5754" id="Fill-53" fill="#FEFEFE"></path>
                    <path d="M62.5744,18.1662 C63.1564,17.6882 63.6824,17.5942 64.2464,17.7922 C64.3984,17.8442 64.6444,17.8942 64.5824,18.1362 C64.5204,18.3762 64.2124,18.4602 63.9824,18.3362 C63.3444,17.9982 62.6424,18.4362 62.6204,19.2082 C62.6024,19.9002 62.6164,20.5902 62.6164,21.2822 C62.6144,21.4942 62.6864,21.7202 62.3084,21.7142 C61.9544,21.7102 62.0224,21.5022 62.0224,21.3002 C62.0204,20.2402 62.0184,19.1802 62.0244,18.1182 C62.0244,17.9562 61.9304,17.7222 62.2544,17.7302 C62.4804,17.7362 62.7144,17.7002 62.5744,18.1662" id="Fill-55" fill="#FEFEFE"></path>
                    <path d="M76.4864,19.6732 C76.4864,19.1672 76.4844,18.6612 76.4864,18.1552 C76.4884,17.9452 76.4144,17.7172 76.7904,17.7232 C77.1864,17.7272 77.0744,17.9772 77.0764,18.1732 C77.0824,19.1972 77.0824,20.2212 77.0764,21.2472 C77.0744,21.4532 77.1904,21.7192 76.7744,21.7132 C76.3444,21.7072 76.4984,21.4212 76.4924,21.2292 C76.4744,20.7112 76.4864,20.1912 76.4864,19.6732" id="Fill-57" fill="#FEFEFE"></path>
                    <path d="M77.0978,16.2932 C77.1518,16.5572 77.0318,16.6312 76.7778,16.6292 C76.5478,16.6272 76.4558,16.5692 76.4538,16.3192 C76.4498,16.0612 76.5298,15.9772 76.7878,15.9872 C77.0078,15.9952 77.1518,16.0272 77.0978,16.2932" id="Fill-59" fill="#FEFEFE"></path>
                </g>
            </g>
        </g>
    </g>
</svg>