<?xml version="1.0" encoding="UTF-8"?>
<svg width="90px" height="40px" viewBox="0 0 90 40" version="1.1" xmlns="http://www.w3.org/2000/svg" xmlns:xlink="http://www.w3.org/1999/xlink">
    <!-- Generator: Sketch 48.2 (47327) - http://www.bohemiancoding.com/sketch -->
    <title>Foundation / Icons / Logos / IED</title>
    <desc>Created with Sketch.</desc>
    <defs></defs>
    <g id="Por-qué-TLS---Convenios" stroke="none" stroke-width="1" fill="none" fill-rule="evenodd" transform="translate(-126.000000, -532.000000)">
        <g id="content" transform="translate(102.000000, 286.000000)" fill="#FFFFFF">
            <g id="Foundation-/-Icons-/-Logos-/-IED" transform="translate(24.000000, 246.000000)">
                <g>
                    <path d="M77.7522414,20.0907653 L76.0728187,20.0907653 L76.0728187,10.0034067 L77.5598076,10.0034067 C78.6400612,10.0034067 81.4172316,10.6275703 81.4172316,14.909113 C81.4172316,19.1950359 79.3267002,20.0907653 77.7522414,20.0907653 Z M78.2245791,6 L70.9274,6 L70.9274,23.9496289 L75.2112399,23.9496289 L75.2046796,23.9912398 L78.5678985,23.9912398 C82.1672862,23.9912398 87,21.5865677 87,15.0383258 C87,8.49665409 82.0688826,6 78.2245791,6 Z M47,24 L52.1497923,24 L52.1497923,6 L47,6 L47,24 Z M59.8712005,6 L54.723595,6 L54.723595,23.9496289 L55.9438006,23.9496289 L55.9438006,24 L68.2814345,24 L68.2814345,20.0907653 L59.8712005,20.0907653 L59.8712005,16.7969339 L66.4489394,16.7969339 L66.4489394,12.8636087 L59.8712005,12.8636087 L59.8712005,10.0034067 L68.2814345,10.0034067 L68.2814345,6 L59.8712005,6 Z" id="Fill-1"></path>
                    <g id="Group-5" transform="translate(47.000000, 30.000000)">
                        <path d="M23.026567,8.73474713 C21.8245914,8.73474713 21.7280824,7.62530179 21.7280824,6.65744281 C21.7280824,5.68958383 21.6798279,4.53153422 22.8796102,4.53153422 C24.2438964,4.53153422 24.39524,5.78679238 24.39524,6.65321635 C24.39524,7.52386679 24.0442982,8.73474713 23.026567,8.73474713 Z M26.1609159,0.725608411 L24.2855707,0.725608411 L24.2855707,4.22088953 L24.2614435,4.06028411 C23.9083083,3.53197681 23.0923686,3.19386013 22.4431263,3.19386013 C20.4910126,3.19386013 19.8702843,4.9562933 19.8702843,6.65321635 C19.8702843,8.27617639 20.5085597,10.0005714 22.3444239,10.0005714 C23.1581702,10.0005714 23.866634,9.66245475 24.2767972,8.9207113 L24.3031178,8.9207113 C24.3031178,9.21867662 24.3272451,9.50818902 24.3469855,9.81249403 L26.2223307,9.81249403 C26.2047836,9.39407464 26.1609159,8.96720234 26.1609159,8.55512265 L26.1609159,0.725608411 Z M39.1479555,8.73474713 C37.9481733,8.73474713 37.8406973,7.62530179 37.8406973,6.65744281 C37.8406973,5.68958383 37.8472775,4.56534589 39.0470597,4.56534589 C40.4113459,4.56534589 40.5122417,5.78679238 40.5122417,6.65321635 C40.5122417,7.52386679 40.1591065,8.73474713 39.1479555,8.73474713 Z M42.2735308,8.55512265 L42.2735308,0.725608411 L40.3959922,0.725608411 L40.3959922,4.22088953 L40.371865,4.22088953 C40.0231166,3.69258223 39.3453602,3.30586128 38.6983113,3.30586128 C36.7461976,3.30586128 35.9828992,4.9562933 35.9828992,6.65321635 C35.9828992,8.27617639 36.6211746,10.0005714 38.4592322,10.0005714 C39.2707851,10.0005714 39.9748621,9.66245475 40.3872187,8.9207113 L40.4113459,8.9207113 C40.4113459,9.21867662 40.4354732,9.50818902 40.4596004,9.81249403 L42.3349456,9.81249403 C42.3152051,9.39407464 42.2735308,8.96720234 42.2735308,8.55512265 Z M32.5765705,9.81249403 L34.4277884,9.81249403 L34.4277884,3.16850138 L32.5765705,3.16850138 L32.5765705,9.81249403 Z M32.5173491,2.35068168 L34.4892032,2.35068168 L34.4892032,0.725608411 L32.5173491,0.725608411 L32.5173491,2.35068168 Z M29.6133058,4.64142214 L29.5869851,4.64142214 L29.5496976,3.28050253 L27.8585968,3.28050253 C27.85421,3.24035118 27.8739505,9.81249403 27.8739505,9.81249403 L29.7821965,9.81249403 L29.7821965,6.67646188 C29.7975502,6.26438218 29.8326444,5.9114729 30.0366293,5.56067685 C30.2142936,5.3113158 30.6990319,4.87810382 31.8001118,4.87810382 L31.8001118,3.20865274 C30.8394086,3.17906753 30.0190822,3.64397795 29.6133058,4.64142214 Z M15.2356593,8.82772922 C14.2508289,8.82772922 14.01833,8.33323358 14.01833,7.80069982 C14.01833,6.7652175 16.0296651,6.77578365 16.7469024,6.78846302 C16.7469024,7.54711231 16.36964,8.82772922 15.2356593,8.82772922 Z M15.5361532,3.0903119 C13.7617038,3.0903119 12.5772753,3.78767754 12.5772753,5.20354111 L14.3232107,5.20354111 C14.2990834,4.91402871 14.5820302,4.17862495 15.472545,4.17862495 C16.3323524,4.17862495 16.7469024,4.81470694 16.7469024,5.07886059 L16.7469024,5.67690446 C15.9243826,5.65154571 14.6193178,5.75298071 13.8033781,6.08264447 C12.5575348,6.57925333 12.263621,7.60839596 12.263621,8.05640055 C12.263621,9.30743225 13.2243242,10.0005714 14.5096485,10.0005714 C15.4396442,10.0005714 16.4836961,9.69203996 16.9486939,8.95452297 L16.9794013,8.95452297 C16.9794013,9.22290308 16.9991418,9.51452871 17.0408161,9.81249403 L18.6332145,9.81249403 L18.6332145,5.60294144 C18.6332145,3.66933671 16.9157931,3.0903119 15.5361532,3.0903119 Z M5.27768605,7.43511116 L3.45498213,0.725608411 L0.204383804,0.725608411 L0.204383804,9.81249403 L2.05998852,9.81249403 L2.05998852,2.03792375 L2.08192238,2.01045177 L4.41787866,9.81249403 L5.9510556,9.81249403 L8.54144469,2.01045177 L8.57215209,2.03792375 L8.57215209,9.81249403 L10.42337,9.81249403 L10.42337,0.725608411 L7.28682779,0.725608411 L5.27768605,7.43511116 Z" id="Fill-3"></path>
                    </g>
                    <g id="Group-8">
                        <path d="M16.9173898,30.6498622 L40.2523536,2.25948184 C40.6682371,1.761209 40.6509086,1.03279219 40.2350251,0.547925782 C39.8104774,0.0652937856 39.1065079,-0.0263169175 38.5844874,0.342360302 L4.41705788,24.2170033 L14.7664923,1.99358736 C15.0632425,1.34560922 14.7968171,0.570269856 14.1708258,0.259687229 C13.5405024,-0.0531298062 12.7910456,0.219467896 12.4899633,0.867446039 L0.126093128,27.4345499 C-0.125169826,27.9574013 0.00912589077,28.5964418 0.43800576,28.9807598 C0.869051688,29.3650779 1.49504301,29.4030628 1.96724408,29.074605 L32.3678954,7.82762507 L14.9960946,28.965119 C14.5455542,29.5103144 14.610536,30.3348107 15.1412207,30.7973331 C15.3838194,31.0028985 15.6675732,31.1034469 15.9578253,31.1034469 C16.3173912,31.1034469 16.6661269,30.9537416 16.9173898,30.6498622 M39.9707658,14.3453914 C39.9707658,21.9848303 33.9621155,28.1786076 26.5541905,28.1786076 C19.1505976,28.1786076 13.1484455,21.9848303 13.1484455,14.3453914 C13.1484455,6.70371815 19.1505976,0.509940857 26.5541905,0.509940857 C33.9621155,0.509940857 39.9707658,6.70371815 39.9707658,14.3453914" id="Fill-6"></path>
                    </g>
                </g>
            </g>
        </g>
    </g>
</svg>