<?xml version="1.0" encoding="UTF-8"?>
<svg width="80px" height="42px" viewBox="0 0 80 42" version="1.1" xmlns="http://www.w3.org/2000/svg" xmlns:xlink="http://www.w3.org/1999/xlink">
    <!-- Generator: Sketch 48.2 (47327) - http://www.bohemiancoding.com/sketch -->
    <title>Foundation / Icons / Logos / ORT</title>
    <desc>Created with Sketch.</desc>
    <defs>
        <polygon id="path-1" points="0 0.34152381 79.7517692 0.34152381 79.7517692 41.9047619 0 41.9047619"></polygon>
    </defs>
    <g id="Por-qué-TLS---Convenios" stroke="none" stroke-width="1" fill="none" fill-rule="evenodd" transform="translate(-645.000000, -843.000000)">
        <g id="content" transform="translate(102.000000, 286.000000)">
            <g id="Foundation-/-Icons-/-Logos-/-ORT" transform="translate(543.000000, 555.000000)">
                <g>
                    <g id="Group-3" transform="translate(0.000000, 1.753505)">
                        <mask id="mask-2" fill="white">
                            <use xlink:href="#path-1"></use>
                        </mask>
                        <g id="Clip-2"></g>
                        <path d="M49.1017846,31.6332762 C49.7061692,31.9643238 49.8806308,32.7332762 50.3001692,33.2549905 C50.1277846,33.418419 50.1360923,33.7620381 49.8017077,33.7620381 C49.9200923,33.3283238 49.2679385,33.3094667 49.2264,33.6363238 C49.1786308,34.0260381 49.8640154,33.9568952 50.0550923,33.8437524 C50.5286308,33.5650857 50.9689385,32.0062286 51.3324,31.6772762 C51.4092462,31.6374667 51.5608615,31.6772762 51.5484,31.5515619 C51.2929385,31.5892762 50.8713231,31.4572762 50.7591692,31.6332762 C50.9087077,31.6332762 51.0437077,31.6542286 51.0437077,31.7988 C50.9440154,32.0963238 50.7882462,32.3435619 50.6324769,32.5908 C50.4600923,32.3058476 50.2274769,32.0921333 50.1360923,31.7149905 C50.1464769,31.5997524 50.3645538,31.6982286 50.3437846,31.5515619 C49.9512462,31.5955619 49.3634769,31.4488952 49.1017846,31.6332762 Z M42.6508615,31.6332762 C42.7775538,31.6332762 42.8564769,31.6709905 42.9000923,31.7568952 C42.6030923,33.022419 43.4338615,33.5965143 44.2189385,32.9658476 C44.1898615,33.3828 44.8544769,33.0894667 45.1307077,33.1795619 C44.6987077,32.9909905 44.9541692,32.1109905 44.8856308,31.5515619 L43.9738615,31.5515619 C44.3290154,31.7359429 44.4619385,33.171181 43.6851692,32.9658476 C43.5044769,32.643181 43.6498615,32.0062286 43.6041692,31.5515619 C43.3009385,31.5934667 42.8211692,31.4530857 42.6508615,31.6332762 Z M36.4014,33.0077524 C36.6610154,33.3262286 37.4149385,33.2549905 37.6454769,32.9658476 C37.6039385,33.3660381 38.3869385,33.1355619 38.5967077,33.1355619 C38.5323231,33.0748 38.3827846,33.0978476 38.3474769,33.0077524 C38.3287846,32.5342286 38.3952462,31.9517524 38.3121692,31.5515619 L37.3962462,31.5515619 C37.7784,31.6709905 37.6143231,32.3309905 37.6454769,32.802419 C37.5146308,32.9029905 37.3837846,33.0077524 37.1096308,32.9658476 C36.9476308,32.6285143 37.0597846,32.0146095 37.0244769,31.5515619 L36.1168615,31.5515619 C36.5426308,31.7066095 36.2622462,32.5635619 36.4014,33.0077524 Z M46.2044769,32.0062286 C46.2917077,32.2723238 46.7839385,32.2723238 46.9127077,32.0502286 C46.9251692,31.8742286 46.7070923,31.922419 46.7444769,31.7149905 C46.9563231,31.658419 47.1847846,31.5892762 47.3197846,31.7568952 C47.3966308,31.834419 47.3530154,32.0334667 47.3675538,32.1738476 C46.9480154,32.3309905 46.0320923,32.4629905 46.1650154,32.9658476 C46.2688615,33.3513714 47.0290154,33.1795619 47.3197846,32.9658476 C47.5254,33.286419 48.1879385,33.2654667 48.3644769,32.9218476 C48.2336308,32.9134667 48.1048615,33.0454667 48.0695538,32.8862286 C48.0695538,32.5048952 48.0737077,32.1214667 48.0300923,31.7988 C47.6687077,31.3692762 46.3540154,31.3923238 46.2044769,32.0062286 Z M39.5500154,32.0921333 C39.5375538,32.4546095 39.8906308,32.4755619 40.1294769,32.6746095 C39.8574,32.7165143 39.6933231,32.8506095 39.6310154,33.0936571 C39.6600923,33.2549905 39.8137846,33.2948 39.9259385,33.3869905 C39.7452462,33.4121333 39.5811692,33.4561333 39.5500154,33.6363238 C39.9259385,34.0763238 41.6705538,34.1035619 41.7827077,33.4687048 C41.9197846,32.6662286 40.4057077,33.2717524 40.0900154,32.8422286 C40.5074769,32.5258476 41.5230923,32.7793714 41.5750154,32.1738476 C41.5937077,31.9328952 41.4109385,31.8972762 41.4109385,31.7568952 C41.5355538,31.719181 41.8387846,31.8574667 41.7827077,31.6332762 C41.0267077,31.5327048 39.5541692,31.3378476 39.5500154,32.0921333 Z M34.2164769,31.8805143 L34.2164769,31.5515619 C33.9111692,31.5934667 33.4272462,31.4530857 33.2590154,31.6332762 C33.3940154,31.6332762 33.4708615,31.6709905 33.5144769,31.7568952 L33.5144769,33.0559429 C33.4189385,33.083181 33.2818615,33.0748 33.2590154,33.1795619 L34.5051692,33.1795619 C34.4989385,33.0077524 34.1977846,33.1523238 34.2164769,32.9658476 C34.2081692,32.4629905 34.1562462,31.9098476 34.5840923,31.8428 C34.7170154,31.9496571 34.9994769,32.0188 35.2071692,31.922419 C35.2175538,31.8909905 35.2071692,31.8428 35.2445538,31.8428 C35.1801692,31.130419 34.3203231,31.7778476 34.2164769,31.8805143 Z M29.3710154,31.0487048 C29.4707077,31.7317524 29.1882462,32.4546095 29.4956308,32.8862286 C29.8258615,33.3450857 31.3690154,33.4247048 31.7740154,32.8862286 C32.1810923,32.3435619 31.6971692,31.7568952 31.9380923,31.0487048 C32.0045538,30.8957524 32.3098615,30.9858476 32.3950154,30.839181 L31.2340154,30.839181 C31.2651692,31.0235619 31.6452462,30.8475619 31.6452462,31.0487048 C31.6016308,31.6709905 31.8861692,32.1214667 31.6452462,32.6746095 C31.4334,33.1795619 30.3637846,33.2130857 30.1976308,32.7165143 C30.0273231,32.1906095 30.3305538,31.6165143 30.1976308,31.0068 C30.2391692,30.839181 30.6358615,31.0298476 30.6566308,30.839181 L28.9577077,30.839181 C28.9847077,31.0235619 29.3627077,30.8475619 29.3710154,31.0487048 Z M65.9747077,27.1683238 L65.9747077,27.7948 C66.2010923,27.5035619 66.5562462,27.1306095 67.1357077,27.3338476 C67.1128615,27.979181 67.1876308,28.7208952 67.0920923,29.3012762 C67.0567846,29.4647048 66.6600923,29.2761333 66.6393231,29.4647048 L68.4607846,29.4647048 C68.4337846,29.2677524 67.9955538,29.4877524 68.0038615,29.2530857 C67.9083231,28.6852762 67.9893231,27.9330857 67.9602462,27.2961333 C68.6186308,27.187181 68.8803231,27.4847048 69.1212462,27.7948 L69.1212462,27.1683238 C68.1866308,27.1557524 67.0360154,27.1725143 65.9747077,27.1683238 Z M64.9466308,27.671181 C64.7576308,26.8582286 62.1490154,27.2123238 61.7190923,27.2060381 C61.9392462,27.2123238 62.1490154,27.2186095 62.2154769,27.3736571 C62.1947077,28.0189905 62.2632462,28.7628 62.1780923,29.3348 C62.0680154,29.4269905 61.7544,29.3054667 61.7190923,29.4647048 C62.3047846,29.4353714 63.0130154,29.5170857 63.5322462,29.4186095 C63.4408615,29.3285143 63.1314,29.4458476 63.0815538,29.3012762 C63.0213231,29.0938476 63.0088615,28.6182286 63.0815538,28.4254667 C63.9704769,28.6789905 64.0286308,29.7894667 65.4824769,29.4647048 C65.0068615,29.1692762 64.4710154,28.7313714 64.2384,28.3374667 C64.6620923,28.2725143 65.0504769,28.1195619 64.9466308,27.671181 Z M57.2059385,28.2096571 C57.0750923,29.9633714 60.9464769,29.9843238 60.9277846,28.2976571 C60.9194769,27.2332762 59.6442462,27.0048952 58.5310154,27.1683238 C57.7625538,27.2835619 57.2537077,27.6355619 57.2059385,28.2096571 Z M53.4882462,28.2976571 C53.4674769,26.9692762 51.1454769,27.0928952 49.9720154,27.2060381 C50.1714,27.1976571 50.3354769,27.231181 50.4310154,27.3338476 C50.4434769,27.8786095 50.4247846,28.7586095 50.4310154,29.3012762 C50.3645538,29.4437524 50.0052462,29.2845143 49.9720154,29.4647048 C51.4798615,29.4647048 53.5152462,29.6658476 53.4882462,28.2976571 Z M44.8025538,28.4254667 C44.9271692,27.0342286 42.6778615,27.0572762 41.2863231,27.2060381 C41.4940154,27.1934667 41.6560154,27.2248952 41.7390923,27.3338476 C41.7910154,27.9142286 41.8470923,28.8214667 41.6975538,29.3348 C41.6394,29.4605143 41.2697077,29.2740381 41.2863231,29.4647048 C42.7775538,29.4605143 44.6862462,29.6553714 44.8025538,28.4254667 Z M38.7690923,27.2060381 C39.6040154,27.0426095 39.0993231,28.7942286 39.1761692,29.3348 C39.0847846,29.4395619 38.7358615,29.282419 38.7213231,29.4647048 L40.5386308,29.4647048 C40.5137077,29.2845143 40.1460923,29.4437524 40.0900154,29.3012762 C40.0131692,28.7041333 40.0214769,27.8890857 40.0900154,27.2961333 C40.2208615,27.231181 40.4140154,27.231181 40.5386308,27.1683238 C40.0339385,27.1934667 39.0847846,27.1096571 38.7690923,27.2060381 Z M34.1313231,27.7948 C34.1520923,26.8058476 31.6597846,27.275181 30.9474,27.1683238 C30.8892462,27.2542286 31.3482462,27.1767048 31.3648615,27.3338476 C31.4292462,27.8974667 31.4292462,28.7355619 31.3648615,29.3012762 C31.3067077,29.4542286 30.9432462,29.3012762 30.8996308,29.4647048 C31.4977846,29.4353714 32.1977077,29.5170857 32.7190154,29.4186095 C32.6276308,29.3285143 32.3098615,29.4458476 32.2683231,29.3012762 C32.2101692,29.0938476 32.1977077,28.6182286 32.2683231,28.4254667 C33.1447846,28.6957524 33.2133231,29.7852762 34.6692462,29.4647048 C34.1874,29.1818476 33.6515538,28.7355619 33.4272462,28.3374667 C33.8114769,28.2725143 34.1230154,28.1509905 34.1313231,27.7948 Z M26.8911692,27.2060381 C27.1092462,27.1976571 27.2920154,27.231181 27.3501692,27.3736571 L27.3501692,29.3012762 C27.2691692,29.4395619 26.9098615,29.3012762 26.8496308,29.4647048 L29.9110154,29.4647048 C29.9193231,29.1755619 30.0418615,29.0058476 30.0314769,28.710419 C29.7884769,29.1818476 28.8663231,29.5568952 28.2162462,29.2090857 C28.2453231,28.9450857 28.1664,28.5742286 28.2536308,28.3814667 C28.7500154,28.2976571 28.8144,28.6454667 28.9992462,28.8759429 C29.0989385,28.5595619 29.0179385,28.0567048 29.0428615,27.671181 C28.8060923,27.8807048 28.7790923,28.3207048 28.2162462,28.2096571 L28.2162462,27.2961333 C28.6752462,27.3296571 29.0802462,27.2228 29.3710154,27.3736571 C29.6036308,27.495181 29.5662462,27.7319429 29.7884769,27.8325143 L29.7884769,27.1683238 C28.8102462,27.2060381 27.4332462,27.0949905 26.8911692,27.2060381 Z M22.4631692,27.2060381 C22.5670154,27.2060381 22.5898615,27.2835619 22.7124,27.2542286 C23.2939385,27.9519429 23.6802462,28.8382286 24.2929385,29.5045143 C24.9866308,28.7942286 25.2732462,27.6628 26.1954,27.1683238 C25.7924769,27.1725143 25.4144769,27.0949905 25.0281692,27.2060381 C26.1684,27.1641333 24.6335538,28.551181 24.5754,28.7523238 C24.3427846,28.2096571 23.9336308,27.8408952 23.7030923,27.2961333 C23.8069385,27.1955619 24.0499385,27.2542286 24.1662462,27.1683238 C23.7030923,27.1934667 22.8723231,27.1075619 22.4631692,27.2060381 Z M19.9417846,27.2060381 C20.1411692,27.2060381 20.3384769,27.2039429 20.4007846,27.3338476 C20.4963231,27.8932762 20.4153231,28.6245143 20.4423231,29.2530857 C20.4007846,29.4458476 20.0103231,29.2887048 19.9417846,29.4647048 L21.7632462,29.4647048 C21.7320923,29.2761333 21.3146308,29.4688952 21.3063231,29.2530857 C21.2398615,28.6894667 21.2460923,27.8597524 21.3063231,27.2961333 C21.3997846,27.231181 21.7632462,27.2248952 21.7196308,27.1683238 C21.1464,27.1955619 20.3177077,27.0949905 19.9417846,27.2060381 Z M16.7952462,27.1683238 C16.4297077,27.0719429 15.9333231,27.1850857 15.5574,27.2060381 C15.8066308,27.2248952 15.9977077,27.3045143 16.0932462,27.4595619 C16.0766308,28.0525143 16.1472462,28.7292762 16.0579385,29.2530857 C15.9852462,29.4186095 15.6487846,29.3117524 15.5574,29.4647048 L16.7952462,29.4647048 C16.7267077,29.2845143 16.3300154,29.4395619 16.3071692,29.2090857 C16.2407077,28.7732762 16.2303231,28.0629905 16.3071692,27.627181 C17.1462462,28.2201333 17.8254,28.9848952 18.7454769,29.5045143 L18.7454769,27.3736571 C18.8327077,27.2437524 19.0611692,27.2542286 19.2003231,27.1683238 C18.7932462,27.2060381 18.2781692,27.0928952 18.0434769,27.2060381 C18.2511692,27.2060381 18.4152462,27.2542286 18.5004,27.3736571 C18.5668615,27.671181 18.5668615,28.2452762 18.5004,28.5428 C17.9790923,28.3207048 17.3435538,27.3087048 16.7952462,27.1683238 Z M11.8417846,27.1683238 C11.7067846,27.1683238 11.2457077,27.1327048 11.3433231,27.2060381 C11.5032462,27.2123238 11.6320154,27.2542286 11.7171692,27.3338476 C11.8127077,28.0252762 11.5530923,28.6245143 11.7940154,29.0875619 C12.1657846,29.7852762 13.8065538,29.5820381 14.2780154,29.1294667 C14.4566308,28.6852762 14.3922462,27.9917524 14.4005538,27.3736571 C14.4960923,27.231181 14.7328615,27.231181 14.8969385,27.1683238 C14.3008615,27.187181 14.1326308,27.0866095 13.6611692,27.2060381 C14.4815538,27.1012762 14.0433231,28.2620381 14.1554769,28.8759429 C14.0329385,29.3683238 13.0235538,29.5045143 12.6600923,29.1294667 C12.4897846,28.6768952 12.6247846,27.9205143 12.5790923,27.3338476 C12.6704769,27.2039429 12.9342462,27.2458476 13.0754769,27.1683238 C12.7971692,27.1557524 12.2405538,27.1683238 11.8417846,27.1683238 Z M45.5897077,29.4647048 L46.7444769,29.4647048 C46.7112462,29.2761333 46.3000154,29.4688952 46.2917077,29.2530857 C46.3083231,29.0435619 46.4246308,28.9199429 46.5388615,28.7963238 L47.7372462,28.7963238 C47.8369385,28.9765143 47.9698615,29.1127048 48.0300923,29.3348 C47.9428615,29.4353714 47.6167846,29.2887048 47.6126308,29.4647048 C48.1650923,29.4353714 48.8297077,29.5170857 49.3053231,29.4186095 C48.3852462,28.9513714 48.1505538,27.7822286 47.4464769,27.082419 C46.8213231,27.8702286 46.4620154,28.9283238 45.5897077,29.4647048 Z M37.3547077,27.2542286 C36.6693231,27.0048952 35.5976308,26.9818476 35.4522462,27.671181 C35.2653231,28.5805143 37.2778615,28.4275619 37.2737077,29.0477524 C37.2695538,29.6616571 35.9922462,29.282419 35.7887077,29.0875619 C35.6246308,28.9325143 35.6454,28.7690857 35.4522462,28.6245143 C35.3629385,28.8445143 35.4377077,29.2216571 35.4086308,29.5045143 C35.7679385,29.282419 35.9943231,29.4647048 36.3577846,29.5045143 C37.0307077,29.5820381 37.9050923,29.3808952 37.9009385,28.7963238 C37.8864,27.9938476 35.9340923,28.0525143 35.9922462,27.5035619 C36.0337846,27.0866095 37.0057846,27.1934667 37.3152462,27.4595619 C37.4647846,27.5894667 37.4502462,27.7780381 37.6454769,27.8786095 L37.6454769,27.082419 C37.4710154,27.0572762 37.5644769,27.3108 37.3547077,27.2542286 Z M34.1313231,9.18699048 C32.8394769,8.59194286 31.2880154,8.09327619 29.3710154,8.22527619 C26.2244769,8.44737143 23.6844,10.1256571 22.3032462,12.2313714 C20.8410923,14.4460381 20.3426308,18.1776571 21.8047846,20.8679429 C22.1329385,21.4713714 22.6895538,22.1753714 23.2129385,22.7452762 C25.1278615,24.8237524 28.2266308,25.9949905 31.9380923,25.3748 C34.2912462,24.9746095 35.9174769,23.7887048 37.3547077,22.3681333 L37.3547077,25.3748 C38.9290154,25.471181 40.6777846,25.3894667 42.3164769,25.4146095 C42.2915538,23.6043238 42.3725538,21.687181 42.2832462,19.9502286 C43.8139385,21.6389905 45.0621692,23.6252762 46.4994,25.4146095 L56.3814,25.4146095 L56.3814,12.7342286 L60.0658615,12.7342286 C60.1593231,11.3681333 60.0783231,9.82813333 60.1094769,8.3908 C56.3772462,8.29232381 51.6937846,8.37613333 47.6936308,8.35308571 L47.6936308,9.47822857 C46.6593231,8.55422857 44.9043231,8.40337143 42.8564769,8.35308571 C40.9519385,8.3028 39.1450154,8.3028 37.3547077,8.35308571 L37.3547077,11.6468 C36.5322462,10.6075619 35.4377077,9.78832381 34.1313231,9.18699048 Z M-0.000830769231,0.340895238 L79.7530154,0.340895238 L79.7530154,41.8957524 C53.1891692,41.8685143 26.5090154,41.9565143 -0.000830769231,41.8538476 L-0.000830769231,0.340895238 Z" id="Fill-1" fill="#FEFEFE" mask="url(#mask-2)"></path>
                    </g>
                    <path d="M42.3638308,14.4416381 C43.7719846,14.3389714 45.0617538,14.6113524 45.4252154,15.566781 C46.0898308,17.310019 44.1229846,18.3010667 42.3181385,17.9071619 C42.3430615,16.7652571 42.2641385,15.5123048 42.3638308,14.4416381" id="Fill-4" fill="#FEFEFE"></path>
                    <path d="M51.2921077,14.4416381 L51.2921077,26.2084952 C51.1072615,26.2378286 50.9660308,25.890019 50.7978,25.6637333 C49.6409538,24.1404952 48.1995692,22.5837333 47.1590308,20.9096381 C49.2359538,19.8243048 50.7292615,17.662019 50.2993385,14.4416381 L51.2921077,14.4416381 Z" id="Fill-6" fill="#FEFEFE"></path>
                    <path d="M29.1681,14.488781 C28.7797154,14.7695429 28.3871769,15.0565905 28.0071,15.3583048 C27.7786385,15.3017333 27.5231769,15.2703048 27.4338692,15.0691619 C28.0029462,14.8701143 28.4764846,14.5663048 29.1681,14.488781" id="Fill-8" fill="#FEFEFE"></path>
                    <path d="M30.9002538,14.5254476 C31.5295615,14.4877333 32.0612538,14.8879238 32.5617923,15.1121143 C32.4330231,15.2524952 32.1754846,15.258781 32.0238692,15.3572571 C31.5794077,15.1477333 31.3654846,14.7182095 30.9002538,14.5254476" id="Fill-10" fill="#FEFEFE"></path>
                    <path d="M29.5434,14.6113524 C29.3398615,14.9424 29.1280154,15.2524952 28.9244769,15.566781 C28.6627846,15.5982095 28.5485538,15.5018286 28.3387846,15.4871619 C28.6170923,15.0744 29.0677846,14.8292571 29.5434,14.6113524" id="Fill-12" fill="#FEFEFE"></path>
                    <path d="M29.8719692,14.6113524 C29.9010462,14.9968762 29.8013538,15.2608762 29.8262769,15.654781 C29.5562769,15.6212571 29.4088154,15.7218286 29.2073538,15.654781 C29.3527385,15.2273524 29.4856615,14.7957333 29.8719692,14.6113524" id="Fill-14" fill="#FEFEFE"></path>
                    <path d="M30.1172538,14.6113524 C30.4474846,14.8669714 30.6801,15.2126857 30.8254846,15.654781 C30.6032538,15.654781 30.3124846,15.7616381 30.1172538,15.654781 L30.1172538,14.6113524 Z" id="Fill-16" fill="#FEFEFE"></path>
                    <path d="M30.4884,14.6503238 C30.9744,14.6775619 31.4687077,15.0568 31.6452462,15.532419 C31.5372462,15.5659429 31.3648615,15.5387048 31.2734769,15.6120381 C30.9847846,15.3228952 30.7874769,14.9352762 30.4884,14.6503238" id="Fill-18" fill="#FEFEFE"></path>
                    <path d="M27.7605692,15.6549905 C27.5154923,16.0468 27.2392615,16.407181 27.0191077,16.8220381 C26.7262615,16.6816571 26.3254154,16.6586095 26.1468,16.4008952 C26.4168,15.7681333 26.9941846,14.9572762 27.7605692,15.6549905" id="Fill-20" fill="#FEFEFE"></path>
                    <path d="M33.8453308,16.5716571 C33.5836385,16.6449905 33.3198692,16.9068952 33.0955615,16.8649905 C32.6697923,16.7769905 32.6116385,15.7796571 32.1837923,15.6120381 C32.9190231,15.004419 33.6646385,15.8634667 33.8453308,16.5716571" id="Fill-22" fill="#FEFEFE"></path>
                    <path d="M32.6851615,16.905219 C32.3943923,17.0183619 32.0413154,17.0665524 31.6840846,17.1105524 C31.5615462,16.6956952 31.4473154,16.2703619 31.3206231,15.8596952 C32.1493154,15.3777905 32.3196231,16.4254095 32.6851615,16.905219" id="Fill-24" fill="#FEFEFE"></path>
                    <path d="M28.7543769,15.8596952 C28.5944538,16.2556952 28.4989154,16.7229333 28.3016077,17.0728381 C28.0149923,16.9995048 27.6930692,16.9596952 27.3919154,16.905219 C27.4853769,16.3918857 27.8114538,16.1027429 28.0461462,15.7318857 C28.2912231,15.7696 28.5134538,15.821981 28.7543769,15.8596952" id="Fill-26" fill="#FEFEFE"></path>
                    <path d="M29.8252385,15.9456 L29.8252385,17.1985524 C29.4347769,17.2048381 29.0567769,17.1985524 28.7120077,17.1524571 C28.7493923,16.5846476 28.8615462,15.585219 29.8252385,15.9456" id="Fill-28" fill="#FEFEFE"></path>
                    <path d="M30.9002538,15.9045333 C31.2304846,16.147581 31.3301769,16.8327238 31.3987154,17.1972952 C30.9584077,17.1972952 30.5887154,17.2706286 30.1172538,17.2392 L30.1172538,15.9464381 C30.3810231,15.9338667 30.7029462,15.9757714 30.9002538,15.9045333" id="Fill-30" fill="#FEFEFE"></path>
                    <path d="M25.7727462,16.8641524 C26.2483615,16.8327238 26.5017462,17.0254857 26.8506692,17.1092952 C26.8299,17.6519619 26.6824385,18.0584381 26.6471308,18.5717714 L25.4445923,18.5717714 C25.4383615,17.8866286 25.5297462,17.2978667 25.7727462,16.8641524" id="Fill-32" fill="#FEFEFE"></path>
                    <path d="M34.5408923,18.572819 L33.3445846,18.572819 C33.3487385,17.9966286 33.2116615,17.5671048 33.0953538,17.1103429 C33.4006615,17.0307238 33.7038923,16.7960571 33.9635077,16.8652 C34.4495077,16.9867238 34.4578154,18.0112952 34.5408923,18.572819" id="Fill-34" fill="#FEFEFE"></path>
                    <path d="M32.8068692,17.1977143 C33.0104077,17.5497143 33.0789462,18.0358095 33.0519462,18.6161905 L31.8971769,18.6161905 C31.8577154,18.2369524 31.8577154,17.82 31.8161769,17.4470476 C32.1692538,17.388381 32.5431,17.344381 32.8068692,17.1977143" id="Fill-36" fill="#FEFEFE"></path>
                    <path d="M28.3020231,17.4084952 C28.1919462,17.7185905 28.2168692,18.162781 28.2168692,18.5734476 L27.0517154,18.5734476 C27.0413308,18.0601143 27.1098692,17.6201143 27.2199462,17.238781 C27.5937923,17.2806857 27.8907923,17.3959238 28.3020231,17.4084952" id="Fill-38" fill="#FEFEFE"></path>
                    <path d="M28.5940385,17.4883238 L29.8256538,17.4883238 L29.8256538,18.5736571 C29.3874231,18.5883238 28.9824231,18.6428 28.5047308,18.6155619 C28.5130385,18.2174667 28.5940385,17.8989905 28.5940385,17.4883238" id="Fill-40" fill="#FEFEFE"></path>
                    <path d="M30.1172538,17.4883238 L31.4859462,17.4883238 C31.5461769,17.8277524 31.5835615,18.1881333 31.6022538,18.5736571 C31.0851,18.6050857 30.6364846,18.6218476 30.1172538,18.5736571 L30.1172538,17.4883238 Z" id="Fill-42" fill="#FEFEFE"></path>
                    <path d="M26.6469231,18.8223619 C26.6656154,19.3901714 26.8151538,19.8217905 26.9335385,20.2848381 C26.595,20.4545524 26.2294615,20.6075048 25.7725385,20.661981 C25.5793846,20.1842667 25.4132308,19.4781714 25.4900769,18.8684571 C25.9137692,18.8998857 26.2211538,18.8014095 26.6469231,18.8223619" id="Fill-44" fill="#FEFEFE"></path>
                    <path d="M27.0525462,18.8695048 L28.2177,18.8695048 C28.2031615,19.2801714 28.2530077,19.6384571 28.3028538,19.9946476 C27.9103154,20.0470286 27.5842385,20.1580762 27.2207769,20.2376952 C27.1044692,19.8668381 27.0068538,19.2801714 27.0525462,18.8695048" id="Fill-46" fill="#FEFEFE"></path>
                    <path d="M28.5049385,18.8695048 L29.8258615,18.8695048 L29.8258615,19.8668381 C29.4125538,19.9003619 29.0574,19.9757905 28.5942462,19.9527429 C28.4530154,19.699219 28.5132462,19.2403619 28.5049385,18.8695048" id="Fill-48" fill="#FEFEFE"></path>
                    <path d="M30.1172538,18.8695048 L31.6022538,18.8695048 C31.5503308,19.1963619 31.5835615,19.6300762 31.4859462,19.9108381 C31.1224846,19.9590286 30.5700231,19.8584571 30.1172538,19.8668381 L30.1172538,18.8695048 Z" id="Fill-50" fill="#FEFEFE"></path>
                    <path d="M31.8961385,18.8695048 L33.0529846,18.8695048 C33.0301385,19.3514095 32.9616,19.7976952 32.8058308,20.1601714 C32.4299077,20.1350286 32.0996769,20.0658857 31.7736,19.9946476 C31.8213692,19.6300762 31.8670615,19.2508381 31.8961385,18.8695048" id="Fill-52" fill="#FEFEFE"></path>
                    <path d="M33.3441692,18.8695048 L34.5051692,18.8695048 C34.5321692,19.6154095 34.2912462,20.0994095 34.0524,20.5750286 C33.6827077,20.5247429 33.4230923,20.3696952 33.0949385,20.2858857 C33.2195538,19.8542667 33.3815538,19.4603619 33.3441692,18.8695048" id="Fill-54" fill="#FEFEFE"></path>
                    <path d="M30.1172538,20.1605905 C30.5700231,20.1626857 31.0144846,20.1773524 31.3654846,20.2863048 C31.3301769,20.8226857 31.0622538,21.1244 30.9459462,21.5748762 C30.6697154,21.5623048 30.4329462,21.512019 30.1172538,21.5350667 L30.1172538,20.1605905 Z" id="Fill-56" fill="#FEFEFE"></path>
                    <path d="M29.8252385,20.2014476 L29.8252385,21.5361143 C28.8864692,21.8105905 28.8054692,20.962019 28.6683923,20.2852571 C28.9238538,20.1176381 29.4472385,20.2349714 29.8252385,20.2014476" id="Fill-58" fill="#FEFEFE"></path>
                    <path d="M31.7744308,20.2854667 C32.0652,20.3315619 32.3102769,20.4258476 32.6363538,20.4468 C32.4618923,20.9538476 32.2022769,21.3708 31.8969692,21.7458476 C31.7121231,21.6829905 31.4525077,21.6955619 31.2738923,21.6222286 C31.4192769,21.1508 31.6456615,20.7694667 31.7744308,20.2854667" id="Fill-60" fill="#FEFEFE"></path>
                    <path d="M28.3811538,20.3242286 C28.4953846,20.785181 28.6553077,21.1874667 28.755,21.6630857 C28.6075385,21.7196571 28.3686923,21.6903238 28.2523846,21.7846095 C27.8245385,21.4975619 27.5649231,21.0366095 27.4340769,20.4478476 C27.7144615,20.3745143 27.999,20.3053714 28.3811538,20.3242286" id="Fill-62" fill="#FEFEFE"></path>
                    <path d="M26.9754923,20.5758667 C27.3202615,20.9592952 27.5238,21.4705333 27.8851846,21.828819 C27.1790308,22.4301524 26.4624923,21.6130095 26.1468,21.0766286 C26.2818,20.7707238 26.7117231,20.7623429 26.9754923,20.5758667" id="Fill-64" fill="#FEFEFE"></path>
                    <path d="M33.8453308,20.8685714 C33.6127154,21.3881905 33.2326385,21.7548571 32.8068692,22.079619 C32.5659462,22.0607619 32.4288692,21.9287619 32.1837923,21.9099048 C32.3437154,21.5118095 32.8276385,21.0822857 33.0104077,20.5752381 C33.3447923,20.6171429 33.6002538,20.7344762 33.8453308,20.8685714" id="Fill-66" fill="#FEFEFE"></path>
                    <path d="M29.8719692,21.9099048 C29.9072769,22.2912381 29.8075846,22.5426667 29.8262769,22.9177143 C29.5479692,22.6977143 29.3298923,22.1906667 29.2488923,21.9099048 C29.3797385,21.8512381 29.7452769,21.8512381 29.8719692,21.9099048" id="Fill-68" fill="#FEFEFE"></path>
                    <path d="M30.7399154,21.9530667 C30.6090692,22.3511619 30.4616077,22.7304 30.1168385,22.9189714 C30.1479923,22.5753524 30.0711462,22.1374476 30.1646077,21.8671619 C30.3764538,21.8797333 30.5696077,21.9006857 30.7399154,21.9530667" id="Fill-70" fill="#FEFEFE"></path>
                    <path d="M31.6446231,21.9939238 C31.3476231,22.3626857 30.9467769,22.6224952 30.5334692,22.8718286 C30.7307769,22.5344952 30.9093923,21.6964 31.6446231,21.9939238" id="Fill-72" fill="#FEFEFE"></path>
                    <path d="M28.9570846,21.9530667 C29.1211615,22.2631619 29.3413154,22.5208762 29.4576231,22.870781 C29.0754692,22.6570667 28.7286231,22.4119238 28.5043154,22.034781 C28.6580077,22.0075429 28.7493923,21.9258286 28.9570846,21.9530667" id="Fill-74" fill="#FEFEFE"></path>
                    <path d="M32.5613769,22.3683429 C32.0982231,22.7245333 31.4419154,22.8858667 30.7399154,22.994819 C31.0888385,22.6742476 31.5146077,22.4102476 31.8531462,22.0792 C32.1106846,22.1546286 32.3453769,22.2552 32.5613769,22.3683429" id="Fill-76" fill="#FEFEFE"></path>
                    <path d="M29.2067308,22.9187619 C28.6023462,22.9941905 28.0665,22.646381 27.5576538,22.4955238 C28.0748077,21.7286667 28.6750385,22.7092381 29.2067308,22.9187619" id="Fill-78" fill="#FEFEFE"></path>
                    <path d="M59.0259462,29.0079429 C59.4060231,28.9765143 59.7861,29.1839429 59.8982538,29.4248952 C60.1599462,29.9738476 59.9294077,30.8517524 59.5701,31.0549905 C58.1494846,31.8092762 57.4724077,29.106419 59.0259462,29.0079429" id="Fill-80" fill="#FEFEFE"></path>
                    <path d="M32.2267846,29.0490095 C32.6359385,29.0322476 33.0471692,29.0280571 33.2216308,29.2585333 C33.2777077,29.3800571 33.2590154,29.5770095 33.2590154,29.7572 C33.0700154,30.0065333 32.6899385,30.0631048 32.2267846,30.0526286 L32.2267846,29.0490095 Z" id="Fill-82" fill="#FEFEFE"></path>
                    <path d="M42.6498231,31.0541524 C42.5542846,30.4653905 42.6311308,29.7027238 42.6062077,29.0490095 C44.2802077,28.6111048 44.2303615,31.569581 42.6498231,31.0541524" id="Fill-84" fill="#FEFEFE"></path>
                    <path d="M51.3328154,31.0541524 C51.2414308,30.4653905 51.3245077,29.7027238 51.2912769,29.0490095 C52.9611231,28.6152952 52.9154308,31.5632952 51.3328154,31.0541524" id="Fill-86" fill="#FEFEFE"></path>
                    <path d="M63.0398077,29.0490095 C64.4188846,28.709581 64.3565769,30.3711048 63.0398077,30.0526286 L63.0398077,29.0490095 Z" id="Fill-88" fill="#FEFEFE"></path>
                    <path d="M47.1160385,29.6729714 C47.3320385,29.8741143 47.4753462,30.1444 47.6124231,30.4209714 L46.6238077,30.4209714 C46.7733462,30.1569714 46.9374231,29.9118286 47.1160385,29.6729714" id="Fill-90" fill="#FEFEFE"></path>
                    <path d="M40.8285692,33.4684952 C40.9573385,33.6675429 40.9531846,34.1557333 40.7911846,34.3044952 C39.9998769,34.6837333 40.1328,32.9425905 40.8285692,33.4684952" id="Fill-92" fill="#FEFEFE"></path>
                    <path d="M47.3675538,34.5959429 C47.1474,34.6462286 46.9895538,34.7069905 46.8296308,34.5540381 C46.8213231,34.2250857 47.1162462,34.2062286 47.2886308,34.0532762 C47.4651692,34.0826095 47.3197846,34.4325143 47.3675538,34.5959429" id="Fill-94" fill="#FEFEFE"></path>
                    <path d="M41.3619231,35.3018286 C41.2684615,35.6894476 40.0596923,35.674781 39.96,35.3018286 C40.2113077,35.1153524 41.1230769,35.1048762 41.3619231,35.3018286" id="Fill-96" fill="#FEFEFE"></path>
                </g>
            </g>
        </g>
    </g>
</svg>