<?xml version="1.0" encoding="UTF-8"?>
<svg width="125px" height="34px" viewBox="0 0 125 34" version="1.1" xmlns="http://www.w3.org/2000/svg" xmlns:xlink="http://www.w3.org/1999/xlink">
    <!-- Generator: Sketch 48.2 (47327) - http://www.bohemiancoding.com/sketch -->
    <title>Foundation / Icons / Logos / Tec de monterrey</title>
    <desc>Created with Sketch.</desc>
    <defs>
        <polygon id="path-1" points="-0.000233333333 0.1064 7.94243333 0.1064 7.94243333 11.6666667 -0.000233333333 11.6666667"></polygon>
    </defs>
    <g id="Por-qué-TLS---Convenios" stroke="none" stroke-width="1" fill="none" fill-rule="evenodd" transform="translate(-859.000000, -846.000000)">
        <g id="content" transform="translate(102.000000, 286.000000)">
            <g id="Foundation-/-Icons-/-Logos-/-Tec-de-monterrey" transform="translate(757.000000, 560.000000)">
                <g>
                    <path d="M46.7159,7.22003333 L46.1862333,7.22003333 C46.1442333,7.0427 46.0602333,6.8257 45.9365667,6.56903333 C45.8199,6.31936667 45.6845667,6.0767 45.5399,5.85503333 C45.3859,5.6217 45.2179,5.41636667 45.0359,5.24136667 C44.8562333,5.06403333 44.6812333,4.96603333 44.5132333,4.93803333 C44.3522333,4.9217 44.1562333,4.90536667 43.9205667,4.89136667 C43.6802333,4.88203333 43.4539,4.8797 43.2509,4.8797 L42.8005667,4.8797 L42.8005667,13.5433667 C42.8005667,13.7137 42.8379,13.8700333 42.9172333,14.0147 C42.9802333,14.1523667 43.1062333,14.2597 43.2882333,14.3343667 C43.3769,14.3693667 43.5682333,14.4137 43.8645667,14.4790333 C44.1562333,14.5373667 44.3849,14.5747 44.5482333,14.5793667 L44.5482333,15.1207 L39.4242333,15.1207 L39.4242333,14.5793667 C39.5689,14.5700333 39.7835667,14.5467 40.0799,14.5140333 C40.3715667,14.4837 40.5745667,14.4510333 40.6912333,14.4020333 C40.8545667,14.3343667 40.9829,14.2387 41.0622333,14.1150333 C41.1415667,13.9867 41.1812333,13.8210333 41.1812333,13.6180333 L41.1812333,4.8797 L40.7355667,4.8797 C40.5745667,4.8797 40.3785667,4.8797 40.1452333,4.89136667 C39.9165667,4.89836667 39.6879,4.9147 39.4779,4.93803333 C39.3075667,4.96136667 39.1349,5.0547 38.9599,5.24136667 C38.7685667,5.42336667 38.6099,5.62636667 38.4512333,5.85503333 C38.3019,6.0837 38.1642333,6.3287 38.0475667,6.58303333 C37.9309,6.8397 37.8492333,7.0567 37.8025667,7.22003333 L37.2682333,7.22003333 L37.2682333,4.28236667 L46.7159,4.28236667 L46.7159,7.22003333 Z" id="Fill-1" fill="#FEFEFE"></path>
                    <path d="M46.9392,10.2165 C47.8422,10.2165 48.7312,10.2001667 49.6692,10.1675 C49.9562,10.1675 50.0542,10.0695 50.0542,9.84316667 C50.0728667,9.00083333 49.5245333,8.2285 48.6378667,8.2285 C47.8865333,8.2285 47.1795333,8.9075 46.9392,10.2165 Z M51.3585333,13.5065 C50.3435333,14.7828333 49.2282,15.0721667 48.7312,15.0721667 C46.7432,15.0721667 45.5835333,13.4645 45.5835333,11.6398333 C45.5835333,10.5198333 45.9848667,9.53983333 46.6498667,8.80716667 C47.3102,8.06983333 48.1805333,7.6335 49.0158667,7.6335 C50.3575333,7.6335 51.4448667,8.8305 51.4448667,10.0858333 C51.4448667,10.4078333 51.3585333,10.5385 51.0668667,10.6038333 C50.7892,10.6528333 48.7778667,10.8161667 46.8552,10.8791667 C46.8785333,13.0725 48.1268667,13.9778333 49.2585333,13.9778333 C49.9048667,13.9778333 50.5232,13.7165 51.1042,13.1751667 L51.3585333,13.5065 Z" id="Fill-3" fill="#FEFEFE"></path>
                    <path d="M58.8564667,13.4110667 C58.1401333,14.3560667 57.0504667,15.0724 56.0891333,15.0724 C54.0404667,15.0724 52.8318,13.4110667 52.8318,11.6704 C52.8318,10.4150667 53.3731333,9.3254 54.4581333,8.47606667 C55.3121333,7.82273333 56.2851333,7.5614 56.9174667,7.5614 C57.5754667,7.5614 58.1168,7.77606667 58.3734667,7.99073333 C58.5811333,8.16573333 58.6348,8.3104 58.6348,8.49706667 C58.6348,8.83306667 58.2754667,9.18773333 58.1004667,9.18773333 C58.0141333,9.18773333 57.9348,9.1434 57.7854667,9.01506667 C57.2954667,8.56006667 56.7238,8.34306667 56.1614667,8.34306667 C55.0811333,8.34306667 54.1361333,9.24373333 54.1361333,10.9517333 C54.1361333,13.2174 55.6831333,13.9640667 56.5978,13.9640667 C57.2954667,13.9640667 57.8298,13.7704 58.5811333,13.0704 L58.8564667,13.4110667 Z" id="Fill-5" fill="#FEFEFE"></path>
                    <path d="M64.1225667,15.1202333 L64.1225667,14.6885667 C65.1072333,14.5882333 65.2285667,14.4505667 65.2285667,13.3049 L65.2285667,10.5259 C65.2285667,9.38256667 64.8295667,8.6289 63.7095667,8.6289 C63.0445667,8.6289 62.3982333,9.04423333 61.8942333,9.4759 L61.8942333,13.3889 C61.8942333,14.5252333 61.9945667,14.5882333 62.9792333,14.6885667 L62.9792333,15.1202333 L59.3602333,15.1202333 L59.3602333,14.6885667 C60.4942333,14.5719 60.5829,14.4879 60.5829,13.3889 L60.5829,9.9449 C60.5829,8.87856667 60.4779,8.8319 59.5795667,8.65923333 L59.5795667,8.27656667 C60.3799,8.13423333 61.1592333,7.92656667 61.8942333,7.5999 L61.8942333,8.9299 C62.2279,8.68023333 62.5942333,8.42823333 63.0049,8.14823333 C63.4785667,7.84723333 63.9079,7.64423333 64.3885667,7.64423333 C65.7092333,7.64423333 66.5352333,8.56123333 66.5352333,10.1735667 L66.5352333,13.3889 C66.5352333,14.5252333 66.6192333,14.5882333 67.5829,14.6885667 L67.5829,15.1202333 L64.1225667,15.1202333 Z" id="Fill-7" fill="#FEFEFE"></path>
                    <path d="M70.0014,11.0117 C70.0014,13.0370333 70.8857333,14.5467 72.2040667,14.5467 C73.1980667,14.5467 74.0194,13.8047 74.0194,11.6043667 C74.0194,9.72603333 73.2657333,8.2047 71.8610667,8.2047 C70.8647333,8.2047 70.0014,9.1987 70.0014,11.0117 M75.5057333,11.2543667 C75.5057333,13.8373667 73.6157333,15.0717 72.0244,15.0717 C69.8287333,15.0717 68.5127333,13.3077 68.5127333,11.5273667 C68.5127333,8.87903333 70.5637333,7.6727 72.0244,7.6727 C74.0194,7.6727 75.5057333,9.2617 75.5057333,11.2543667" id="Fill-9" fill="#FEFEFE"></path>
                    <path d="M76.7326,15.1202333 L76.7326,14.7025667 C77.7429333,14.6069 77.8922667,14.5112333 77.8922667,13.4519 L77.8922667,5.8569 C77.8922667,4.76956667 77.7896,4.7229 76.7839333,4.64123333 L76.7839333,4.25856667 C77.6169333,4.16056667 78.6132667,3.8829 79.1569333,3.69623333 L79.1569333,13.4519 C79.1569333,14.5112333 79.2876,14.6069 80.3142667,14.7025667 L80.3142667,15.1202333 L76.7326,15.1202333 Z" id="Fill-11" fill="#FEFEFE"></path>
                    <path d="M84.1701,6.6549 C84.4851,5.97123333 85.1524333,4.34723333 85.2691,4.07423333 C85.4347667,4.00656667 86.3914333,3.8759 86.5827667,3.92256667 L86.6317667,4.07423333 L84.6017667,6.8649 L84.1701,6.6549 Z M82.7304333,10.9622333 C82.7304333,13.0085667 83.6264333,14.5369 84.9564333,14.5369 C85.9644333,14.5369 86.7881,13.7879 86.7881,11.5642333 C86.7881,9.66256667 86.0321,8.12023333 84.6157667,8.12023333 C83.6124333,8.12023333 82.7304333,9.12356667 82.7304333,10.9622333 Z M88.3047667,11.2025667 C88.3047667,13.8205667 86.3914333,15.0712333 84.7814333,15.0712333 C82.5507667,15.0712333 81.2114333,13.2932333 81.2114333,11.4825667 C81.2114333,8.80156667 83.2974333,7.58123333 84.7814333,7.58123333 C86.7881,7.58123333 88.3047667,9.1889 88.3047667,11.2025667 Z" id="Fill-13" fill="#FEFEFE"></path>
                    <path d="M91.2132667,10.0501333 C91.2132667,11.3288 91.8409333,12.2458 92.7556,12.2458 C93.4789333,12.2318 94.1066,11.5901333 94.1066,10.2974667 C94.1066,9.00246667 93.5022667,8.09013333 92.5712667,8.09013333 C91.8526,8.09013333 91.2132667,8.77846667 91.2132667,10.0501333 Z M91.4956,15.4868 C91.0662667,15.8321333 90.7372667,16.2894667 90.7372667,16.7631333 C90.7372667,17.6474667 91.6892667,18.3148 92.9002667,18.3148 C94.4589333,18.3148 95.2499333,17.5168 95.2499333,16.5041333 C95.2499333,15.9441333 94.9746,15.5381333 94.5056,15.3398 C94.0972667,15.1764667 93.6189333,15.1298 92.9306,15.1298 C92.1442667,15.1298 91.7849333,15.2231333 91.4956,15.4868 Z M96.6289333,7.91513333 C96.4889333,8.1648 96.1576,8.5988 95.8939333,8.74113333 L94.9606,8.69446667 C95.2709333,9.0538 95.4506,9.56246667 95.4506,10.1504667 C95.4506,11.9214667 93.9829333,12.7684667 92.5922667,12.7684667 C92.3099333,12.7684667 92.0206,12.7218 91.7476,12.6914667 C91.5282667,12.8314667 91.2622667,13.1301333 91.2622667,13.3588 C91.2622667,13.6878 91.5562667,13.9981333 92.2959333,13.9981333 C92.8839333,13.9981333 93.4789333,13.9818 94.0109333,13.9818 C95.0306,13.9818 96.3722667,14.3084667 96.3722667,15.9114667 C96.3722667,17.5658 94.4589333,19.1548 92.2749333,19.1548 C90.4619333,19.1548 89.4586,18.0884667 89.4492667,17.1528 C89.4492667,16.7981333 89.5986,16.4878 89.8412667,16.2381333 C90.1656,15.9114667 90.8049333,15.3864667 91.1992667,15.0924667 C90.6042667,14.9174667 90.2006,14.5371333 89.9929333,14.1941333 C89.8412667,13.9491333 89.7946,13.6668 89.8039333,13.5058 C90.4619333,13.2631333 90.9799333,12.8314667 91.2482667,12.5071333 C90.5156,12.1944667 89.8039333,11.4244667 89.8039333,10.3138 C89.8039333,8.4518 91.4746,7.60013333 92.7346,7.60013333 C93.2899333,7.60013333 93.8359333,7.7448 94.3072667,8.00613333 C95.1076,7.97346667 95.9452667,7.8778 96.5332667,7.77513333 L96.6289333,7.91513333 Z" id="Fill-15" fill="#FEFEFE"></path>
                    <path d="M98.2132667,5.26493333 C98.2132667,4.7656 98.6169333,4.39693333 99.0672667,4.39693333 C99.5386,4.39693333 99.8979333,4.7656 99.8979333,5.26493333 C99.8979333,5.71993333 99.5386,6.11893333 99.0462667,6.11893333 C98.6169333,6.11893333 98.2132667,5.71993333 98.2132667,5.26493333 Z M97.3289333,15.0719333 L97.3289333,14.6426 C98.3789333,14.5376 98.5002667,14.4419333 98.5002667,13.3032667 L98.5002667,9.85926667 C98.5002667,8.82326667 98.4536,8.76026667 97.4526,8.59226667 L97.4526,8.1886 C98.2972667,8.05793333 99.0836,7.84093333 99.8232667,7.53993333 L99.8232667,13.3032667 C99.8232667,14.4419333 99.9352667,14.5376 101.006267,14.6426 L101.006267,15.0719333 L97.3289333,15.0719333 Z" id="Fill-17" fill="#FEFEFE"></path>
                    <path d="M107.970567,13.4157333 C107.254233,14.3560667 106.162233,15.0724 105.203233,15.0724 C103.159233,15.0724 101.957567,13.4157333 101.957567,11.6820667 C101.957567,10.4290667 102.494233,9.33706667 103.5769,8.49706667 C104.4239,7.83906667 105.399233,7.5824 106.036233,7.5824 C106.682567,7.5824 107.219233,7.79473333 107.4829,8.00706667 C107.688233,8.18206667 107.7419,8.33606667 107.7419,8.5064 C107.7419,8.8494 107.3779,9.2064 107.2029,9.2064 C107.121233,9.2064 107.044233,9.1574 106.892567,9.02906667 C106.407233,8.57406667 105.835567,8.36173333 105.273233,8.36173333 C104.202233,8.36173333 103.2549,9.2554 103.2549,10.9657333 C103.2549,13.2197333 104.804233,13.9640667 105.7049,13.9640667 C106.407233,13.9640667 106.9439,13.7727333 107.688233,13.0727333 L107.970567,13.4157333 Z" id="Fill-19" fill="#FEFEFE"></path>
                    <path d="M110.253733,10.9753 C110.253733,13.0403 111.149733,14.5803 112.496067,14.5803 C113.518067,14.5803 114.351067,13.8266333 114.351067,11.5796333 C114.351067,9.66396667 113.5834,8.1123 112.150733,8.1123 C111.1404,8.1123 110.253733,9.12263333 110.253733,10.9753 M115.870067,11.2203 C115.870067,13.8616333 113.942733,15.1193 112.314067,15.1193 C110.074067,15.1193 108.734733,13.3179667 108.734733,11.5003 C108.734733,8.79363333 110.8254,7.5663 112.314067,7.5663 C114.351067,7.5663 115.870067,9.18796667 115.870067,11.2203" id="Fill-21" fill="#FEFEFE"></path>
                    <path d="M43.6055667,24.0751 C43.2135667,23.4987667 42.5345667,23.2304333 41.9045667,23.2304333 C41.1462333,23.2304333 39.7555667,23.8744333 39.7555667,26.2684333 C39.7555667,28.2354333 40.9619,29.1967667 42.0189,29.1967667 C42.6139,29.1967667 43.2135667,28.9307667 43.6055667,28.6344333 L43.6055667,24.0751 Z M46.1652333,29.6097667 C45.8035667,29.6727667 44.5645667,29.8921 43.6055667,30.2421 L43.6055667,29.1617667 L42.5952333,29.7544333 C41.9582333,30.1347667 41.5032333,30.2421 41.3119,30.2421 C39.9865667,30.2421 38.2529,29.0334333 38.2529,26.7187667 C38.2529,24.4181 40.2689,22.6191 42.5135667,22.6191 C42.7469,22.6191 43.2252333,22.6681 43.6055667,22.7964333 L43.6055667,20.4724333 C43.6055667,19.3781 43.5215667,19.3314333 42.3292333,19.2497667 L42.3292333,18.8531 C43.1925667,18.7364333 44.2985667,18.4844333 44.9099,18.2791 L44.9099,28.1374333 C44.9099,28.9961 45.0242333,29.0801 45.6402333,29.1477667 L46.1652333,29.1967667 L46.1652333,29.6097667 Z" id="Fill-23" fill="#FEFEFE"></path>
                    <path d="M47.9577,24.9867333 C48.9540333,24.9867333 49.9270333,24.9704 50.9560333,24.9377333 C51.2803667,24.9377333 51.3853667,24.8304 51.3853667,24.5830667 C51.4017,23.6590667 50.7903667,22.8050667 49.8173667,22.8050667 C49.0053667,22.8050667 48.2260333,23.5494 47.9577,24.9867333 Z M52.8203667,28.6127333 C51.7003667,30.0127333 50.4730333,30.3347333 49.9270333,30.3347333 C47.7453667,30.3347333 46.4690333,28.5637333 46.4690333,26.5524 C46.4690333,25.3274 46.9123667,24.2470667 47.6380333,23.4420667 C48.3707,22.6300667 49.3250333,22.1447333 50.2443667,22.1447333 C51.7283667,22.1447333 52.9113667,23.4630667 52.9113667,24.8420667 C52.9113667,25.2037333 52.8203667,25.3437333 52.5100333,25.4184 C52.1950333,25.4650667 49.9807,25.6447333 47.8667,25.7147333 C47.8877,28.1274 49.2713667,29.1284 50.5103667,29.1284 C51.2243667,29.1284 51.8987,28.8390667 52.5357,28.2347333 L52.8203667,28.6127333 Z" id="Fill-25" fill="#FEFEFE"></path>
                    <path d="M66.0844333,30.2605333 L66.0844333,29.7798667 C67.4681,29.6422 67.5357667,29.5652 67.5217667,27.7498667 L67.4681,20.7895333 L67.3981,20.7895333 L63.2331,30.1392 L62.8947667,30.1392 L59.0704333,21.0275333 L59.0354333,21.0275333 L58.7834333,25.8902 C58.7157667,27.2902 58.7157667,28.0415333 58.7321,28.7205333 C58.7601,29.5465333 59.1707667,29.6655333 60.3001,29.7798667 L60.3001,30.2605333 L56.3217667,30.2605333 L56.3217667,29.7798667 C57.3087667,29.6655333 57.6611,29.4788667 57.7754333,28.7578667 C57.8641,28.1675333 57.9667667,27.4092 58.0997667,25.6312 L58.3377667,22.0892 C58.4917667,19.8655333 58.4077667,19.7978667 56.8537667,19.6438667 L56.8537667,19.1678667 L59.6514333,19.1678667 L63.5411,27.7032 L67.4844333,19.1678667 L70.3871,19.1678667 L70.3871,19.6438667 C68.8821,19.7838667 68.7607667,19.8165333 68.8191,21.5758667 L68.9894333,27.7498667 C69.0431,29.5652 69.0827667,29.6422 70.5761,29.7798667 L70.5761,30.2605333 L66.0844333,30.2605333 Z" id="Fill-27" fill="#FEFEFE"></path>
                    <path d="M71.9131,25.8867 C71.9131,28.0497 72.8627667,29.6737 74.2697667,29.6737 C75.3384333,29.6737 76.2134333,28.8757 76.2134333,26.5190333 C76.2134333,24.5007 75.3991,22.8697 73.9104333,22.8697 C72.8417667,22.8697 71.9131,23.9407 71.9131,25.8867 M77.8164333,26.1410333 C77.8164333,28.9083667 75.7864333,30.2430333 74.0761,30.2430333 C71.7241,30.2430333 70.3124333,28.3413667 70.3124333,26.4327 C70.3124333,23.5907 72.5151,22.3003667 74.0761,22.3003667 C76.2134333,22.3003667 77.8164333,24.0083667 77.8164333,26.1410333" id="Fill-29" fill="#FEFEFE"></path>
                    <path d="M83.1560333,30.2605333 L83.1560333,29.8008667 C84.1967,29.6958667 84.3203667,29.5512 84.3203667,28.3402 L84.3203667,25.3908667 C84.3203667,24.1728667 83.8887,23.3748667 82.7150333,23.3748667 C82.0033667,23.3748667 81.3150333,23.8135333 80.7900333,24.2732 L80.7900333,28.4242 C80.7900333,29.6258667 80.8950333,29.6958667 81.9357,29.8008667 L81.9357,30.2605333 L78.1090333,30.2605333 L78.1090333,29.8008667 C79.3130333,29.6725333 79.3900333,29.5908667 79.3900333,28.4242 L79.3900333,24.7678667 C79.3900333,23.6408667 79.2967,23.5848667 78.3377,23.4145333 L78.3377,23.0062 C79.1847,22.8475333 80.0107,22.6352 80.7900333,22.2875333 L80.7900333,23.6945333 C81.1447,23.4285333 81.5320333,23.1625333 81.9730333,22.8638667 C82.4630333,22.5465333 82.9273667,22.3412 83.4337,22.3412 C84.8337,22.3412 85.7133667,23.3048667 85.7133667,25.0198667 L85.7133667,28.4242 C85.7133667,29.6258667 85.8043667,29.6958667 86.8263667,29.8008667 L86.8263667,30.2605333 L83.1560333,30.2605333 Z" id="Fill-31" fill="#FEFEFE"></path>
                    <path d="M90.3086333,30.0146 C90.0053,30.1662667 89.7346333,30.2432667 89.5806333,30.2432667 C88.5049667,30.2432667 87.9076333,29.5526 87.9076333,28.1992667 L87.9076333,23.2222667 L86.7246333,23.2222667 L86.6569667,23.0519333 L87.1236333,22.5549333 L87.9076333,22.5549333 L87.9076333,21.3089333 L89.0206333,20.1819333 L89.2609667,20.2169333 L89.2609667,22.5549333 L91.1929667,22.5549333 C91.3446333,22.7229333 91.3003,23.1032667 91.0879667,23.2222667 L89.2609667,23.2222667 L89.2609667,27.6229333 C89.2609667,29.0066 89.8209667,29.2656 90.2503,29.2656 C90.6796333,29.2656 91.0716333,29.0929333 91.3119667,28.9669333 L91.4659667,29.4149333 L90.3086333,30.0146 Z" id="Fill-33" fill="#FEFEFE"></path>
                    <path d="M93.2276333,25.0665333 C94.1913,25.0665333 95.1293,25.0478667 96.1303,25.0128667 C96.4406333,25.0128667 96.5456333,24.9102 96.5456333,24.6652 C96.5619667,23.7715333 95.9739667,22.9502 95.0289667,22.9502 C94.2403,22.9502 93.4819667,23.6712 93.2276333,25.0665333 Z M97.9339667,28.5688667 C96.8583,29.9268667 95.6659667,30.2418667 95.1293,30.2418667 C93.0223,30.2418667 91.7809667,28.5175333 91.7809667,26.5738667 C91.7809667,25.3908667 92.2103,24.3408667 92.9196333,23.5708667 C93.6196333,22.7798667 94.5483,22.3108667 95.4373,22.3108667 C96.8676333,22.3108667 98.0249667,23.5848667 98.0249667,24.9242 C98.0249667,25.2718667 97.9339667,25.4095333 97.6283,25.4725333 C97.3296333,25.5262 95.1853,25.7035333 93.1389667,25.7735333 C93.1599667,28.1115333 94.4946333,29.0705333 95.7033,29.0705333 C96.3893,29.0705333 97.0426333,28.7905333 97.6563,28.2142 L97.9339667,28.5688667 Z" id="Fill-35" fill="#FEFEFE"></path>
                    <path d="M101.070667,24.2529 C101.591,23.3849 102.347,22.4049 103.177667,22.4049 C103.779667,22.4049 104.192667,22.8575667 104.192667,23.2775667 C104.192667,23.6275667 103.964,23.9729 103.635,24.1339 C103.422667,24.2179 103.264,24.2039 103.161333,24.0965667 C102.921,23.8352333 102.713333,23.7255667 102.426333,23.7255667 C101.978333,23.7255667 101.418333,24.2529 101.031,25.2352333 L101.031,28.4249 C101.031,29.5705667 101.122,29.6825667 102.470667,29.7852333 L102.470667,30.2425667 L98.4573333,30.2425667 L98.4573333,29.7852333 C99.533,29.6825667 99.6566667,29.5705667 99.6566667,28.4249 L99.6566667,24.8082333 C99.6566667,23.6602333 99.5703333,23.5902333 98.574,23.4502333 L98.574,23.0699 C99.4326667,22.9299 100.198,22.7199 101.031,22.3512333 L101.031,24.2529 L101.070667,24.2529 Z" id="Fill-37" fill="#FEFEFE"></path>
                    <path d="M112.1085,25.0665333 C113.062833,25.0665333 114.000833,25.0502 114.9785,25.0198667 C115.2935,25.0198667 115.3915,24.9218667 115.3915,24.6745333 C115.414833,23.7855333 114.833833,22.9758667 113.895833,22.9758667 C113.1095,22.9758667 112.355833,23.6898667 112.1085,25.0665333 Z M116.772833,28.5478667 C115.697167,29.8918667 114.5235,30.1975333 114.000833,30.1975333 C111.900833,30.1975333 110.6735,28.4895333 110.6735,26.5668667 C110.6735,25.3932 111.095833,24.3525333 111.8005,23.5848667 C112.495833,22.7962 113.419833,22.3412 114.3065,22.3412 C115.718167,22.3412 116.8615,23.5988667 116.8615,24.9242 C116.8615,25.2718667 116.772833,25.4095333 116.4625,25.4725333 C116.1825,25.5262 114.0475,25.7035333 112.012833,25.7735333 C112.040833,28.0882 113.363833,29.0378667 114.5585,29.0378667 C115.242167,29.0378667 115.886167,28.7672 116.502167,28.1862 L116.772833,28.5478667 Z" id="Fill-39" fill="#FEFEFE"></path>
                    <g id="Group-43" transform="translate(116.666667, 22.234100)">
                        <mask id="mask-2" fill="white">
                            <use xlink:href="#path-1"></use>
                        </mask>
                        <g id="Clip-42"></g>
                        <path d="M7.94243333,0.5194 C7.06276667,0.654733333 6.91576667,0.7854 6.4631,1.73506667 C6.0501,2.62173333 5.5321,3.9984 4.3841,6.75173333 C3.2641,9.4164 2.9001,10.3684 2.66443333,11.2690667 C2.58043333,11.5817333 2.3611,11.6680667 2.1301,11.6680667 C1.66343333,11.6680667 1.18276667,11.2690667 1.18276667,10.8700667 C1.18276667,10.6017333 1.32976667,10.4477333 1.60976667,10.2657333 C2.1301,9.93206667 2.45676667,9.5144 2.8441,8.78406667 C3.1661,8.1984 3.30143333,7.8484 3.36443333,7.63373333 C3.44843333,7.38173333 3.44843333,7.16706667 3.3481,6.8894 C2.68076667,4.98306667 1.92943333,2.9694 1.4301,1.78406667 C1.08243333,0.867066667 0.914433333,0.654733333 -0.000233333333,0.5194 L-0.000233333333,0.1064 L3.38076667,0.1064 L3.38076667,0.5194 C2.61776667,0.654733333 2.52676667,0.818066667 2.74376667,1.43873333 L4.26743333,5.62006667 C4.7271,4.48373333 5.44576667,2.51906667 5.7981,1.46673333 C5.99876667,0.8414 5.8751,0.654733333 4.93243333,0.5194 L4.93243333,0.1064 L7.94243333,0.1064 L7.94243333,0.5194 Z" id="Fill-41" fill="#FEFEFE" mask="url(#mask-2)"></path>
                    </g>
                    <path d="M107.567133,24.2529 C108.092133,23.3849 108.8458,22.4049 109.681133,22.4049 C110.276133,22.4049 110.689133,22.8575667 110.689133,23.2775667 C110.689133,23.6275667 110.465133,23.9729 110.1338,24.1339 C109.919133,24.2179 109.767467,24.2039 109.6648,24.0965667 C109.410467,23.8352333 109.2098,23.7255667 108.9298,23.7255667 C108.479467,23.7255667 107.9148,24.2529 107.527467,25.2352333 L107.527467,28.4249 C107.527467,29.5705667 107.625467,29.6825667 108.967133,29.7852333 L108.967133,30.2425667 L104.949133,30.2425667 L104.949133,29.7852333 C106.036467,29.6825667 106.153133,29.5705667 106.153133,28.4249 L106.153133,24.8082333 C106.153133,23.6602333 106.071467,23.5902333 105.077467,23.4502333 L105.077467,23.0699 C105.929133,22.9299 106.699133,22.7199 107.527467,22.3512333 L107.527467,24.2529 L107.567133,24.2529 Z" id="Fill-44" fill="#FEFEFE"></path>
                    <path d="M26.8256333,11.6543 C26.4849667,12.2726333 26.0066333,12.7836333 25.5119667,13.2666333 C23.5053,15.2359667 21.4823,17.1773 19.4896333,19.1489667 C18.2203,20.4089667 17.0559667,21.7669667 16.4049667,23.4703 C16.2836333,23.8086333 16.1809667,24.1493 16.1459667,24.5109667 C16.1459667,24.8913 16.1553,25.2786333 16.1553,25.6589667 C16.1553,25.8223 16.1086333,25.8993 15.9663,25.7336333 C15.1543,24.6463 14.5686333,23.4796333 14.7203,22.0679667 C14.8346333,21.0366333 15.3036333,20.1523 15.9499667,19.3706333 C17.1446333,17.9263 18.5679667,16.7036333 19.8723,15.3689667 C21.8743,13.3249667 24.0606333,11.4769667 25.8853,9.25796667 C26.2633,8.80063333 26.5829667,8.31063333 26.9026333,7.6853 C27.4556333,9.08296667 27.5349667,10.3733 26.8256333,11.6543 M25.6263,18.3789667 C24.6556333,19.3799667 23.6499667,20.3343 22.6653,21.3283 C21.3913,22.6186333 20.2526333,24.0046333 19.8139667,25.8923 C19.0229667,24.9099667 18.9156333,23.8576333 19.1723,22.7306333 C19.5596333,21.0366333 20.6539667,19.8326333 21.8743,18.6916333 C23.2463,17.4246333 24.5763,16.1109667 25.9319667,14.8206333 C26.2516333,14.5126333 26.5106333,14.1369667 26.8256333,13.7076333 C27.2386333,15.5369667 26.8769667,17.0769667 25.6263,18.3789667 M12.4149667,25.8689667 C11.4093,25.0383 10.8889667,24.0956333 10.7629667,22.9639667 C10.4713,20.5116333 11.4466333,18.4933 13.1196333,16.8086333 C15.4809667,14.4146333 17.9099667,12.0789667 20.3109667,9.71763333 C21.4099667,8.63263333 22.4903,7.5243 23.1459667,6.07296667 C24.0093,7.92563333 23.6289667,9.8063 21.9863,11.4559667 C19.7999667,13.6493 17.5763,15.8053 15.3829667,17.9799667 C13.9199667,19.4266333 12.7509667,21.0459667 12.3286333,23.1133 C12.1559667,23.9906333 12.1933,24.8563 12.4149667,25.8689667 M9.33263333,21.2466333 C8.80063333,20.5629667 8.51363333,19.9026333 8.40163333,19.1676333 C8.2033,17.8166333 8.64896667,16.6266333 9.36296667,15.5019667 C10.1773,14.2256333 11.3486333,13.2759667 12.3963,12.2096333 C14.7203,9.8483 17.2216333,7.65496667 19.4266333,5.18163333 C20.2106333,4.29496667 20.8616333,3.31263333 20.9993,2.03396667 C22.1029667,2.8623 22.4366333,4.4863 21.8299667,5.8583 C21.4939667,6.61663333 20.9619667,7.2303 20.3856333,7.80896667 C17.6673,10.5343 14.9373,13.2409667 12.1559667,15.8893 C11.5003,16.5146333 10.9403,17.2239667 10.4479667,17.9823 C9.82963333,18.9389667 9.37696667,19.9539667 9.33263333,21.2466333 M7.2163,20.1033 C7.24196667,20.1989667 7.29563333,20.2946333 7.2163,20.4369667 C5.4453,18.7219667 4.71496667,16.1109667 6.1243,13.7006333 C6.7543,12.6296333 7.62463333,11.7756333 8.49963333,10.9099667 C10.5063,8.93596667 12.5269667,6.9573 14.5383,4.9763 C15.6606333,3.8703 16.4726333,2.61496667 16.4703,0.960633333 C17.6089667,1.4973 18.2879667,3.05596667 17.9379667,4.2833 C17.7163,5.05563333 17.2683,5.6903 16.7083,6.24796667 C14.2629667,8.6653 11.8106333,11.0733 9.37463333,13.4859667 C8.14496667,14.7063 7.19063333,16.0829667 7.0203,17.8749667 C6.94563333,18.6356333 7.07396667,19.3706333 7.2163,20.1033 M32.6869667,13.5816333 C31.4853,7.17896667 27.6469667,2.8133 21.4496333,0.8603 C15.2826333,-1.0787 9.6593,0.274633333 5.00663333,4.77096667 C-1.76003333,11.3019667 -1.62703333,21.9909667 5.16063333,28.4846333 C7.66663333,30.8716333 10.6603,32.3159667 14.0949667,32.8363 C14.4309667,32.8899667 14.5033,32.8129667 14.4869667,32.4909667 C14.4659667,31.9846333 14.4613,31.4713 14.4916333,30.9603 C14.5079667,30.6173 14.3913,30.4936333 14.0459667,30.4423 C12.8349667,30.2766333 11.6566333,29.9359667 10.5413,29.4133 C9.2673,28.8113 8.17063333,27.9899667 7.29563333,26.7766333 C9.6173,26.6483 25.2646333,26.7089667 25.6799667,26.8559667 C25.1386333,27.5769667 24.5039667,28.1766333 23.7643,28.6806333 C22.3503,29.6419667 20.7543,30.1599667 19.0836333,30.4259667 C18.6473,30.4959667 18.4979667,30.6499667 18.5493,31.0769667 C18.5843,31.4059667 18.5563,31.7559667 18.5563,32.0943 C18.5563,32.9203 18.5563,32.9203 19.3729667,32.7686333 C28.4146333,31.1329667 34.3926333,22.6373 32.6869667,13.5816333" id="Fill-46" fill="#FEFEFE"></path>
                </g>
            </g>
        </g>
    </g>
</svg>