<?xml version="1.0" encoding="UTF-8"?>
<svg width="54px" height="48px" viewBox="0 0 54 48" version="1.1" xmlns="http://www.w3.org/2000/svg" xmlns:xlink="http://www.w3.org/1999/xlink">
    <!-- Generator: Sketch 48.2 (47327) - http://www.bohemiancoding.com/sketch -->
    <title>Foundation / Icons / Logos / UP</title>
    <desc>Created with Sketch.</desc>
    <defs>
        <polygon id="path-1" points="0 1.02221739 53.69848 1.02221739 53.69848 48.782387 0 48.782387"></polygon>
    </defs>
    <g id="Por-qué-TLS---Convenios" stroke="none" stroke-width="1" fill="none" fill-rule="evenodd" transform="translate(-577.000000, -839.000000)">
        <g id="content" transform="translate(102.000000, 286.000000)">
            <g id="Foundation-/-Icons-/-Logos-/-UP" transform="translate(475.000000, 551.000000)">
                <g>
                    <path d="M30.51114,39.4587 C30.31534,39.4587 30.15694,39.5230043 30.03154,39.651613 C29.90174,39.7780043 29.82254,39.9487435 29.78074,40.1638304 L31.17994,40.1638304 C31.17994,39.9687 31.11394,39.7957435 30.98634,39.6627 C30.86534,39.5252217 30.70474,39.4587 30.51114,39.4587" id="Fill-1" fill="#FEFEFE"></path>
                    <path d="M36.5827,32.8020913 C36.5277,32.715613 36.4551,32.6424391 36.3825,32.5914391 C36.2901,32.533787 36.1801,32.5093957 36.0613,32.5093957 C35.9381,32.5093957 35.8325,32.5382217 35.7379,32.5914391 C35.6455,32.6468739 35.5773,32.7200478 35.5289,32.8109609 C35.4761,32.8996565 35.4321,32.9994391 35.4123,33.1103087 C35.3815,33.2189609 35.3705,33.3231783 35.3705,33.4429174 C35.3705,33.5604391 35.3815,33.6823957 35.4123,33.7977 C35.4321,33.9174391 35.4761,34.0260913 35.5289,34.1170043 C35.5773,34.216787 35.6455,34.296613 35.7379,34.3520478 C35.8325,34.4141348 35.9381,34.4451783 36.0613,34.4451783 C36.2021,34.4451783 36.3121,34.4141348 36.3957,34.3520478 C36.4859,34.296613 36.5497,34.216787 36.6025,34.1214391 C36.6509,34.0283087 36.6927,33.9240913 36.7059,33.8110043 C36.7191,33.7023522 36.7367,33.5870478 36.7367,33.4717435 C36.7367,33.3453522 36.7191,33.2300478 36.6971,33.1103087 C36.6663,32.9950043 36.6355,32.890787 36.5827,32.8020913" id="Fill-3" fill="#FEFEFE"></path>
                    <path d="M23.56112,32.4122739 C23.35872,32.4122739 23.19592,32.4721435 23.07492,32.6029696 C22.95172,32.7337957 22.86592,32.9023174 22.83292,33.115187 L24.23212,33.115187 C24.22772,32.9200565 24.15732,32.7493174 24.03632,32.6162739 C23.91092,32.4765783 23.75252,32.4122739 23.56112,32.4122739" id="Fill-5" fill="#FEFEFE"></path>
                    <path d="M20.48442,38.4777261 L19.64182,38.4777261 L19.64182,39.7017261 L20.48442,39.7017261 C20.67802,39.7017261 20.83202,39.6573783 20.95962,39.5664652 C21.08062,39.479987 21.14222,39.326987 21.14222,39.1030304 C21.14222,38.8746391 21.07842,38.7127696 20.95962,38.6218565 C20.82762,38.5242913 20.66702,38.4777261 20.48442,38.4777261" id="Fill-7" fill="#FEFEFE"></path>
                    <path d="M24.33024,40.8164087 C24.19384,40.8541043 24.08604,40.9006696 23.99584,40.9605391 C23.90784,41.0226261 23.85944,41.1246261 23.85944,41.2554522 C23.85944,41.4062348 23.90784,41.5060174 24.00024,41.5681043 C24.09044,41.6279739 24.19824,41.6545826 24.33024,41.6545826 C24.59644,41.6545826 24.78564,41.5725391 24.88464,41.4173217 C24.99024,41.2554522 25.03424,40.9938 25.02544,40.6368 C24.93964,40.6833652 24.83404,40.7188435 24.70644,40.7388 C24.57444,40.7609739 24.44684,40.7831478 24.33024,40.8164087" id="Fill-9" fill="#FEFEFE"></path>
                    <path d="M10.20646,39.8527304 C10.15146,39.7618174 10.08326,39.6886435 10.00186,39.6398609 C9.91606,39.5777739 9.81046,39.5578174 9.69166,39.5578174 C9.56626,39.5578174 9.45626,39.5844261 9.36606,39.6420783 C9.27586,39.6886435 9.20766,39.770687 9.15266,39.8571652 C9.10206,39.9480783 9.05806,40.0456435 9.03826,40.156513 C9.01626,40.2651652 9.00086,40.3738174 9.00086,40.484687 C9.00086,40.6066435 9.01626,40.7263826 9.03826,40.8461217 C9.05806,40.9658609 9.10206,41.0700783 9.15266,41.1654261 C9.20766,41.2563391 9.27586,41.3428174 9.36606,41.402687 C9.45626,41.4603391 9.56626,41.4913826 9.69166,41.4913826 C9.82366,41.4913826 9.94246,41.4603391 10.03046,41.402687 C10.11626,41.3428174 10.18006,41.2652087 10.23066,41.1698609 C10.28126,41.0833826 10.31646,40.9747304 10.33626,40.8594261 C10.35386,40.7441217 10.36046,40.6332522 10.36046,40.5201652 C10.36046,40.3893391 10.34506,40.2762522 10.32086,40.156513 C10.29886,40.0434261 10.26146,39.9414261 10.20646,39.8527304" id="Fill-11" fill="#FEFEFE"></path>
                    <path d="M13.91456,39.4587 C13.71876,39.4587 13.55376,39.5230043 13.42396,39.651613 C13.29856,39.7780043 13.21936,39.9487435 13.18856,40.1638304 L14.59216,40.1638304 C14.58336,39.9687 14.51296,39.7957435 14.38096,39.6627 C14.26216,39.5252217 14.10816,39.4587 13.91456,39.4587" id="Fill-13" fill="#FEFEFE"></path>
                    <path d="M44.6996,32.8020913 C44.6512,32.715613 44.5808,32.6424391 44.495,32.5914391 C44.4048,32.533787 44.3058,32.5093957 44.1804,32.5093957 C44.0506,32.5093957 43.9406,32.5382217 43.8548,32.5914391 C43.7646,32.6468739 43.6964,32.7200478 43.6414,32.8109609 C43.5908,32.8996565 43.5512,32.9994391 43.527,33.1103087 C43.5028,33.2189609 43.4896,33.3231783 43.4896,33.4429174 C43.4896,33.5604391 43.5028,33.6823957 43.527,33.7977 C43.5512,33.9174391 43.5908,34.0260913 43.6414,34.1170043 C43.6964,34.216787 43.7646,34.296613 43.8548,34.3520478 C43.9406,34.4141348 44.0506,34.4451783 44.1804,34.4451783 C44.3168,34.4451783 44.4312,34.4141348 44.5148,34.3520478 C44.605,34.296613 44.6688,34.216787 44.726,34.1214391 C44.7744,34.0283087 44.8118,33.9240913 44.825,33.8110043 C44.8382,33.7023522 44.8514,33.5870478 44.8514,33.4717435 C44.8514,33.3453522 44.8382,33.2300478 44.8162,33.1103087 C44.7964,32.9950043 44.7546,32.890787 44.6996,32.8020913" id="Fill-15" fill="#FEFEFE"></path>
                    <path d="M38.61308,16.7173565 C39.08388,16.3847478 39.31488,15.8015739 39.31488,14.9833565 C39.31488,14.1318783 39.08388,13.524313 38.60428,13.167313 C38.13568,12.8036609 37.53508,12.6218348 36.82668,12.6218348 L33.71808,12.6218348 L33.71808,17.2207043 L36.82668,17.2207043 C37.55708,17.2207043 38.15108,17.0477478 38.61308,16.7173565" id="Fill-17" fill="#FEFEFE"></path>
                    <g id="Group-21" transform="translate(0.000000, 1.195396)">
                        <mask id="mask-2" fill="white">
                            <use xlink:href="#path-1"></use>
                        </mask>
                        <g id="Clip-20"></g>
                        <path d="M45.94348,34.0167783 L44.86548,34.0167783 L44.86548,33.6154304 L44.85228,33.6154304 C44.62348,33.9546913 44.31768,34.1209957 43.90188,34.1209957 C43.63568,34.1209957 43.39808,34.0655609 43.20668,33.9591261 C43.01088,33.8504739 42.85028,33.7063435 42.73148,33.5311696 C42.60168,33.3471261 42.51148,33.1431261 42.45208,32.9147348 C42.39268,32.6863435 42.36628,32.4490826 42.36628,32.2051696 C42.36628,31.9767783 42.39268,31.7572565 42.45208,31.5488217 C42.51148,31.3381696 42.60168,31.1519087 42.72708,30.983387 C42.84588,30.8193 42.99548,30.6884739 43.18248,30.5886913 C43.36508,30.4933435 43.57628,30.4445609 43.82048,30.4445609 C44.24068,30.4445609 44.56408,30.6019957 44.80608,30.9190826 L44.81488,30.9190826 L44.81488,29.2360826 L45.94348,29.2360826 L45.94348,34.0167783 Z M45.18448,40.061387 C45.09428,40.2809087 44.97768,40.4782565 44.81048,40.6401261 C44.64988,40.804213 44.44968,40.9350391 44.23628,41.0215174 C44.00528,41.1146478 43.76548,41.1656478 43.50368,41.1656478 C43.23308,41.1656478 42.98668,41.1146478 42.76228,41.0215174 C42.54228,40.9350391 42.34648,40.804213 42.19248,40.6401261 C42.03848,40.4782565 41.90648,40.2809087 41.81628,40.061387 C41.73268,39.8374304 41.68208,39.5935174 41.68208,39.3318652 C41.68208,39.0724304 41.73268,38.8285174 41.81628,38.6045609 C41.90648,38.3828217 42.03848,38.1854739 42.19248,38.0169522 C42.34648,37.8550826 42.54228,37.7242565 42.76228,37.6289087 C42.98668,37.540213 43.23308,37.4869957 43.50368,37.4869957 C43.76548,37.4869957 44.00528,37.540213 44.23628,37.6289087 C44.44968,37.7242565 44.64988,37.8550826 44.81048,38.0169522 C44.97768,38.1854739 45.09428,38.3828217 45.18448,38.6045609 C45.27248,38.8285174 45.32088,39.0724304 45.32088,39.3318652 C45.32088,39.5935174 45.27248,39.8374304 45.18448,40.061387 Z M41.09468,41.0680826 L39.96828,41.0680826 L39.96828,39.0258652 C39.96828,38.8396043 39.92428,38.6866043 39.83848,38.582387 C39.75708,38.480387 39.64488,38.4271696 39.49308,38.4271696 C39.37648,38.4271696 39.27968,38.4515609 39.20928,38.4936913 C39.13448,38.5358217 39.08388,38.6001261 39.04208,38.684387 C39.01568,38.7730826 38.98268,38.8684304 38.97828,38.9815174 C38.96508,39.1012565 38.96068,39.2320826 38.96068,39.3606913 L38.96068,41.0680826 L37.83428,41.0680826 L37.83428,39.0901696 C37.83428,38.8861696 37.80128,38.7265174 37.74408,38.6001261 C37.67588,38.4892565 37.56368,38.4271696 37.40968,38.4271696 C37.20508,38.4271696 37.06208,38.4936913 36.97188,38.6356043 C36.88168,38.7753 36.82888,39.019213 36.82888,39.3717783 L36.82888,41.0680826 L35.70248,41.0680826 L35.70248,37.5889957 L36.80248,37.5889957 L36.80248,38.0635174 L36.81788,38.0635174 C36.91468,37.8949957 37.04888,37.7530826 37.23148,37.6488652 C37.40088,37.540213 37.59008,37.4869957 37.80128,37.4869957 C38.02568,37.4869957 38.21928,37.5313435 38.39748,37.6178217 C38.58008,37.6954304 38.70988,37.8484304 38.80448,38.050213 C38.93868,37.8639522 39.10148,37.7242565 39.27088,37.6289087 C39.44468,37.540213 39.64488,37.4869957 39.88248,37.4869957 C40.15748,37.4869957 40.37308,37.540213 40.53368,37.6289087 C40.69648,37.7242565 40.81308,37.8484304 40.89448,37.9947783 C40.98468,38.1366913 41.03528,38.3029957 41.05288,38.480387 C41.08368,38.6577783 41.09468,38.8285174 41.09468,38.990387 L41.09468,41.0680826 Z M35.32628,38.5846043 C35.24708,38.5668652 35.17448,38.5446913 35.11068,38.5358217 C35.03808,38.5225174 34.96988,38.5180826 34.89288,38.5180826 C34.75428,38.5180826 34.63108,38.5424739 34.52768,38.582387 C34.42428,38.6311696 34.33408,38.6866043 34.26368,38.7664304 C34.18668,38.8418217 34.13388,38.9283 34.09648,39.0303 C34.05908,39.1345174 34.05028,39.2365174 34.05028,39.3429522 L34.05028,41.0680826 L32.91948,41.0680826 L32.91948,37.5889957 L34.01288,37.5889957 L34.01288,38.1965609 L34.02828,38.1965609 C34.10968,37.9726043 34.24388,37.8085174 34.42428,37.6909957 C34.60248,37.5801261 34.81588,37.5202565 35.06228,37.5202565 C35.10188,37.5202565 35.14808,37.5291261 35.19208,37.5291261 C35.23828,37.5313435 35.28228,37.540213 35.32628,37.5535174 L35.32628,38.5846043 Z M32.48388,34.0167783 L33.60808,34.0167783 L33.60808,30.5465609 L32.48388,30.5465609 L32.48388,34.0167783 Z M29.99568,40.1766913 C30.12768,40.3252565 30.31468,40.396213 30.55668,40.396213 C30.68868,40.396213 30.81848,40.3651696 30.93068,40.3030826 C31.06048,40.2387783 31.13968,40.1478652 31.20128,40.0126043 L32.24848,40.0126043 C32.20008,40.2166043 32.12088,40.3895609 32.00428,40.5359087 C31.88768,40.6756043 31.76008,40.7953435 31.60388,40.8929087 C31.45428,40.9838217 31.28488,41.0525609 31.10668,41.0991261 C30.91968,41.1390391 30.73488,41.1656478 30.54568,41.1656478 C30.25968,41.1656478 30.00668,41.1257348 29.77568,41.0392565 C29.54248,40.9616478 29.34668,40.8396913 29.18168,40.6800391 C29.00788,40.520387 28.88028,40.3296913 28.78788,40.0946478 C28.70648,39.8684739 28.65808,39.6068217 28.65808,39.3207783 C28.65808,39.0524739 28.70648,38.8041261 28.80768,38.582387 C28.89788,38.3584304 29.03208,38.1655174 29.20808,38.0058652 C29.38408,37.8484304 29.57108,37.7220391 29.79548,37.6289087 C30.02868,37.5313435 30.25968,37.4869957 30.51048,37.4869957 C30.82728,37.4869957 31.08908,37.5490826 31.32888,37.6577348 C31.55548,37.7597348 31.75128,37.9171696 31.88768,38.1100826 C32.04608,38.3007783 32.15388,38.5225174 32.22648,38.7775174 C32.30128,39.0347348 32.33208,39.3052565 32.31448,39.602387 L29.78008,39.602387 C29.79108,39.8440826 29.87028,40.0369957 29.99568,40.1766913 Z M30.70408,32.8526478 C30.67328,32.8060826 30.62048,32.7706043 30.56768,32.746213 C30.51048,32.7196043 30.45768,32.6974304 30.38508,32.6841261 C30.31908,32.6730391 30.25968,32.6597348 30.21568,32.6464304 C30.03968,32.6020826 29.85708,32.564387 29.67228,32.5266913 C29.48308,32.491213 29.30268,32.4313435 29.15088,32.360387 C28.99248,32.287213 28.86268,32.1829957 28.76588,32.0588217 C28.66468,31.930213 28.61188,31.7461696 28.61188,31.5066913 C28.61188,31.2960391 28.66468,31.1253 28.76588,30.9900391 C28.86268,30.8481261 28.99248,30.7439087 29.14648,30.6663 C29.30268,30.5842565 29.47648,30.5310391 29.66128,30.4933435 C29.84168,30.4667348 30.02868,30.4445609 30.19148,30.4445609 C30.38068,30.4445609 30.56768,30.4667348 30.75688,30.4933435 C30.93068,30.5310391 31.10668,30.5842565 31.25628,30.6707348 C31.40148,30.7505609 31.53128,30.8614304 31.61928,31.0099957 C31.71388,31.1519087 31.77108,31.3426043 31.77988,31.5665609 L30.73488,31.5665609 C30.73488,31.4335174 30.68868,31.3293 30.58968,31.2716478 C30.49948,31.2073435 30.38068,31.1807348 30.22888,31.1807348 C30.18268,31.1807348 30.12768,31.1829522 30.07048,31.1896043 C30.01988,31.1918217 29.96708,31.1984739 29.91648,31.216213 C29.87028,31.2339522 29.82628,31.2649957 29.79108,31.2960391 C29.75808,31.3359522 29.74488,31.3847348 29.74488,31.442387 C29.74488,31.5199957 29.78008,31.5843 29.87028,31.6397348 C29.95388,31.6907348 30.05948,31.7350826 30.18708,31.7705609 C30.31248,31.8038217 30.44448,31.8348652 30.59848,31.8614739 C30.75028,31.8880826 30.88668,31.9146913 31.02528,31.9413 C31.19028,31.9767783 31.32888,32.0344304 31.44548,32.1098217 C31.55548,32.1829957 31.65668,32.2694739 31.71388,32.3559522 C31.78428,32.4424304 31.83048,32.5377783 31.85028,32.6331261 C31.87888,32.7284739 31.88768,32.8060826 31.88768,32.8792565 C31.88768,33.1120826 31.84588,33.307213 31.75128,33.4690826 C31.65008,33.6220826 31.51808,33.7529087 31.35968,33.8482565 C31.21228,33.9369522 31.02528,34.0167783 30.83168,34.0544739 C30.63588,34.0966043 30.44008,34.1209957 30.24648,34.1209957 C30.04408,34.1209957 29.84168,34.0966043 29.64808,34.0633435 C29.44128,34.0234304 29.26088,33.9591261 29.10908,33.8571261 C28.94408,33.7639957 28.82308,33.6331696 28.72188,33.4757348 C28.62288,33.3183 28.56788,33.1143 28.55688,32.8726043 L29.63708,32.8726043 C29.63708,32.9613 29.64808,33.0411261 29.68108,33.1009957 C29.72288,33.1608652 29.76248,33.2185174 29.82188,33.2628652 C29.87468,33.2983435 29.93188,33.329387 30.00668,33.3493435 C30.08588,33.3693 30.16068,33.3781696 30.22888,33.3781696 C30.29268,33.3781696 30.35208,33.3781696 30.41148,33.3626478 C30.47088,33.3471261 30.53028,33.3271696 30.58968,33.2983435 C30.63588,33.2739522 30.68428,33.2318217 30.71508,33.1830391 C30.75028,33.1364739 30.76568,33.0810391 30.76568,33.0145174 C30.76568,32.9457783 30.75028,32.8969957 30.70408,32.8526478 Z M28.37208,31.5377348 C28.29728,31.5133435 28.22688,31.4978217 28.16308,31.4867348 C28.08608,31.4734304 28.01788,31.4689957 27.94088,31.4689957 C27.80228,31.4689957 27.67688,31.493387 27.57348,31.5377348 C27.46788,31.5843 27.37988,31.6419522 27.30728,31.7173435 C27.23908,31.7971696 27.18408,31.8836478 27.14888,31.9834304 C27.10708,32.083213 27.09388,32.1829957 27.09388,32.3005174 L27.09388,34.0167783 L25.96308,34.0167783 L25.96308,30.5465609 L27.05868,30.5465609 L27.05868,31.1519087 L27.06968,31.1519087 C27.15768,30.9257348 27.28968,30.7616478 27.47668,30.6463435 C27.65268,30.5332565 27.86608,30.4756043 28.10808,30.4756043 C28.15208,30.4756043 28.19828,30.4756043 28.24888,30.4822565 C28.28848,30.4844739 28.33248,30.4933435 28.37208,30.5044304 L28.37208,31.5377348 Z M26.89808,41.0680826 L28.02228,41.0680826 L28.02228,36.2851696 L26.89808,36.2851696 L26.89808,41.0680826 Z M25.10288,41.0680826 C25.08748,41.0059957 25.06988,40.957213 25.06548,40.9039957 C25.05888,40.8507783 25.05008,40.7909087 25.04128,40.7354739 C24.88948,40.8951261 24.72008,40.9993435 24.51988,41.0703 C24.31968,41.1301696 24.11068,41.1656478 23.90608,41.1656478 C23.74108,41.1656478 23.58708,41.1390391 23.44408,41.0991261 C23.29888,41.0614304 23.17568,40.9926913 23.06788,40.9084304 C22.96228,40.8175174 22.87868,40.7133 22.82148,40.5802565 C22.76208,40.4494304 22.73128,40.2875609 22.73128,40.1146043 C22.73128,39.9283435 22.76208,39.7731261 22.82148,39.6511696 C22.88748,39.5225609 22.96668,39.4227783 23.07448,39.3385174 C23.18448,39.2542565 23.29888,39.194387 23.43968,39.1478217 C23.58268,39.1056913 23.71908,39.0679957 23.86648,39.0458217 C24.01168,39.0169957 24.16788,38.9992565 24.30428,38.9770826 C24.45828,38.9593435 24.60128,38.9349522 24.72888,38.9127783 C24.83008,38.888387 24.90488,38.8551261 24.95548,38.8129957 C25.00388,38.7730826 25.03028,38.6932565 25.03028,38.5912565 C25.03028,38.5225174 25.01268,38.4670826 24.98188,38.4183 C24.94008,38.3761696 24.90048,38.3406913 24.84328,38.3118652 C24.79488,38.2830391 24.72888,38.2630826 24.67388,38.2453435 C24.60568,38.2320391 24.54408,38.2231696 24.49128,38.2231696 C24.16788,38.2231696 23.97648,38.3717348 23.92588,38.6577783 L22.86548,38.6577783 C22.87868,38.4316043 22.93808,38.2409087 23.02608,38.0945609 C23.12068,37.9393435 23.25268,37.8240391 23.40668,37.7309087 C23.56068,37.6444304 23.73668,37.5801261 23.92148,37.5490826 C24.11068,37.5091696 24.30428,37.4869957 24.50008,37.4869957 C24.70688,37.4869957 24.90048,37.5047348 25.09408,37.5313435 C25.28328,37.5690391 25.46368,37.6178217 25.60888,37.7087348 C25.75848,37.7885609 25.88608,37.9083 25.96968,38.0613 C26.06428,38.2120826 26.10828,38.4049957 26.10828,38.6577783 L26.10828,40.1766913 C26.10828,40.3208217 26.11488,40.4716043 26.12368,40.6246043 C26.13248,40.7798217 26.17868,40.9217348 26.23808,41.0680826 L25.10288,41.0680826 Z M22.26048,38.5779522 C22.17688,38.7908217 22.06248,38.9593435 21.91288,39.0901696 C21.76328,39.2276478 21.58948,39.3207783 21.36508,39.376213 C21.16268,39.4405174 20.92288,39.4715609 20.66768,39.4715609 L19.64248,39.4715609 L19.64248,41.0680826 L18.42588,41.0680826 L18.42588,36.2829522 L20.66768,36.2829522 C20.88768,36.2829522 21.10768,36.3095609 21.30348,36.367213 C21.50808,36.4204304 21.69288,36.5069087 21.85128,36.6266478 C22.00968,36.7486043 22.13728,36.9104739 22.23848,37.1078217 C22.32648,37.3007348 22.37708,37.540213 22.37708,37.8240391 C22.37708,38.1211696 22.33748,38.3717348 22.26048,38.5779522 Z M19.07928,30.5465609 L19.70188,32.8326913 L19.72388,32.8326913 L20.36408,30.5465609 L21.50808,30.5465609 L20.34648,34.0167783 L19.05728,34.0167783 L17.91108,30.5465609 L19.07928,30.5465609 Z M16.37548,30.1030826 L17.51068,30.1030826 L17.51068,29.2338652 L16.37548,29.2338652 L16.37548,30.1030826 Z M16.37548,34.0167783 L17.51068,34.0167783 L17.51068,30.5465609 L16.37548,30.5465609 L16.37548,34.0167783 Z M13.39888,40.1766913 C13.52868,40.3252565 13.72008,40.396213 13.95108,40.396213 C14.09628,40.396213 14.22168,40.3651696 14.34488,40.3030826 C14.45708,40.2387783 14.54728,40.1478652 14.59568,40.0126043 L15.65608,40.0126043 C15.60108,40.2166043 15.51748,40.3895609 15.40088,40.5359087 C15.29088,40.6756043 15.16328,40.7953435 15.00708,40.8929087 C14.85088,40.9838217 14.68808,41.0525609 14.50328,41.0991261 C14.32288,41.1390391 14.13808,41.1656478 13.93788,41.1656478 C13.66728,41.1656478 13.40768,41.1257348 13.17668,41.0392565 C12.94348,40.9616478 12.74768,40.8396913 12.58048,40.6800391 C12.41548,40.520387 12.28348,40.3296913 12.19988,40.0946478 C12.09868,39.8684739 12.05908,39.6068217 12.05908,39.3207783 C12.05908,39.0524739 12.10968,38.8041261 12.20428,38.582387 C12.30548,38.3584304 12.43528,38.1655174 12.60908,38.0058652 C12.78068,37.8484304 12.97428,37.7220391 13.20528,37.6289087 C13.42528,37.5313435 13.66728,37.4869957 13.91368,37.4869957 C14.22828,37.4869957 14.49448,37.5490826 14.72328,37.6577348 C14.95648,37.7597348 15.14788,37.9171696 15.29528,38.1100826 C15.44708,38.3007783 15.55268,38.5225174 15.62528,38.7775174 C15.70228,39.0347348 15.72208,39.3052565 15.71108,39.602387 L13.18768,39.602387 C13.19208,39.8440826 13.26248,40.0369957 13.39888,40.1766913 Z M11.44528,41.0680826 L10.37608,41.0680826 L10.37608,40.6623 L10.36068,40.6623 C10.14068,40.9993435 9.81948,41.1656478 9.41248,41.1656478 C9.14628,41.1656478 8.90868,41.1079957 8.71288,40.9993435 C8.52148,40.8973435 8.35648,40.753213 8.23548,40.5780391 C8.11448,40.3984304 8.02208,40.1944304 7.95608,39.9638217 C7.90328,39.7354304 7.87028,39.4981696 7.87028,39.2498217 C7.87028,39.0258652 7.90328,38.8041261 7.95608,38.5956913 C8.02208,38.3828217 8.11448,38.1965609 8.23108,38.0346913 C8.35648,37.8661696 8.51048,37.7353435 8.68428,37.6444304 C8.87128,37.540213 9.09128,37.4869957 9.32448,37.4869957 C9.74688,37.4869957 10.07028,37.6488652 10.30568,37.9681696 L10.32108,37.9681696 L10.32108,36.2829522 L11.44528,36.2829522 L11.44528,41.0680826 Z M7.24548,32.0388652 L7.24548,29.2360826 L8.48848,29.2360826 L8.48848,32.1186913 C8.48848,32.4246913 8.54788,32.6553 8.67328,32.8105174 C8.78988,32.9679522 9.00548,33.0477783 9.31128,33.0477783 C9.61708,33.0477783 9.83268,32.9679522 9.95588,32.8105174 C10.07468,32.6553 10.14728,32.4246913 10.14728,32.1186913 L10.14728,29.2360826 L11.37268,29.2360826 L11.37268,32.0388652 C11.37268,32.7351261 11.20988,33.2517783 10.88428,33.5999087 C10.54988,33.9458217 10.03068,34.1209957 9.31128,34.1209957 C8.59628,34.1209957 8.07268,33.9458217 7.74928,33.5999087 C7.41708,33.2517783 7.24548,32.7351261 7.24548,32.0388652 Z M14.40868,31.6818652 C14.37128,31.5931696 14.31628,31.5199957 14.24368,31.4645609 C14.16228,31.4069087 14.04788,31.3825174 13.89828,31.3825174 C13.78828,31.3825174 13.69148,31.4024739 13.61888,31.442387 C13.54188,31.4845174 13.47588,31.5466043 13.42528,31.6153435 C13.38348,31.6818652 13.34388,31.7572565 13.32408,31.8459522 C13.29328,31.9390826 13.28228,32.0299957 13.28228,32.1231261 L13.28228,34.0167783 L12.16028,34.0167783 L12.16028,30.5465609 L13.25368,30.5465609 L13.25368,31.0166478 L13.26248,31.0166478 C13.31968,30.9257348 13.38348,30.8481261 13.46268,30.7749522 C13.54188,30.7084304 13.63428,30.6463435 13.72668,30.5909087 C13.82128,30.5509957 13.92688,30.5088652 14.03248,30.4822565 C14.13808,30.4556478 14.24368,30.4445609 14.34928,30.4445609 C14.63308,30.4445609 14.85088,30.4933435 15.02468,30.5842565 C15.19408,30.677387 15.31288,30.7926913 15.38988,30.9257348 C15.47568,31.063213 15.53728,31.2073435 15.55268,31.3669957 C15.57248,31.5244304 15.58788,31.6619087 15.58788,31.7883 L15.58788,34.0167783 L14.45708,34.0167783 L14.45708,32.338213 L14.45708,31.9923 C14.45708,31.8747783 14.43728,31.7705609 14.40868,31.6818652 Z M23.04148,33.1320391 C23.17568,33.2806043 23.35828,33.3471261 23.60028,33.3471261 C23.73668,33.3471261 23.86648,33.3160826 23.98088,33.2517783 C24.10408,33.1963435 24.18988,33.0965609 24.24488,32.9679522 L25.30088,32.9679522 C25.25028,33.1675174 25.16448,33.3404739 25.05448,33.4912565 C24.94008,33.6243 24.81248,33.7484739 24.65628,33.8460391 C24.50008,33.9347348 24.33728,34.0012565 24.15028,34.0456043 C23.97208,34.0966043 23.77628,34.1209957 23.59148,34.1209957 C23.30768,34.1209957 23.05248,34.0766478 22.82148,33.992387 C22.59268,33.9103435 22.39248,33.7861696 22.22528,33.6287348 C22.05808,33.4690826 21.93268,33.2828217 21.84248,33.0477783 C21.74788,32.819387 21.70168,32.5599522 21.70168,32.2739087 C21.70168,31.9989522 21.75228,31.7572565 21.85128,31.5333 C21.94808,31.3093435 22.08668,31.1164304 22.25168,30.9567783 C22.42328,30.7971261 22.61688,30.6707348 22.84788,30.5798217 C23.07228,30.4933435 23.30768,30.4445609 23.56068,30.4445609 C23.87088,30.4445609 24.14148,30.4999957 24.36808,30.6086478 C24.60128,30.7173 24.79488,30.8703 24.94008,31.0565609 C25.08968,31.2516913 25.19968,31.4734304 25.27228,31.726213 C25.35148,31.9878652 25.37348,32.2628217 25.36028,32.5577348 L22.83248,32.5577348 C22.84128,32.7949957 22.90948,32.9879087 23.04148,33.1320391 Z M10.54988,7.70299565 L15.16768,7.70299565 L15.16768,18.4750826 C15.16768,19.6281261 15.40088,20.4929087 15.86728,21.0783 C16.32708,21.6614739 17.13668,21.9541696 18.28068,21.9541696 C19.41808,21.9541696 20.22328,21.6614739 20.68968,21.0783 C21.14728,20.4929087 21.37828,19.6281261 21.37828,18.4750826 L21.37828,7.70299565 L26.00048,7.70299565 L26.00048,18.1979087 C26.00048,20.7878217 25.38448,22.7280391 24.15028,24.025213 C22.91608,25.3179522 20.96028,25.963213 18.28068,25.963213 C15.58788,25.963213 13.63428,25.3179522 12.40228,24.025213 C11.17028,22.7280391 10.54988,20.7878217 10.54988,18.1979087 L10.54988,7.70299565 Z M32.48388,30.1030826 L33.60808,30.1030826 L33.60808,29.2338652 L32.48388,29.2338652 L32.48388,30.1030826 Z M36.73648,33.6154304 C36.51208,33.9546913 36.18428,34.1209957 35.78828,34.1209957 C35.51328,34.1209957 35.27568,34.0655609 35.08208,33.9591261 C34.89288,33.8504739 34.73668,33.7063435 34.60908,33.5311696 C34.48808,33.3471261 34.39788,33.1431261 34.33408,32.9147348 C34.27248,32.6863435 34.24388,32.4490826 34.24388,32.2051696 C34.24388,31.9767783 34.27248,31.7572565 34.33408,31.5488217 C34.39788,31.3381696 34.48808,31.1519087 34.60248,30.983387 C34.72568,30.8193 34.88408,30.6884739 35.06228,30.5886913 C35.24268,30.4933435 35.45608,30.4445609 35.69808,30.4445609 C36.12048,30.4445609 36.45268,30.6019957 36.67928,30.9190826 L36.69688,30.9190826 L36.69688,29.2360826 L37.82108,29.2360826 L37.82108,34.0167783 L36.74968,34.0167783 L36.74968,33.6154304 L36.73648,33.6154304 Z M40.65908,31.3758652 C40.61728,31.3293 40.57988,31.2916043 40.52268,31.2605609 C40.47428,31.2339522 40.41268,31.216213 40.34888,31.1984739 C40.28508,31.1896043 40.22788,31.1807348 40.16408,31.1807348 C39.83848,31.1807348 39.65148,31.3204304 39.59868,31.6153435 L38.54048,31.6153435 C38.55368,31.3847348 38.60428,31.1962565 38.70548,31.0432565 C38.80008,30.8946913 38.92988,30.7727348 39.08388,30.6840391 C39.23788,30.5886913 39.40288,30.5332565 39.59428,30.4977783 C39.78348,30.4667348 39.97268,30.4445609 40.17508,30.4445609 C40.37968,30.4445609 40.57988,30.4556478 40.77348,30.4933435 C40.96268,30.5199522 41.12988,30.575387 41.28828,30.6618652 C41.43788,30.7439087 41.56108,30.8569957 41.64688,31.012213 C41.73928,31.1696478 41.78768,31.3647783 41.78768,31.6109087 L41.78768,33.1298217 C41.78768,33.2739522 41.79208,33.4225174 41.80748,33.5777348 C41.80748,33.7285174 41.84928,33.8770826 41.92188,34.0167783 L40.78228,34.0167783 C40.75808,33.9635609 40.74268,33.9103435 40.73828,33.8549087 C40.73388,33.8016913 40.72508,33.7462565 40.71408,33.6930391 C40.56888,33.839387 40.39728,33.9569087 40.19488,34.0234304 C39.99468,34.0810826 39.79448,34.1209957 39.58328,34.1209957 C39.41168,34.1209957 39.25768,34.0966043 39.11908,34.0544739 C38.97828,34.0167783 38.84848,33.9458217 38.74948,33.8571261 C38.63508,33.7728652 38.56248,33.6619957 38.49868,33.5311696 C38.44588,33.4003435 38.40628,33.2406913 38.40628,33.0655174 C38.40628,32.8792565 38.44588,32.7240391 38.49868,32.5976478 C38.56468,32.4756913 38.64608,32.3714739 38.74948,32.287213 C38.85948,32.2051696 38.97828,32.1475174 39.11908,32.1009522 C39.24888,32.0588217 39.39848,32.0255609 39.54368,31.9945174 C39.69548,31.9656913 39.83848,31.9413 39.98808,31.9324304 C40.13768,31.9080391 40.28068,31.8880826 40.41268,31.8614739 C40.50948,31.8415174 40.58208,31.8038217 40.63268,31.7639087 C40.68768,31.7195609 40.70968,31.6508217 40.70968,31.5377348 C40.70968,31.4734304 40.69208,31.420213 40.65908,31.3758652 Z M29.09148,7.70299565 L37.51968,7.70299565 C38.35568,7.70299565 39.14988,7.79834348 39.91988,8.00456087 C40.69208,8.1996913 41.37848,8.53451739 41.97248,8.98908261 C42.56648,9.44586522 43.04828,10.0467783 43.39808,10.7807348 C43.75668,11.5191261 43.93268,12.4083 43.93268,13.4593435 C43.93268,14.5658217 43.78308,15.5104304 43.48168,16.2931696 C43.19128,17.0736913 42.75788,17.7167348 42.19688,18.211213 C41.62928,18.7034739 40.95168,19.0626913 40.16848,19.2866478 C39.38088,19.5128217 38.49868,19.6281261 37.51528,19.6281261 L33.71808,19.6281261 L33.71808,25.5840391 L29.09148,25.5840391 L29.09148,7.70299565 Z M-0.00132,48.782387 L53.69848,48.782387 L53.69848,1.02199565 L-0.00132,1.02199565 L-0.00132,48.782387 Z" id="Fill-19" fill="#FEFEFE" mask="url(#mask-2)"></path>
                    </g>
                    <path d="M39.99864,33.7722 C39.87324,33.8054609 39.76544,33.8498087 39.67524,33.914113 C39.58064,33.9784174 39.53444,34.0759826 39.53444,34.2156783 C39.53444,34.3531565 39.58504,34.4595913 39.67524,34.5128087 C39.76984,34.5837652 39.87764,34.6125913 40.00964,34.6125913 C40.28024,34.6125913 40.46944,34.5349826 40.56404,34.3708957 C40.66524,34.2090261 40.70924,33.9473739 40.69604,33.5881565 C40.61684,33.6347217 40.50904,33.6702 40.37924,33.6923739 C40.24944,33.7145478 40.12624,33.7411565 39.99864,33.7722" id="Fill-22" fill="#FEFEFE"></path>
                    <path d="M44.04202,39.8744609 C43.99362,39.7879826 43.91442,39.7059391 43.83082,39.6460696 C43.74062,39.5839826 43.63502,39.5573739 43.50302,39.5573739 C43.36442,39.5573739 43.25882,39.5839826 43.16642,39.6460696 C43.08722,39.7059391 43.01022,39.7879826 42.95742,39.8744609 C42.90462,39.9720261 42.87382,40.0784609 42.84522,40.1915478 C42.82102,40.3024174 42.81662,40.4155043 42.81662,40.5285913 C42.81662,40.6394609 42.82102,40.7525478 42.84522,40.8678522 C42.87382,40.9765043 42.90462,41.0829391 42.95742,41.178287 C43.01022,41.2714174 43.08722,41.3490261 43.16642,41.4022435 C43.25882,41.4598957 43.36442,41.4909391 43.50302,41.4909391 C43.63502,41.4909391 43.74062,41.4598957 43.83082,41.4022435 C43.91442,41.3490261 43.99362,41.2714174 44.04202,41.178287 C44.10142,41.0829391 44.13002,40.9765043 44.15642,40.8678522 C44.17842,40.7525478 44.18942,40.6394609 44.18942,40.5285913 C44.18942,40.4155043 44.17842,40.3024174 44.15642,40.1915478 C44.13002,40.0784609 44.10142,39.9720261 44.04202,39.8744609" id="Fill-24" fill="#FEFEFE"></path>
                </g>
            </g>
        </g>
    </g>
</svg>