<?xml version="1.0" encoding="UTF-8"?>
<svg width="105px" height="48px" viewBox="0 0 105 48" version="1.1" xmlns="http://www.w3.org/2000/svg" xmlns:xlink="http://www.w3.org/1999/xlink">
    <!-- Generator: Sketch 48.2 (47327) - http://www.bohemiancoding.com/sketch -->
    <title>Foundation / Icons / Logos / utad</title>
    <desc>Created with Sketch.</desc>
    <defs></defs>
    <g id="Por-qué-TLS---Convenios" stroke="none" stroke-width="1" fill="none" fill-rule="evenodd" transform="translate(-124.000000, -799.000000)">
        <g id="content" transform="translate(102.000000, 286.000000)">
            <g id="Foundation-/-Icons-/-Logos-/-utad" transform="translate(22.000000, 513.000000)">
                <g id="Group-65">
                    <g>
                        <g id="Group-4" fill="#FFFFFF">
                            <path d="M32.9786683,30.1795018 C32.983839,32.0645544 31.5256927,33.6016772 29.7340341,33.6016772 L3.27798537,33.6016772 C1.47857073,33.6016772 0.0178390244,32.0645544 -0.000258536585,30.2080632 L-0.000258536585,3.93157193 C0.0178390244,2.02574737 1.47857073,0.483431579 3.27798537,0.483431579 L29.7340341,0.483431579 C31.5256927,0.483431579 32.983839,2.02574737 32.9786683,3.90560702 L32.9786683,30.1795018 Z M20.8545951,27.8390246 C24.3836195,27.8390246 27.2482049,24.9543228 27.2482049,21.4049193 L27.2482049,10.5645684 L24.3836195,10.5645684 L24.3836195,21.4049193 C24.3836195,23.3652702 22.803961,24.9621123 20.8545951,24.9621123 L12.1419122,24.9621123 C10.1925463,24.9621123 8.6128878,23.3574807 8.6128878,21.3945333 L8.6128878,6.24141053 L5.74830244,6.24141053 L5.74830244,21.3945333 C5.74830244,24.9517263 8.6128878,27.8390246 12.1419122,27.8390246 L20.8545951,27.8390246 Z" id="Combined-Shape"></path>
                        </g>
                        <polygon id="Fill-7" fill="#FFFFFF" points="41.580439 13.4443368 50.1897073 13.4443368 50.1897073 27.8470737 53.0594634 27.8470737 53.0594634 13.4443368 61.663561 13.4443368 61.663561 10.5674246 41.580439 10.5674246"></polygon>
                        <path d="M101.806537,21.1881123 L101.806537,22.0839018 L101.806537,22.0864982 L101.806537,24.9634105 L91.7339512,24.9634105 C90.1827317,24.9634105 88.9133171,23.6859368 88.9133171,22.1202526 L88.9133171,16.2859368 C88.9133171,14.7202526 90.1827317,13.4453754 91.7339512,13.4453754 L101.806537,13.4453754 L101.806537,21.1881123 Z M101.806537,6.24011228 L101.806537,10.5658667 L91.7339512,10.5658667 C88.5953171,10.5658667 86.0358049,13.1286035 86.0358049,16.2859368 L86.0409756,21.1881123 L86.0358049,21.1881123 L86.0358049,22.1202526 C86.0358049,25.277586 88.5953171,27.8429193 91.7339512,27.8429193 L104.676293,27.8429193 L104.676293,22.0942877 L104.676293,22.0864982 L104.676293,21.1881123 L104.676293,10.5658667 L104.676293,6.24011228 L101.806537,6.24011228 Z" id="Fill-9" fill="#FFFFFF"></path>
                        <path d="M68.5729512,24.9662667 C67.101878,24.9662667 65.9824146,23.7459158 65.9720732,22.1205123 L65.9720732,22.0088632 C65.9720732,20.3860561 67.0682683,19.2072491 68.578122,19.2072491 L78.8704634,19.2072491 L78.8704634,24.9662667 L68.5729512,24.9662667 Z M76.0756829,10.5661263 L65.9824146,10.5661263 L65.9824146,13.4456351 L76.0446585,13.4456351 C77.6398293,13.5131439 78.8704634,14.7205123 78.8704634,16.2861965 L78.8704634,16.3303368 L68.578122,16.3303368 C65.4730976,16.3303368 63.1255854,18.7476702 63.1074878,21.9699158 L63.0997317,22.0867579 C63.0997317,25.316793 65.5015366,27.8457754 68.5729512,27.8457754 L78.8704634,27.8457754 L81.7376341,27.8457754 L81.7376341,17.5896351 L81.7376341,16.9560912 L81.7376341,16.2861965 C81.7376341,13.1418456 79.284122,10.5661263 76.0756829,10.5661263 Z" id="Fill-11" fill="#FFFFFF"></path>
                        <path d="M40.3485122,39.5411509 C40.3123171,39.7384842 40.2528537,39.9176421 40.1727073,40.0760281 C40.0848049,40.2318175 39.9762195,40.3590456 39.8572927,40.4680982 C39.725439,40.5745544 39.5729024,40.6576421 39.4151951,40.7147649 C39.2523171,40.7744842 39.0816829,40.8030456 38.8877805,40.8030456 C38.6809512,40.8030456 38.4844634,40.7640982 38.2983171,40.6862035 C38.1121707,40.6160982 37.9467073,40.5044491 37.8148537,40.3590456 C37.711439,40.2603789 37.6364634,40.1591158 37.5847561,40.0526596 C37.527878,39.9488 37.4916829,39.8241684 37.4658293,39.6943439 C37.4373902,39.5619228 37.4244634,39.4087298 37.4244634,39.2425544 C37.4192927,39.071186 37.4115366,38.8738526 37.4115366,38.6479579 C37.4115366,38.4220632 37.4192927,38.2247298 37.4244634,38.0585544 C37.4244634,37.887186 37.4373902,37.7417825 37.4658293,37.6067649 C37.4916829,37.4743439 37.527878,37.3523088 37.5847561,37.2432561 C37.6364634,37.1368 37.711439,37.0355368 37.8148537,36.9368702 C37.9467073,36.7914667 38.1121707,36.682414 38.2983171,36.6071158 C38.4844634,36.5318175 38.6809512,36.4928702 38.8877805,36.4928702 C39.0816829,36.4928702 39.2523171,36.5266246 39.4151951,36.5837474 C39.5729024,36.6408702 39.725439,36.7213614 39.8572927,36.8278175 C39.9762195,36.9368702 40.0848049,37.0692912 40.1727073,37.2224842 C40.2528537,37.3808702 40.3123171,37.5574316 40.3485122,37.7573614 L39.8909024,37.7573614 C39.8391951,37.4951158 39.7202683,37.289993 39.5470488,37.131607 C39.3660732,36.9810105 39.1514878,36.8979228 38.8877805,36.8979228 C38.7533415,36.8979228 38.6240732,36.9238877 38.4948049,36.9810105 C38.3629512,37.0303439 38.2517805,37.1030456 38.156122,37.1991158 C38.0940732,37.2640281 38.0397805,37.3393263 38.001,37.4172211 C37.9648049,37.4925193 37.9286098,37.5833965 37.9130976,37.6950456 C37.895,37.8040982 37.8769024,37.9339228 37.8769024,38.0845193 C37.8717317,38.2429053 37.866561,38.4272561 37.866561,38.6479579 C37.866561,38.8712561 37.8717317,39.0582035 37.8769024,39.213993 C37.8769024,39.3645895 37.895,39.4918175 37.9130976,39.6034667 C37.9286098,39.7099228 37.9648049,39.805993 38.001,39.8864842 C38.0397805,39.9617825 38.0940732,40.0318877 38.156122,40.101993 C38.2517805,40.1954667 38.3629512,40.2681684 38.4948049,40.3226947 C38.6240732,40.3720281 38.7533415,40.397993 38.8877805,40.397993 C39.1514878,40.397993 39.3738293,40.3226947 39.5548049,40.1669053 C39.725439,40.0137123 39.8495366,39.8033965 39.9012439,39.5411509 L40.3485122,39.5411509 Z" id="Fill-13" fill="#FEFEFE"></path>
                        <polygon id="Fill-15" fill="#FEFEFE" points="41.4643561 40.7682526 41.4643561 36.5307789 44.0833317 36.5307789 44.0833317 36.9358316 41.9167951 36.9358316 41.9167951 38.428814 43.7653317 38.428814 43.7653317 38.8364632 41.9167951 38.8364632 41.9167951 40.3606035 44.0833317 40.3606035 44.0833317 40.7682526"></polygon>
                        <polygon id="Fill-17" fill="#FEFEFE" points="47.8269415 40.7682526 45.5880146 37.3668491 45.5880146 40.7682526 45.1355756 40.7682526 45.1355756 36.5307789 45.5647463 36.5307789 47.7985024 39.9166035 47.7985024 36.5307789 48.2509415 36.5307789 48.2509415 40.7682526"></polygon>
                        <polygon id="Fill-19" fill="#FEFEFE" points="50.823639 36.9368702 50.823639 40.7692912 50.3763707 40.7692912 50.3763707 36.9368702 49.1534927 36.9368702 49.1534927 36.5318175 52.0516878 36.5318175 52.0516878 36.9368702"></polygon>
                        <path d="M55.3681951,37.7152982 C55.3681951,37.4530526 55.2932195,37.2583158 55.1329268,37.1310877 C54.9829756,37.0012632 54.7813171,36.9363509 54.5305366,36.9363509 L53.4007317,36.9363509 L53.4007317,38.4916491 L54.5305366,38.4916491 C54.7813171,38.4916491 54.9829756,38.4241404 55.1329268,38.2995088 C55.2932195,38.1722807 55.3681951,37.9801404 55.3681951,37.7152982 Z M55.3733659,40.7687719 L54.4116098,38.8863158 L53.4007317,38.8863158 L53.4007317,40.7687719 L52.9534634,40.7687719 L52.9534634,36.5312982 L54.5667317,36.5312982 C54.752878,36.5312982 54.9157561,36.5572632 55.0682927,36.6117895 C55.226,36.6663158 55.3630244,36.741614 55.466439,36.8428772 C55.5776098,36.9441404 55.6680976,37.0687719 55.7327317,37.2193684 C55.7921951,37.3595789 55.8206341,37.5283509 55.8206341,37.7075088 C55.8206341,38.0190877 55.7327317,38.2683509 55.5672683,38.4656842 C55.3966341,38.6630175 55.1742927,38.7902456 54.9054146,38.8473684 L55.9007805,40.7687719 L55.3733659,40.7687719 Z" id="Fill-21" fill="#FEFEFE"></path>
                        <path d="M59.2969171,38.6484772 C59.2969171,38.4277754 59.2969171,38.2434246 59.2839902,38.0850386 C59.2788195,37.9344421 59.2658927,37.8046175 59.2477951,37.6981614 C59.2322829,37.5891088 59.1986732,37.4982316 59.1598927,37.4203368 C59.1262829,37.3450386 59.0668195,37.2723368 59.0021854,37.2022316 C58.9091122,37.1087579 58.8031122,37.0360561 58.6738439,36.9815298 C58.5445756,36.924407 58.4075512,36.8984421 58.2705268,36.8984421 C58.1335024,36.8984421 57.9990634,36.924407 57.8697951,36.9815298 C57.7379415,37.0360561 57.6345268,37.1087579 57.544039,37.2022316 C57.4742341,37.2723368 57.4199415,37.3450386 57.3837463,37.4203368 C57.3397951,37.4982316 57.3113561,37.5891088 57.2932585,37.6981614 C57.2777463,37.8046175 57.2648195,37.9344421 57.2596488,38.0850386 C57.246722,38.2434246 57.246722,38.4277754 57.246722,38.6484772 C57.246722,38.8717754 57.246722,39.0587228 57.2596488,39.2145123 C57.2648195,39.3625123 57.2777463,39.4923368 57.2932585,39.6013895 C57.3113561,39.7052491 57.3397951,39.7987228 57.3837463,39.8766175 C57.4199415,39.9571088 57.4742341,40.027214 57.544039,40.0947228 C57.6345268,40.190793 57.7379415,40.2634947 57.8697951,40.3180211 C57.9990634,40.3725474 58.1335024,40.3985123 58.2705268,40.3985123 C58.4075512,40.3985123 58.5445756,40.3725474 58.6738439,40.3180211 C58.8031122,40.2634947 58.9091122,40.190793 59.0021854,40.0947228 C59.0668195,40.027214 59.1262829,39.9571088 59.1598927,39.8766175 C59.1986732,39.7987228 59.2322829,39.7052491 59.2477951,39.6013895 C59.2658927,39.4923368 59.2788195,39.3625123 59.2839902,39.2145123 C59.2969171,39.0587228 59.2969171,38.8717754 59.2969171,38.6484772 M59.7467707,38.6484772 C59.7467707,38.8743719 59.7467707,39.0717053 59.7416,39.2430737 C59.7364293,39.4092491 59.7260878,39.5624421 59.7028195,39.6922667 C59.6717951,39.8246877 59.6304293,39.9493193 59.578722,40.0531789 C59.5270146,40.1596351 59.452039,40.2608982 59.3512098,40.3595649 C59.2038439,40.5049684 59.0435512,40.6166175 58.8599902,40.6867228 C58.6841854,40.7620211 58.4851122,40.8035649 58.2705268,40.8035649 C57.8439415,40.8035649 57.4819902,40.6555649 57.1898439,40.3595649 C57.0916,40.2608982 57.0166244,40.1596351 56.9649171,40.0531789 C56.9106244,39.9493193 56.8718439,39.8246877 56.8485756,39.6922667 C56.8253073,39.5624421 56.8072098,39.4092491 56.802039,39.2430737 C56.7942829,39.0717053 56.7942829,38.8743719 56.7942829,38.6484772 C56.7942829,38.4225825 56.7942829,38.2252491 56.802039,38.0564772 C56.8072098,37.8877053 56.8253073,37.7397053 56.8485756,37.6072842 C56.8718439,37.4748632 56.9106244,37.3528281 56.9649171,37.2437754 C57.0166244,37.1373193 57.0916,37.0360561 57.1898439,36.9373895 C57.4819902,36.6465825 57.8439415,36.4933895 58.2705268,36.4933895 C58.6996976,36.4933895 59.0538927,36.6465825 59.3512098,36.9373895 C59.452039,37.0360561 59.5270146,37.1373193 59.578722,37.2437754 C59.6304293,37.3528281 59.6717951,37.4748632 59.7028195,37.6072842 C59.7260878,37.7397053 59.7364293,37.8877053 59.7416,38.0564772 C59.7467707,38.2252491 59.7467707,38.4225825 59.7467707,38.6484772" id="Fill-23" fill="#FEFEFE"></path>
                        <path d="M65.4017415,39.3687439 C65.4017415,39.5816561 65.3655463,39.7686035 65.2905707,39.9503579 C65.2207659,40.1243228 65.1147659,40.2775158 64.9854976,40.4021474 C64.8510585,40.5293754 64.6933512,40.6254456 64.514961,40.7007439 C64.3391561,40.7682526 64.1400829,40.8046035 63.9306683,40.8046035 C63.7186683,40.8046035 63.5170098,40.7682526 63.3360341,40.7007439 C63.1602293,40.6254456 62.9999366,40.5293754 62.8706683,40.4021474 C62.7439854,40.2775158 62.6431561,40.1243228 62.5655951,39.9503579 C62.4957902,39.7686035 62.4544244,39.5816561 62.4544244,39.3687439 L62.4544244,36.5307789 L62.9120341,36.5307789 L62.9120341,39.332393 C62.9120341,39.4959719 62.9301317,39.6413754 62.9766683,39.7712 C63.0232049,39.9010246 63.0930098,40.0152702 63.1834976,40.1061474 C63.2714,40.1970246 63.3825707,40.2697263 63.5066683,40.3216561 C63.6333512,40.373586 63.7755463,40.3969544 63.9306683,40.3969544 C64.0806195,40.3969544 64.2228146,40.373586 64.3469122,40.3216561 C64.4761805,40.2697263 64.5821805,40.1970246 64.6674976,40.1061474 C64.7579854,40.0152702 64.832961,39.9010246 64.8743268,39.7712 C64.9260341,39.6413754 64.9493024,39.4959719 64.9493024,39.332393 L64.9493024,36.5307789 L65.4017415,36.5307789 L65.4017415,39.3687439 Z" id="Fill-25" fill="#FEFEFE"></path>
                        <polygon id="Fill-27" fill="#FEFEFE" points="69.373122 40.7682526 67.1290244 37.3668491 67.1290244 40.7682526 66.6765854 40.7682526 66.6765854 36.5307789 67.1057561 36.5307789 69.3472683 39.9166035 69.3472683 36.5307789 69.7919512 36.5307789 69.7919512 40.7682526"></polygon>
                        <polygon id="Fill-29" fill="#FFFFFF" points="71.1285854 40.7687719 71.5861951 40.7687719 71.5861951 36.5312982 71.1285854 36.5312982"></polygon>
                        <polygon id="Fill-31" fill="#FFFFFF" points="74.1097707 40.7682526 73.7452341 40.7682526 72.3543073 36.5307789 72.8326 36.5307789 73.9287951 39.9581474 75.0249902 36.5307789 75.4955268 36.5307789"></polygon>
                        <polygon id="Fill-32" fill="#FFFFFF" points="76.2760488 40.7682526 76.2760488 36.5307789 78.892439 36.5307789 78.892439 36.9358316 76.7233171 36.9358316 76.7233171 38.428814 78.574439 38.428814 78.574439 38.8364632 76.7233171 38.8364632 76.7233171 40.3606035 78.892439 40.3606035 78.892439 40.7682526"></polygon>
                        <path d="M82.3607073,37.7152982 C82.3607073,37.4530526 82.2831463,37.2583158 82.125439,37.1310877 C81.9729024,37.0012632 81.7686585,36.9363509 81.5204634,36.9363509 L80.3906585,36.9363509 L80.3906585,38.4916491 L81.5204634,38.4916491 C81.7686585,38.4916491 81.9729024,38.4241404 82.125439,38.2995088 C82.2831463,38.1722807 82.3607073,37.9801404 82.3607073,37.7152982 Z M82.365878,40.7687719 L81.4067073,38.8863158 L80.3906585,38.8863158 L80.3906585,40.7687719 L79.9433902,40.7687719 L79.9433902,36.5312982 L81.5592439,36.5312982 C81.7453902,36.5312982 81.9108537,36.5572632 82.0659756,36.6117895 C82.2159268,36.6663158 82.3555366,36.741614 82.4589512,36.8428772 C82.570122,36.9441404 82.6580244,37.0687719 82.7226585,37.2193684 C82.782122,37.3595789 82.8131463,37.5283509 82.8131463,37.7075088 C82.8131463,38.0190877 82.7304146,38.2683509 82.5546098,38.4656842 C82.3891463,38.6630175 82.1642195,38.7902456 81.8953415,38.8473684 L82.8932927,40.7687719 L82.365878,40.7687719 Z" id="Fill-33" fill="#FFFFFF"></path>
                        <path d="M86.4936732,39.6019088 C86.4936732,39.7862596 86.4548927,39.9576281 86.3876732,40.1030316 C86.3178683,40.2510316 86.2247951,40.3782596 86.0903561,40.4821193 C85.9610878,40.5833825 85.8059659,40.6612772 85.6224049,40.7184 C85.4466,40.7755228 85.2475268,40.8040842 85.0329415,40.8040842 C84.7201122,40.8040842 84.4460634,40.7573474 84.2211366,40.6716632 C83.9962098,40.5833825 83.779039,40.4405754 83.587722,40.2432421 L83.8979659,39.9316632 C84.0711854,40.1082246 84.2444049,40.2302596 84.4202098,40.2977684 C84.6037707,40.3652772 84.8080146,40.3990316 85.0406976,40.3990316 C85.3561122,40.3990316 85.5939659,40.3289263 85.7723561,40.1939088 C85.9455756,40.0536982 86.0360634,39.8615579 86.0360634,39.6122947 C86.0360634,39.5032421 86.0231366,39.3993825 85.9895268,39.3111018 C85.9507463,39.2176281 85.9042098,39.1397333 85.8369902,39.085207 C85.7723561,39.0228912 85.6973805,38.9787509 85.6224049,38.952786 C85.5551854,38.9268211 85.4414293,38.9060491 85.283722,38.8826807 L84.7976732,38.799593 C84.4615756,38.7476632 84.1978683,38.6438035 84.0220634,38.4802246 C83.8023073,38.2932772 83.6988927,38.0284351 83.6988927,37.6960842 C83.6988927,37.5117333 83.7325024,37.3507509 83.7919659,37.2001544 C83.8540146,37.0521544 83.9522585,36.9249263 84.0634293,36.8236632 C84.1771854,36.7198035 84.3219659,36.6393123 84.4848439,36.584786 C84.655478,36.5250667 84.8364537,36.4939088 85.0484537,36.4939088 C85.3250878,36.4939088 85.5474293,36.5302596 85.7465024,36.6055579 C85.9404049,36.6808561 86.1213805,36.7951018 86.3126976,36.9586807 L86.0102098,37.2494877 C85.8835268,37.1326456 85.7465024,37.0417684 85.5939659,36.9820491 C85.4414293,36.9197333 85.2552829,36.8885754 85.0329415,36.8885754 C84.7485512,36.8885754 84.5262098,36.9586807 84.3814293,37.1014877 C84.2211366,37.2442947 84.146161,37.4364351 84.146161,37.6727158 C84.146161,37.8882246 84.203039,38.049207 84.3323073,38.1608561 C84.3969415,38.2179789 84.4848439,38.2621193 84.5856732,38.3036632 C84.6839171,38.345207 84.7899171,38.3737684 84.9036732,38.3945404 L85.3638683,38.4672421 C85.4621122,38.4776281 85.5474293,38.4958035 85.6224049,38.5165754 C85.707722,38.5321544 85.7723561,38.5529263 85.8292341,38.5762947 C85.8912829,38.6022596 85.9455756,38.6282246 85.9946976,38.6593825 C86.0412341,38.6879439 86.0903561,38.7242947 86.1343073,38.7632421 C86.3747463,38.9657684 86.4936732,39.243593 86.4936732,39.6019088" id="Fill-34" fill="#FFFFFF"></path>
                        <polygon id="Fill-35" fill="#FFFFFF" points="87.5508293 40.7687719 88.0032683 40.7687719 88.0032683 36.5312982 87.5508293 36.5312982"></polygon>
                        <polygon id="Fill-36" fill="#FFFFFF" points="90.5813951 36.9368702 90.5813951 40.7692912 90.1289561 40.7692912 90.1289561 36.9368702 88.9112488 36.9368702 88.9112488 36.5318175 91.8016878 36.5318175 91.8016878 36.9368702"></polygon>
                        <path d="M93.5579268,37.1778246 L92.7616341,39.4134035 L94.336122,39.4134035 L93.5579268,37.1778246 Z M94.8066585,40.7687719 L94.4731463,39.8106667 L92.6297805,39.8106667 L92.2885122,40.7687719 L91.8102195,40.7687719 L93.3640244,36.5312982 L93.7389024,36.5312982 L95.2875366,40.7687719 L94.8066585,40.7687719 Z" id="Fill-37" fill="#FFFFFF"></path>
                        <path d="M98.5065756,37.7152982 C98.5065756,37.4530526 98.4238439,37.2583158 98.2661366,37.1310877 C98.1136,37.0012632 97.9145268,36.9363509 97.661161,36.9363509 L96.5391122,36.9363509 L96.5391122,38.4916491 L97.661161,38.4916491 C97.9145268,38.4916491 98.1136,38.4241404 98.2661366,38.2995088 C98.4238439,38.1722807 98.5065756,37.9801404 98.5065756,37.7152982 Z M98.5065756,40.7687719 L97.5499902,38.8863158 L96.5391122,38.8863158 L96.5391122,40.7687719 L96.0866732,40.7687719 L96.0866732,36.5312982 L97.7025268,36.5312982 C97.8835024,36.5312982 98.0541366,36.5572632 98.2092585,36.6117895 C98.3592098,36.6663158 98.4936488,36.741614 98.6074049,36.8428772 C98.7185756,36.9441404 98.798722,37.0687719 98.8607707,37.2193684 C98.9228195,37.3595789 98.9538439,37.5283509 98.9538439,37.7075088 C98.9538439,38.0190877 98.8659415,38.2683509 98.700478,38.4656842 C98.5298439,38.6630175 98.3075024,38.7902456 98.036039,38.8473684 L99.0339902,40.7687719 L98.5065756,40.7687719 Z" id="Fill-38" fill="#FFFFFF"></path>
                        <polygon id="Fill-39" fill="#FFFFFF" points="100.089854 40.7687719 100.539707 40.7687719 100.539707 36.5312982 100.089854 36.5312982"></polygon>
                        <path d="M104.220234,38.6484772 C104.220234,38.4277754 104.215063,38.2434246 104.207307,38.0850386 C104.202137,37.9344421 104.18921,37.8046175 104.171112,37.6981614 C104.150429,37.5891088 104.119405,37.4982316 104.08321,37.4203368 C104.044429,37.3450386 103.990137,37.2723368 103.920332,37.2022316 C103.827259,37.1087579 103.721259,37.0360561 103.597161,36.9815298 C103.462722,36.924407 103.333454,36.8984421 103.193844,36.8984421 C103.059405,36.8984421 102.919795,36.924407 102.798283,36.9815298 C102.661259,37.0360561 102.552673,37.1087579 102.462185,37.2022316 C102.400137,37.2723368 102.338088,37.3450386 102.307063,37.4203368 C102.263112,37.4982316 102.234673,37.5891088 102.219161,37.6981614 C102.195893,37.8046175 102.182966,37.9344421 102.17521,38.0850386 C102.170039,38.2434246 102.170039,38.4277754 102.170039,38.6484772 C102.170039,38.8717754 102.170039,39.0587228 102.17521,39.2145123 C102.182966,39.3625123 102.195893,39.4923368 102.219161,39.6013895 C102.234673,39.7052491 102.263112,39.7987228 102.307063,39.8766175 C102.338088,39.9571088 102.400137,40.027214 102.462185,40.0947228 C102.552673,40.190793 102.661259,40.2634947 102.798283,40.3180211 C102.919795,40.3725474 103.059405,40.3985123 103.193844,40.3985123 C103.333454,40.3985123 103.462722,40.3725474 103.597161,40.3180211 C103.721259,40.2634947 103.827259,40.190793 103.920332,40.0947228 C103.990137,40.027214 104.044429,39.9571088 104.08321,39.8766175 C104.119405,39.7987228 104.150429,39.7052491 104.171112,39.6013895 C104.18921,39.4923368 104.202137,39.3625123 104.207307,39.2145123 C104.215063,39.0587228 104.220234,38.8717754 104.220234,38.6484772 M104.667502,38.6484772 C104.667502,38.8743719 104.667502,39.0717053 104.659746,39.2430737 C104.659746,39.4092491 104.644234,39.5624421 104.610624,39.6922667 C104.589941,39.8246877 104.553746,39.9493193 104.499454,40.0531789 C104.442576,40.1596351 104.372771,40.2608982 104.274527,40.3595649 C104.129746,40.5049684 103.966868,40.6166175 103.785893,40.6867228 C103.602332,40.7620211 103.405844,40.8035649 103.193844,40.8035649 C102.767259,40.8035649 102.405307,40.6555649 102.120917,40.3595649 C102.012332,40.2608982 101.942527,40.1596351 101.89082,40.0531789 C101.833941,39.9493193 101.797746,39.8246877 101.771893,39.6922667 C101.743454,39.5624421 101.730527,39.4092491 101.722771,39.2430737 C101.7176,39.0717053 101.7176,38.8743719 101.7176,38.6484772 C101.7176,38.4225825 101.7176,38.2252491 101.722771,38.0564772 C101.730527,37.8877053 101.743454,37.7397053 101.771893,37.6072842 C101.797746,37.4748632 101.833941,37.3528281 101.89082,37.2437754 C101.942527,37.1373193 102.012332,37.0360561 102.120917,36.9373895 C102.405307,36.6465825 102.767259,36.4933895 103.193844,36.4933895 C103.620429,36.4933895 103.972039,36.6465825 104.274527,36.9373895 C104.372771,37.0360561 104.442576,37.1373193 104.499454,37.2437754 C104.553746,37.3528281 104.589941,37.4748632 104.610624,37.6072842 C104.644234,37.7397053 104.659746,37.8877053 104.659746,38.0564772 C104.667502,38.2252491 104.667502,38.4225825 104.667502,38.6484772" id="Fill-40" fill="#FFFFFF"></path>
                        <path d="M18.2239854,45.7989544 L18.2239854,45.4120772 C18.2188146,45.2822526 18.2058878,45.1576211 18.1955463,45.0381825 C18.1774488,44.9239368 18.1490098,44.8096912 18.1076439,44.7084281 C18.0714488,44.6071649 18.0119854,44.5162877 17.9447659,44.443586 C17.8310098,44.3267439 17.7146683,44.2462526 17.5724732,44.2021123 C17.4380341,44.1579719 17.2777415,44.132007 17.1148634,44.132007 L16.1996439,44.132007 L16.1996439,47.5593754 L17.1148634,47.5593754 C17.2777415,47.5593754 17.4380341,47.536007 17.5724732,47.4892702 C17.7146683,47.4425333 17.8310098,47.3672351 17.9447659,47.2477965 C18.0119854,47.1724982 18.0714488,47.0790246 18.1076439,46.9647789 C18.1490098,46.8557263 18.1774488,46.7336912 18.1955463,46.6064632 C18.2058878,46.4766386 18.2188146,46.3442175 18.2239854,46.2014105 L18.2239854,45.7989544 Z M18.6712537,45.7989544 C18.6712537,45.9469544 18.6712537,46.1001474 18.6634976,46.2637263 C18.6634976,46.4247088 18.6531561,46.5856912 18.6298878,46.7414807 C18.6040341,46.8998667 18.5652537,47.0478667 18.510961,47.1880772 C18.4489122,47.3334807 18.3739366,47.4607088 18.2601805,47.5723579 C18.1257415,47.694393 17.9783756,47.7956561 17.7974,47.8605684 C17.6164244,47.9306737 17.4173512,47.9618316 17.1924244,47.9618316 L15.7472049,47.9618316 L15.7472049,43.7295509 L17.1924244,43.7295509 C17.4173512,43.7295509 17.6164244,43.7633053 17.7974,43.830814 C17.9783756,43.8983228 18.1257415,43.9969895 18.2601805,44.1216211 C18.3739366,44.2306737 18.4489122,44.3553053 18.510961,44.4877263 C18.5652537,44.6201474 18.6040341,44.7603579 18.6298878,44.9005684 C18.6531561,45.0485684 18.6634976,45.1965684 18.6634976,45.3497614 C18.6712537,45.5029544 18.6712537,45.6483579 18.6712537,45.7989544 Z" id="Fill-41" fill="#FFFFFF"></path>
                        <polygon id="Fill-42" fill="#FFFFFF" points="19.849922 47.9618316 19.849922 43.7295509 22.4714829 43.7295509 22.4714829 44.132007 20.302361 44.132007 20.302361 45.6249895 22.1483122 45.6249895 22.1483122 46.0300421 20.302361 46.0300421 20.302361 47.5593754 22.4714829 47.5593754 22.4714829 47.9618316"></polygon>
                        <polygon id="Fill-43" fill="#FFFFFF" points="26.3510829 44.1330456 26.3510829 47.9628702 25.9038146 47.9628702 25.9038146 44.1330456 24.683522 44.1330456 24.683522 43.7305895 27.573961 43.7305895 27.573961 44.1330456"></polygon>
                        <polygon id="Fill-44" fill="#FFFFFF" points="28.4770293 47.9618316 28.4770293 43.7295509 31.0960049 43.7295509 31.0960049 44.132007 28.9294683 44.132007 28.9294683 45.6249895 30.7780049 45.6249895 30.7780049 46.0300421 28.9294683 46.0300421 28.9294683 47.5593754 31.0960049 47.5593754 31.0960049 47.9618316"></polygon>
                        <path d="M34.9277756,46.7373263 C34.8941659,46.9372561 34.8372878,47.1112211 34.7468,47.269607 C34.6640683,47.427993 34.5528976,47.5578175 34.4236293,47.6616772 C34.3021171,47.7733263 34.1547512,47.8538175 33.9892878,47.9135368 C33.8315805,47.9706596 33.6557756,47.9992211 33.4696293,47.9992211 C33.2576293,47.9992211 33.0611415,47.9628702 32.8749951,47.8823789 C32.6940195,47.8096772 32.5337268,47.7006246 32.3889463,47.5578175 C32.2881171,47.4591509 32.2105561,47.3578877 32.1588488,47.2462386 C32.1045561,47.1423789 32.0657756,47.0229404 32.039922,46.8905193 C32.0166537,46.7555018 31.9985561,46.6049053 31.9985561,46.4387298 C31.9933854,46.2699579 31.9856293,46.0700281 31.9856293,45.8441333 C31.9856293,45.6182386 31.9933854,45.4183088 31.9985561,45.2573263 C31.9985561,45.0859579 32.0166537,44.9353614 32.039922,44.8029404 C32.0657756,44.6705193 32.1045561,44.5510807 32.1588488,44.4420281 C32.2105561,44.3329754 32.2881171,44.2317123 32.3889463,44.1330456 C32.5337268,43.9876421 32.6940195,43.881186 32.8749951,43.8058877 C33.0611415,43.7305895 33.2576293,43.6942386 33.4696293,43.6942386 C33.6557756,43.6942386 33.8315805,43.7228 33.9892878,43.7799228 C34.1547512,43.8370456 34.3021171,43.9175368 34.4236293,44.023993 C34.5528976,44.1330456 34.6640683,44.2654667 34.7468,44.4238526 C34.8372878,44.5770456 34.8941659,44.7562035 34.9277756,44.9561333 L34.4649951,44.9561333 C34.4081171,44.6964842 34.294361,44.4835719 34.1185561,44.3277825 C33.9505073,44.177186 33.7307512,44.0966947 33.4696293,44.0966947 C33.3274341,44.0966947 33.1981659,44.1226596 33.0611415,44.177186 C32.9396293,44.2265193 32.8284585,44.3018175 32.7379707,44.3978877 C32.6681659,44.4602035 32.6138732,44.5303088 32.5750927,44.6108 C32.5388976,44.6886947 32.5052878,44.7795719 32.4871902,44.8938175 C32.4690927,45.0002737 32.4587512,45.1326947 32.4458244,45.2832912 C32.4406537,45.4390807 32.4406537,45.6234316 32.4406537,45.8441333 C32.4406537,46.0674316 32.4406537,46.2543789 32.4458244,46.4075719 C32.4587512,46.5607649 32.4690927,46.6905895 32.4871902,46.7970456 C32.5052878,46.9086947 32.5388976,47.0021684 32.5750927,47.0800632 C32.6138732,47.1605544 32.6681659,47.2280632 32.7379707,47.2981684 C32.8284585,47.3916421 32.9396293,47.4643439 33.0611415,47.5188702 C33.1981659,47.5682035 33.3274341,47.5941684 33.4696293,47.5941684 C33.7307512,47.5941684 33.9505073,47.5188702 34.1237268,47.3630807 C34.3072878,47.2098877 34.4236293,47.0021684 34.4701659,46.7373263 L34.9277756,46.7373263 Z" id="Fill-45" fill="#FFFFFF"></path>
                        <polygon id="Fill-46" fill="#FFFFFF" points="38.7274878 47.9618316 36.4911463 44.5656211 36.4911463 47.9618316 36.0387073 47.9618316 36.0387073 43.7295509 36.4652927 43.7295509 38.7042195 47.1101825 38.7042195 43.7295509 39.1566585 43.7295509 39.1566585 47.9618316"></polygon>
                        <path d="M42.8302049,45.8446526 C42.8302049,45.6239509 42.8250341,45.4396 42.8198634,45.2838105 C42.8198634,45.133214 42.809522,45.000793 42.7862537,44.8943368 C42.7629854,44.7904772 42.7397171,44.6970035 42.6957659,44.6191088 C42.6569854,44.541214 42.6026927,44.4685123 42.5406439,44.4010035 C42.4449854,44.3075298 42.3338146,44.2322316 42.2097171,44.1751088 C42.0804488,44.1257754 41.9434244,44.097214 41.8089854,44.097214 C41.6693756,44.097214 41.5349366,44.1257754 41.410839,44.1751088 C41.2815707,44.2322316 41.1704,44.3075298 41.0824976,44.4010035 C41.0101073,44.4685123 40.9584,44.541214 40.9247902,44.6191088 C40.8756683,44.6970035 40.8524,44.7904772 40.8317171,44.8943368 C40.8110341,45.000793 40.8006927,45.133214 40.795522,45.2838105 C40.7903512,45.4396 40.7825951,45.6239509 40.7825951,45.8446526 C40.7825951,46.0679509 40.7903512,46.2548982 40.795522,46.4080912 C40.8006927,46.5586877 40.8110341,46.6911088 40.8317171,46.7975649 C40.8524,46.9014246 40.8756683,46.9948982 40.9247902,47.077986 C40.9584,47.1532842 41.0101073,47.2233895 41.0824976,47.2934947 C41.1704,47.3869684 41.2815707,47.4596702 41.410839,47.5141965 C41.5349366,47.5687228 41.6693756,47.5946877 41.8089854,47.5946877 C41.9434244,47.5946877 42.0804488,47.5687228 42.2097171,47.5141965 C42.3338146,47.4596702 42.4449854,47.3869684 42.5406439,47.2934947 C42.6026927,47.2233895 42.6569854,47.1532842 42.6957659,47.077986 C42.7397171,46.9948982 42.7629854,46.9014246 42.7862537,46.7975649 C42.809522,46.6911088 42.8198634,46.5586877 42.8198634,46.4080912 C42.8250341,46.2548982 42.8302049,46.0679509 42.8302049,45.8446526 M43.2826439,45.8446526 C43.2826439,46.0705474 43.2826439,46.2704772 43.2774732,46.4392491 C43.2723024,46.6054246 43.2593756,46.7560211 43.2309366,46.8884421 C43.2024976,47.0234596 43.1688878,47.1428982 43.1145951,47.2467579 C43.0628878,47.358407 42.9853268,47.4596702 42.8844976,47.5583368 C42.7448878,47.7011439 42.576839,47.8101965 42.4036195,47.8828982 C42.2174732,47.960793 42.0209854,47.9997404 41.8089854,47.9997404 C41.3798146,47.9997404 41.0256195,47.8517404 40.7308878,47.5583368 C40.6352293,47.4596702 40.5576683,47.358407 40.5007902,47.2467579 C40.4490829,47.1428982 40.4077171,47.0234596 40.3844488,46.8884421 C40.3611805,46.7560211 40.3430829,46.6054246 40.3430829,46.4392491 C40.3379122,46.2704772 40.3301561,46.0705474 40.3301561,45.8446526 C40.3301561,45.6187579 40.3379122,45.4188281 40.3430829,45.2552491 C40.3430829,45.0864772 40.3611805,44.9332842 40.3844488,44.8034596 C40.4077171,44.6710386 40.4490829,44.5516 40.5007902,44.4425474 C40.5576683,44.3334947 40.6352293,44.2322316 40.7308878,44.1335649 C41.0256195,43.8427579 41.3798146,43.6947579 41.8089854,43.6947579 C42.2381561,43.6947579 42.597522,43.8427579 42.8844976,44.1335649 C42.9853268,44.2322316 43.0628878,44.3334947 43.1145951,44.4425474 C43.1688878,44.5516 43.2024976,44.6710386 43.2309366,44.8034596 C43.2593756,44.9332842 43.2723024,45.0864772 43.2774732,45.2552491 C43.2826439,45.4188281 43.2826439,45.6187579 43.2826439,45.8446526" id="Fill-47" fill="#FFFFFF"></path>
                        <polygon id="Fill-48" fill="#FFFFFF" points="44.4587268 47.9618316 44.4587268 43.7295509 44.9111659 43.7295509 44.9111659 47.5593754 47.0699463 47.5593754 47.0699463 47.9618316"></polygon>
                        <path d="M50.0940488,45.8446526 C50.0940488,45.6239509 50.0940488,45.4396 50.088878,45.2838105 C50.0837073,45.133214 50.0707805,45.000793 50.0526829,44.8943368 C50.032,44.7904772 50.0087317,44.6970035 49.9596098,44.6191088 C49.926,44.541214 49.8717073,44.4685123 49.8019024,44.4010035 C49.714,44.3075298 49.6054146,44.2322316 49.473561,44.1751088 C49.3520488,44.1257754 49.212439,44.097214 49.0728293,44.097214 C48.9332195,44.097214 48.8039512,44.1257754 48.6746829,44.1751088 C48.5454146,44.2322316 48.4394146,44.3075298 48.3463415,44.4010035 C48.2817073,44.4685123 48.2274146,44.541214 48.180878,44.6191088 C48.1446829,44.6970035 48.1214146,44.7904772 48.095561,44.8943368 C48.074878,45.000793 48.0645366,45.133214 48.0567805,45.2838105 C48.0516098,45.4396 48.0516098,45.6239509 48.0516098,45.8446526 C48.0516098,46.0679509 48.0516098,46.2548982 48.0567805,46.4080912 C48.0645366,46.5586877 48.074878,46.6911088 48.095561,46.7975649 C48.1214146,46.9014246 48.1446829,46.9948982 48.180878,47.077986 C48.2274146,47.1532842 48.2817073,47.2233895 48.3463415,47.2934947 C48.4394146,47.3869684 48.5454146,47.4596702 48.6746829,47.5141965 C48.8039512,47.5687228 48.9332195,47.5946877 49.0728293,47.5946877 C49.212439,47.5946877 49.3520488,47.5687228 49.473561,47.5141965 C49.6054146,47.4596702 49.714,47.3869684 49.8019024,47.2934947 C49.8717073,47.2233895 49.926,47.1532842 49.9596098,47.077986 C50.0087317,46.9948982 50.032,46.9014246 50.0526829,46.7975649 C50.0707805,46.6911088 50.0837073,46.5586877 50.088878,46.4080912 C50.0940488,46.2548982 50.0940488,46.0679509 50.0940488,45.8446526 M50.5490732,45.8446526 C50.5490732,46.0705474 50.5413171,46.2704772 50.5413171,46.4392491 C50.5413171,46.6054246 50.5232195,46.7560211 50.4999512,46.8884421 C50.4740976,47.0234596 50.4379024,47.1428982 50.3758537,47.2467579 C50.3293171,47.358407 50.2491707,47.4596702 50.1509268,47.5583368 C50.0087317,47.7011439 49.8458537,47.8101965 49.6674634,47.8828982 C49.4864878,47.960793 49.2874146,47.9997404 49.0728293,47.9997404 C48.6488293,47.9997404 48.2946341,47.8517404 47.9973171,47.5583368 C47.8913171,47.4596702 47.8215122,47.358407 47.7646341,47.2467579 C47.7129268,47.1428982 47.671561,47.0234596 47.6534634,46.8884421 C47.622439,46.7560211 47.6069268,46.6054246 47.6069268,46.4392491 C47.5991707,46.2704772 47.5991707,46.0705474 47.5991707,45.8446526 C47.5991707,45.6187579 47.5991707,45.4188281 47.6069268,45.2552491 C47.6069268,45.0864772 47.622439,44.9332842 47.6534634,44.8034596 C47.671561,44.6710386 47.7129268,44.5516 47.7646341,44.4425474 C47.8215122,44.3334947 47.8913171,44.2322316 47.9973171,44.1335649 C48.2946341,43.8427579 48.6488293,43.6947579 49.0728293,43.6947579 C49.502,43.6947579 49.8561951,43.8427579 50.1509268,44.1335649 C50.2491707,44.2322316 50.3293171,44.3334947 50.3758537,44.4425474 C50.4379024,44.5516 50.4740976,44.6710386 50.4999512,44.8034596 C50.5232195,44.9332842 50.5413171,45.0864772 50.5413171,45.2552491 C50.5413171,45.4188281 50.5490732,45.6187579 50.5490732,45.8446526" id="Fill-49" fill="#FFFFFF"></path>
                        <path d="M54.5300195,46.4176982 C54.5300195,46.6617684 54.5041659,46.8720842 54.4447024,47.0460491 C54.385239,47.2174175 54.299922,47.3706105 54.1628976,47.5108211 C54.0181171,47.6718035 53.8474829,47.7938386 53.6535805,47.8769263 C53.4674341,47.960014 53.2606049,47.9989614 53.0434341,47.9989614 C52.8314341,47.9989614 52.6401171,47.9626105 52.4565561,47.8821193 C52.2678244,47.8094175 52.1075317,47.7003649 51.967922,47.5575579 C51.8670927,47.4588912 51.7895317,47.3576281 51.7326537,47.2459789 C51.678361,47.1421193 51.6473366,47.0226807 51.6240683,46.8902596 C51.5904585,46.7552421 51.5749463,46.6046456 51.5749463,46.4384702 C51.5671902,46.2696982 51.5671902,46.0697684 51.5671902,45.8438737 C51.5671902,45.6179789 51.5671902,45.4180491 51.5749463,45.2570667 C51.5749463,45.0856982 51.5904585,44.9351018 51.6240683,44.8026807 C51.6473366,44.6702596 51.678361,44.5508211 51.7326537,44.4417684 C51.7895317,44.3327158 51.8670927,44.2314526 51.967922,44.132786 C52.2574829,43.8419789 52.6142634,43.6939789 53.0434341,43.6939789 C53.2425073,43.6939789 53.4286537,43.7225404 53.5967024,43.7822596 C53.7647512,43.8471719 53.9121171,43.9328561 54.0362146,44.0445053 C54.1628976,44.1613474 54.2688976,44.2963649 54.3464585,44.4495579 C54.4291902,44.6053474 54.4860683,44.7741193 54.5145073,44.9584702 L54.0620683,44.9584702 C54.0051902,44.6884351 53.8862634,44.4807158 53.7130439,44.3249263 C53.5294829,44.1717333 53.3045561,44.0964351 53.0434341,44.0964351 C52.901239,44.0964351 52.7719707,44.1249965 52.6452878,44.1769263 C52.5211902,44.2314526 52.4048488,44.3093474 52.3169463,44.4028211 C52.2419707,44.4677333 52.1980195,44.5404351 52.1514829,44.6209263 C52.1127024,44.6962246 52.0868488,44.7896982 52.0687512,44.8935579 C52.0506537,45.000014 52.0325561,45.1324351 52.0273854,45.2830316 C52.0196293,45.4388211 52.0196293,45.6231719 52.0196293,45.8438737 C52.0196293,46.0671719 52.0196293,46.2567158 52.0273854,46.4073123 C52.0325561,46.5605053 52.0506537,46.6903298 52.0687512,46.796786 C52.0868488,46.9084351 52.1127024,47.0019088 52.1514829,47.0798035 C52.1980195,47.1602947 52.2419707,47.2278035 52.3169463,47.2979088 C52.4048488,47.3913825 52.5211902,47.4640842 52.6452878,47.5186105 C52.7719707,47.5679439 52.901239,47.5939088 53.0434341,47.5939088 C53.1933854,47.5939088 53.3433366,47.5653474 53.4829463,47.5004351 C53.6225561,47.4433123 53.7466537,47.3498386 53.8397268,47.2304 C53.9302146,47.1265404 53.9948488,47.0148912 54.0258732,46.8980491 C54.0568976,46.7734175 54.0749951,46.6306105 54.0749951,46.4644351 L54.0749951,46.1450667 L53.0434341,46.1450667 L53.0434341,45.745207 L54.5300195,45.745207 L54.5300195,46.4176982 Z" id="Fill-50" fill="#FFFFFF"></path>
                        <path d="M56.0902878,43.3193053 L55.7024829,43.3193053 L56.2195561,42.4053404 L56.7288732,42.4053404 L56.0902878,43.3193053 Z M55.6973122,47.9618316 L56.1445805,47.9618316 L56.1445805,43.7295509 L55.6973122,43.7295509 L55.6973122,47.9618316 Z" id="Fill-51" fill="#FFFFFF"></path>
                        <path d="M58.6934927,44.3765965 L57.8972,46.6147719 L59.4742732,46.6147719 L58.6934927,44.3765965 Z M59.939639,47.9623509 L59.6035415,47.0042456 L57.7653463,47.0042456 L57.4214927,47.9623509 L56.9406146,47.9623509 L58.4918341,43.7300702 L58.879639,43.7300702 L60.4231024,47.9623509 L59.939639,47.9623509 Z" id="Fill-52" fill="#FFFFFF"></path>
                        <polygon id="Fill-53" fill="#FFFFFF" points="63.9575561 46.2123158 63.9575561 47.9623509 63.5051171 47.9623509 63.5051171 46.2123158 62.2512146 43.7300702 62.7372634 43.7300702 63.7274585 45.7553333 64.7150683 43.7300702 65.2011171 43.7300702"></polygon>
                        <path d="M68.7722829,44.3765965 L67.9863317,46.6147719 L69.5608195,46.6147719 L68.7722829,44.3765965 Z M70.0287707,47.9623509 L69.6875024,47.0042456 L67.846722,47.0042456 L67.5106244,47.9623509 L67.0297463,47.9623509 L68.5783805,43.7300702 L68.9584293,43.7300702 L70.504478,47.9623509 L70.0287707,47.9623509 Z" id="Fill-54" fill="#FFFFFF"></path>
                        <path d="M73.7235171,44.9114737 C73.7235171,44.6492281 73.6407854,44.4544912 73.4882488,44.3246667 C73.3279561,44.2000351 73.1288829,44.1325263 72.8832732,44.1325263 L71.7560537,44.1325263 L71.7560537,45.6852281 L72.8832732,45.6852281 C73.1288829,45.6852281 73.3279561,45.6203158 73.4882488,45.4956842 C73.6407854,45.3684561 73.7235171,45.1763158 73.7235171,44.9114737 Z M73.7235171,47.9623509 L72.7669317,46.0824912 L71.7560537,46.0824912 L71.7560537,47.9623509 L71.3062,47.9623509 L71.3062,43.7300702 L72.9220537,43.7300702 C73.1004439,43.7300702 73.2762488,43.7560351 73.4236146,43.8079649 C73.5735659,43.8624912 73.7183463,43.940386 73.821761,44.0416491 C73.9329317,44.1403158 74.0156634,44.2649474 74.0802976,44.4155439 C74.1371756,44.5557544 74.1759561,44.7245263 74.1759561,44.9062807 C74.1759561,45.2152632 74.0854683,45.4697193 73.9174195,45.6644561 C73.7519561,45.859193 73.5244439,45.9864211 73.2503951,46.0409474 L74.2561024,47.9623509 L73.7235171,47.9623509 Z" id="Fill-55" fill="#FFFFFF"></path>
                        <polygon id="Fill-56" fill="#FFFFFF" points="76.5485463 44.1330456 76.5485463 47.9628702 76.093522 47.9628702 76.093522 44.1330456 74.8758146 44.1330456 74.8758146 43.7305895 77.768839 43.7305895 77.768839 44.1330456"></polygon>
                        <polygon id="Fill-57" fill="#FFFFFF" points="78.6719073 47.9618316 78.6719073 43.7295509 81.2934683 43.7295509 81.2934683 44.132007 79.1243463 44.132007 79.1243463 45.6249895 80.9754683 45.6249895 80.9754683 46.0300421 79.1243463 46.0300421 79.1243463 47.5593754 81.2934683 47.5593754 81.2934683 47.9618316"></polygon>
                        <path d="M86.417922,45.7989544 L86.417922,45.4120772 C86.4101659,45.2822526 86.4049951,45.1576211 86.3868976,45.0381825 C86.3688,44.9239368 86.3429463,44.8096912 86.3041659,44.7084281 C86.2628,44.6071649 86.2033366,44.5162877 86.1361171,44.443586 C86.0249463,44.3267439 85.9008488,44.2462526 85.7638244,44.2021123 C85.6216293,44.1579719 85.471678,44.132007 85.3062146,44.132007 L84.3858244,44.132007 L84.3858244,47.5593754 L85.3062146,47.5593754 C85.471678,47.5593754 85.6216293,47.536007 85.7638244,47.4892702 C85.9008488,47.4425333 86.0249463,47.3672351 86.1361171,47.2477965 C86.2033366,47.1724982 86.2628,47.0790246 86.3041659,46.9647789 C86.3429463,46.8557263 86.3688,46.7336912 86.3868976,46.6064632 C86.4049951,46.4766386 86.4101659,46.3442175 86.417922,46.2014105 L86.417922,45.7989544 Z M86.8626049,45.7989544 L86.8626049,46.2637263 C86.8574341,46.4247088 86.8522634,46.5856912 86.8264098,46.7414807 C86.7979707,46.8998667 86.7617756,47.0478667 86.7023122,47.1880772 C86.6480195,47.3334807 86.5652878,47.4607088 86.4515317,47.5723579 C86.3222634,47.694393 86.1697268,47.7956561 85.9887512,47.8605684 C85.8077756,47.9306737 85.6009463,47.9618316 85.386361,47.9618316 L83.9308,47.9618316 L83.9308,43.7295509 L85.386361,43.7295509 C85.6009463,43.7295509 85.8077756,43.7633053 85.9887512,43.830814 C86.1697268,43.8983228 86.3222634,43.9969895 86.4515317,44.1216211 C86.5652878,44.2306737 86.6480195,44.3553053 86.7023122,44.4877263 C86.7617756,44.6201474 86.7979707,44.7603579 86.8264098,44.9005684 C86.8522634,45.0485684 86.8574341,45.1965684 86.8626049,45.3497614 L86.8626049,45.7989544 Z" id="Fill-58" fill="#FFFFFF"></path>
                        <polygon id="Fill-59" fill="#FFFFFF" points="88.0446341 47.9610526 88.4970732 47.9610526 88.4970732 43.7287719 88.0446341 43.7287719"></polygon>
                        <path d="M92.6339171,46.4176982 C92.6339171,46.6617684 92.6106488,46.8720842 92.5486,47.0460491 C92.491722,47.2174175 92.4012341,47.3706105 92.2719659,47.5108211 C92.1246,47.6718035 91.9539659,47.7938386 91.757478,47.8769263 C91.5713317,47.960014 91.3619171,47.9989614 91.1499171,47.9989614 C90.9405024,47.9989614 90.7388439,47.9626105 90.5552829,47.8821193 C90.3743073,47.8094175 90.2114293,47.7003649 90.0692341,47.5575579 C89.976161,47.4588912 89.8908439,47.3576281 89.8468927,47.2459789 C89.7848439,47.1421193 89.7538195,47.0226807 89.7227951,46.8902596 C89.6995268,46.7552421 89.6814293,46.6046456 89.6814293,46.4384702 C89.6762585,46.2696982 89.6762585,46.0697684 89.6762585,45.8438737 C89.6762585,45.6179789 89.6762585,45.4180491 89.6814293,45.2570667 C89.6814293,45.0856982 89.6995268,44.9351018 89.7227951,44.8026807 C89.7538195,44.6702596 89.7848439,44.5508211 89.8468927,44.4417684 C89.8908439,44.3327158 89.976161,44.2314526 90.0692341,44.132786 C90.3665512,43.8419789 90.7207463,43.6939789 91.1499171,43.6939789 C91.3489902,43.6939789 91.537722,43.7225404 91.7031854,43.7822596 C91.8712341,43.8471719 92.0108439,43.9328561 92.1426976,44.0445053 C92.2719659,44.1613474 92.3753805,44.2963649 92.4555268,44.4495579 C92.5305024,44.6053474 92.5873805,44.7741193 92.6235756,44.9584702 L92.1633805,44.9584702 C92.1116732,44.6884351 91.9953317,44.4807158 91.8117707,44.3249263 C91.6359659,44.1717333 91.4136244,44.0964351 91.1499171,44.0964351 C91.0103073,44.0964351 90.8732829,44.1249965 90.7491854,44.1769263 C90.6225024,44.2314526 90.5113317,44.3093474 90.4208439,44.4028211 C90.351039,44.4677333 90.2967463,44.5404351 90.2579659,44.6209263 C90.2191854,44.6962246 90.1933317,44.7896982 90.167478,44.8935579 C90.1519659,45.000014 90.139039,45.1324351 90.1338683,45.2830316 C90.1286976,45.4388211 90.1209415,45.6231719 90.1209415,45.8438737 C90.1209415,46.0671719 90.1286976,46.2567158 90.1338683,46.4073123 C90.139039,46.5605053 90.1519659,46.6903298 90.167478,46.796786 C90.1933317,46.9084351 90.2191854,47.0019088 90.2579659,47.0798035 C90.2967463,47.1602947 90.351039,47.2278035 90.4208439,47.2979088 C90.5113317,47.3913825 90.6225024,47.4640842 90.7491854,47.5186105 C90.8732829,47.5679439 91.0103073,47.5939088 91.1499171,47.5939088 C91.2998683,47.5939088 91.4498195,47.5653474 91.5920146,47.5004351 C91.729039,47.4433123 91.8479659,47.3498386 91.9487951,47.2304 C92.0366976,47.1265404 92.096161,47.0148912 92.1297707,46.8980491 C92.1633805,46.7734175 92.181478,46.6306105 92.181478,46.4644351 L92.181478,46.1450667 L91.1499171,46.1450667 L91.1499171,45.745207 L92.6339171,45.745207 L92.6339171,46.4176982 Z" id="Fill-60" fill="#FFFFFF"></path>
                        <polygon id="Fill-61" fill="#FFFFFF" points="93.7970732 47.9610526 94.2546829 47.9610526 94.2546829 43.7287719 93.7970732 43.7287719"></polygon>
                        <polygon id="Fill-62" fill="#FFFFFF" points="96.827639 44.1330456 96.827639 47.9628702 96.3752 47.9628702 96.3752 44.1330456 95.1574927 44.1330456 95.1574927 43.7305895 98.0479317 43.7305895 98.0479317 44.1330456"></polygon>
                        <path d="M99.8093415,44.3765965 L99.0104634,46.6147719 L100.584951,46.6147719 L99.8093415,44.3765965 Z M101.052902,47.9623509 L100.721976,47.0042456 L98.8760244,47.0042456 L98.5425122,47.9623509 L98.0590488,47.9623509 L99.6102683,43.7300702 L99.9903171,43.7300702 L101.536366,47.9623509 L101.052902,47.9623509 Z" id="Fill-63" fill="#FFFFFF"></path>
                        <polygon id="Fill-64" fill="#FFFFFF" points="102.33421 47.9618316 102.33421 43.7295509 102.781478 43.7295509 102.781478 47.5593754 104.940259 47.5593754 104.940259 47.9618316"></polygon>
                    </g>
                </g>
            </g>
        </g>
    </g>
</svg>