<?xml version="1.0" encoding="UTF-8"?>
<svg width="123px" height="30px" viewBox="0 0 123 30" version="1.1" xmlns="http://www.w3.org/2000/svg" xmlns:xlink="http://www.w3.org/1999/xlink">
    <!-- Generator: Sketch 48.2 (47327) - http://www.bohemiancoding.com/sketch -->
    <title>Foundation / Icons / Logos / Veritas</title>
    <desc>Created with Sketch.</desc>
    <defs>
        <polygon id="path-1" points="0 0.353994967 4.02531739 0.353994967 4.02531739 4.21605825 0 4.21605825"></polygon>
        <polygon id="path-3" points="1.72664151 0.306574045 10.5844528 0.306574045 10.5844528 13.3853745 1.72664151 13.3853745"></polygon>
        <polygon id="path-5" points="0 29.5054615 122.88634 29.5054615 122.88634 -0.000692307692 0 -0.000692307692"></polygon>
    </defs>
    <g id="Por-qué-TLS---Convenios" stroke="none" stroke-width="1" fill="none" fill-rule="evenodd" transform="translate(-1007.000000, -851.000000)">
        <g id="content" transform="translate(102.000000, 286.000000)">
            <g id="Foundation-/-Icons-/-Logos-/-Veritas" transform="translate(905.000000, 565.000000)">
                <g>
                    <g id="Group-3" transform="translate(0.000000, 13.351615)">
                        <mask id="mask-2" fill="white">
                            <use xlink:href="#path-1"></use>
                        </mask>
                        <g id="Clip-2"></g>
                        <path d="M-0.000701886792,1.91723077 C0.436807547,1.44876923 0.792430189,0.837230769 1.32586415,0.544153846 C2.23363774,0.0503076923 3.40344906,0.571846154 3.84563774,1.49261538 C4.26443019,2.37415385 3.92752453,3.46338462 3.08058113,3.95492308 C2.20322264,4.46261538 1.01937358,4.20876923 0.434467925,3.378 C0.27069434,3.14953846 0.144354717,2.90030769 -0.000701886792,2.66030769 L-0.000701886792,1.91723077 Z" id="Fill-1" fill="#FEFEFE" mask="url(#mask-2)"></path>
                    </g>
                    <path d="M49.2113887,10.0573846 C50.3320679,9.98123077 51.3264075,9.96046154 52.3043698,9.83353846 C53.1208981,9.72738462 53.5022566,9.18969231 53.5209736,8.36353846 C53.5373509,7.50738462 53.0624075,6.98123077 52.2996906,6.89353846 C51.2936528,6.78046154 50.2618792,6.86584615 49.2113887,6.86584615 L49.2113887,10.0573846 Z M46.9536528,4.57430769 C49.1528981,4.72661538 51.3147094,4.74276923 53.4344075,5.06353846 C55.0300302,5.30815385 55.874634,6.47584615 55.9518415,7.88353846 C56.0594642,9.89815385 55.4792377,10.8835385 53.7689736,11.5966154 C53.6192377,11.6589231 53.4765208,11.7443077 53.2378792,11.8666154 C54.2766717,13.602 55.3014264,15.3096923 56.3472377,17.0543077 C53.8415019,17.5135385 53.7853509,17.4904615 52.6482943,15.4412308 C52.2271623,14.682 51.7709358,13.9412308 51.4059547,13.1566154 C50.9941811,12.2566154 50.4350113,11.7373846 49.2347849,12.1527692 L49.2347849,17.1373846 L46.9536528,17.1373846 L46.9536528,4.57430769 Z" id="Fill-4" fill="#FEFEFE"></path>
                    <path d="M36.8048377,4.70169231 L36.8048377,6.81092308 L30.9370642,6.81092308 L30.9370642,9.78092308 L36.4655925,9.78092308 L36.4655925,11.8186154 L30.9370642,11.8186154 L30.9370642,15.0909231 L37.1230264,15.0909231 L37.1230264,17.124 L28.4266491,17.124 L28.4266491,12.6816923 C28.4266491,10.3763077 28.3985736,8.07092308 28.4570642,5.76784615 C28.4664226,5.40784615 28.8571396,4.75476923 29.0864226,4.75015385 C31.620234,4.674 34.1587245,4.70169231 36.8048377,4.70169231" id="Fill-6" fill="#FEFEFE"></path>
                    <path d="M98.1675245,12.2727692 L101.658242,12.2727692 C101.063977,10.7450769 100.518845,9.342 99.8614113,7.64815385 C99.2086566,9.29353846 98.6986189,10.5835385 98.1956,11.8735385 C98.1534868,11.9796923 98.176883,12.1089231 98.1675245,12.2727692 M96.1624679,17.1673846 L93.5561283,17.1673846 C93.6660906,16.8235385 93.7292604,16.5512308 93.836883,16.302 C95.3927321,12.7550769 96.9766566,9.21969231 98.5020906,5.66123077 C98.8039019,4.95046154 99.1805811,4.67353846 99.9760528,4.66661538 C100.755147,4.65969231 101.063977,4.98738462 101.337713,5.63123077 C102.84443,9.15276923 104.390921,12.6581538 105.918694,16.1704615 C106.045034,16.4658462 106.13394,16.7773846 106.290694,17.2227692 C105.523298,17.2227692 104.847147,17.3173846 104.222468,17.1835385 C103.885562,17.112 103.52526,16.6943077 103.368506,16.3481538 C102.507525,14.4650769 102.519223,14.5666154 100.415902,14.4258462 C98.1909208,14.2758462 96.2841283,14.3704615 96.1624679,17.1673846" id="Fill-8" fill="#FEFEFE"></path>
                    <g id="Group-12" transform="translate(112.301887, 4.120846)">
                        <mask id="mask-4" fill="white">
                            <use xlink:href="#path-3"></use>
                        </mask>
                        <g id="Clip-11"></g>
                        <path d="M1.72664151,11.6787692 C2.30218868,11.1272308 2.80520755,10.6449231 3.37139623,10.1026154 C3.67554717,10.3333846 3.92822642,10.6703077 4.24407547,10.7372308 C5.14249057,10.9264615 6.08301887,11.1664615 6.9650566,11.0603077 C7.39788679,11.0072308 7.97577358,10.2618462 8.04830189,9.76569231 C8.1114717,9.35261538 7.63184906,8.688 7.21071698,8.42261538 C6.52286792,7.99338462 5.68528302,7.788 4.90618868,7.50646154 C2.90113208,6.77723077 2.05184906,5.66953846 2.14777358,3.88338462 C2.23901887,2.18492308 3.44158491,0.945692308 5.40686792,0.488769231 C7.26218868,0.0595384615 8.928,0.366461538 10.521283,1.64723077 C9.93637736,2.25184615 9.42633962,2.77569231 9.13154717,3.08030769 C7.96875472,2.84953846 7.02354717,2.49646154 6.09471698,2.54030769 C5.59169811,2.56338462 4.82430189,3.19107692 4.72135849,3.66184615 C4.62543396,4.09107692 5.15184906,4.84569231 5.61041509,5.15492308 C6.24211321,5.58184615 7.07033962,5.72030769 7.812,5.988 C9.87554717,6.72646154 10.8371321,8.148 10.5306415,10.0033846 C10.2101132,11.958 8.70339623,13.2618462 6.63984906,13.3656923 C4.84301887,13.458 3.13509434,13.278 1.72664151,11.6787692" id="Fill-10" fill="#FEFEFE" mask="url(#mask-4)"></path>
                    </g>
                    <path d="M19.337683,4.78846154 C17.6905887,8.82923077 16.1113434,12.7523077 14.4619094,16.6453846 C14.3332302,16.9476923 13.6945132,17.1761538 13.2874189,17.1853846 C12.8756453,17.1969231 12.1994943,16.9984615 12.0801736,16.7123077 C10.4564755,12.8076923 8.90764528,8.87307692 7.33775849,4.93846154 C9.50190943,4.29 9.8598717,4.45846154 10.5407019,6.32769231 C11.4227396,8.74846154 12.3188151,11.1669231 13.3412302,13.95 C14.2677208,11.4923077 15.0655321,9.37384615 15.8633434,7.25538462 C15.9499094,7.02461538 16.0411547,6.79615385 16.1277208,6.56538462 C16.8834189,4.55538462 16.8834189,4.55538462 19.337683,4.78846154" id="Fill-13" fill="#FEFEFE"></path>
                    <path d="M87.0793509,4.69615385 L87.0793509,6.80307692 L83.3336151,6.80307692 L83.3336151,17.1553846 L81.0056906,17.1553846 L81.0056906,6.90461538 L77.3395019,6.90461538 C76.7826717,4.89461538 76.9207094,4.69615385 78.7970868,4.69615385 L87.0793509,4.69615385 Z" id="Fill-15" fill="#FEFEFE"></path>
                    <path d="M65.620566,4.77507692 C65.9130189,4.74507692 66.1563396,4.73353846 66.3949811,4.69430769 C67.5484151,4.50738462 67.995283,4.88815385 67.9601887,6.12969231 C67.871283,9.372 67.9321132,12.6189231 67.927434,15.8635385 C67.9250943,16.2650769 67.8923396,16.6689231 67.8689434,17.1466154 L65.620566,17.1466154 L65.620566,4.77507692 Z" id="Fill-17" fill="#FEFEFE"></path>
                    <mask id="mask-6" fill="white">
                        <use xlink:href="#path-5"></use>
                    </mask>
                    <g id="Clip-20"></g>
                    <polygon id="Fill-19" fill="#FEFEFE" mask="url(#mask-6)" points="28.5083019 1.88469231 36.8046038 1.88469231 36.8046038 -0.000692307692 28.5083019 -0.000692307692"></polygon>
                    <path d="M20.5395472,25.6299231 L20.5395472,29.1676154 C19.7698113,28.7868462 19.6200755,27.4253077 19.9546415,24.303 C21.8544151,24.7460769 21.9550189,26.7699231 23.274566,27.7622308 C23.3470943,26.6060769 23.4149434,25.4868462 23.4851321,24.3676154 C23.6418868,24.3814615 23.7986415,24.3953077 23.9530566,24.4091538 L23.9530566,29.2876154 C22.1702642,28.7014615 21.9550189,26.7814615 20.5395472,25.6299231" id="Fill-21" fill="#FEFEFE" mask="url(#mask-6)"></path>
                    <path d="M119.278875,25.1734615 L119.278875,28.3880769 C121.068687,28.5057692 121.927328,27.9819231 121.953064,26.8142308 C121.9788,25.5634615 121.131857,25.0280769 119.278875,25.1734615 M118.513819,29.1334615 L118.513819,24.3911538 C119.955026,24.4073077 121.54363,23.9688462 122.334423,25.4942308 C122.685366,26.175 122.680687,27.3311538 122.329743,28.0142308 C121.550649,29.5188462 119.985442,29.2142308 118.513819,29.1334615" id="Fill-22" fill="#FEFEFE" mask="url(#mask-6)"></path>
                    <path d="M95.3960075,24.8173846 L95.3960075,28.7681538 C96.3341962,28.3412308 97.2185736,28.1566154 97.7332906,27.6258462 C98.0444604,27.3050769 98.0327623,26.1973846 97.7145736,25.8789231 C97.197517,25.3643077 96.3131396,25.2050769 95.3960075,24.8173846 Z M94.6707245,24.402 C96.0955547,24.3973846 97.5484604,24.0327692 98.4679321,25.4358462 C99.0317811,26.2943077 99.0551774,27.2473846 98.456234,28.1058462 C97.513366,29.4535385 96.0978943,29.1927692 94.6707245,29.1581538 L94.6707245,24.402 Z" id="Fill-23" fill="#FEFEFE" mask="url(#mask-6)"></path>
                    <path d="M64.4577736,26.4895385 C65.0684151,26.3649231 65.5948302,26.2910769 66.0908302,26.1226154 C66.1867547,26.0903077 66.2499245,25.5364615 66.1750566,25.4972308 C65.7094717,25.2503077 65.199434,25.0818462 64.5630566,24.8303077 C64.523283,25.4556923 64.4998868,25.848 64.4577736,26.4895385 M66.7950566,29.3187692 C66.4534717,28.9564615 66.0908302,28.6149231 65.7749811,28.2341538 C65.4544528,27.8441538 65.1760377,27.4172308 64.8789057,27.0087692 C64.7829811,27.0687692 64.6893962,27.1287692 64.5934717,27.1910769 C64.4998868,27.8649231 64.4039623,28.5387692 64.3103774,29.2126154 C64.1629811,29.1918462 64.0179245,29.1687692 63.8705283,29.1456923 L63.8705283,24.4056923 C64.9303774,24.4703077 66.2429057,23.8887692 66.8558868,25.1349231 C67.108566,25.6449231 66.5915094,26.5264615 66.4230566,27.2372308 C66.3084151,27.228 66.1937736,27.2164615 66.0791321,27.2095385 L67.1366415,29.0003077 C67.022,29.1064615 66.9073585,29.2126154 66.7950566,29.3187692" id="Fill-24" fill="#FEFEFE" mask="url(#mask-6)"></path>
                    <path d="M108.544921,25.4169231 C108.219713,26.2246154 108.009147,26.7392308 107.770506,27.3392308 L109.331034,27.3392308 C109.080694,26.73 108.872468,26.2153846 108.544921,25.4169231 Z M110.830732,29.3907692 C109.316996,27.78 107.826657,27.3692308 106.387789,29.5038462 C106.310581,29.3538462 106.231034,29.2015385 106.153826,29.0492308 C106.832317,27.5538462 107.499109,26.0538462 108.222053,24.5815385 C108.243109,24.5353846 109.012845,24.6646154 109.111109,24.8653846 C109.766204,26.2246154 110.334732,27.6253846 110.933675,29.0123077 L110.830732,29.3907692 Z" id="Fill-25" fill="#FEFEFE" mask="url(#mask-6)"></path>
                    <path d="M55.6271019,26.9877692 C54.9064981,27.057 54.188234,27.1285385 53.3670264,27.207 L53.3670264,28.3723846 C54.2280075,28.4439231 55.0468755,28.5108462 55.8657434,28.5800769 C55.8634038,28.7231538 55.8587245,28.8639231 55.8563849,29.007 L52.6019698,29.007 L52.6019698,24.4677692 L55.6364604,24.4677692 C55.6668755,24.5993077 55.6949509,24.7308462 55.7230264,24.8646923 C54.981366,24.9800769 54.237366,25.0977692 53.3763849,25.2339231 L53.3763849,26.3600769 C54.1297434,26.397 54.8550264,26.4362308 55.5779698,26.4731538 C55.5943472,26.6462308 55.6107245,26.817 55.6271019,26.9877692" id="Fill-26" fill="#FEFEFE" mask="url(#mask-6)"></path>
                    <path d="M8.38450566,24.3373846 C8.51084528,24.5935385 8.72141132,24.8427692 8.7401283,25.1058462 C8.7916,25.8004615 8.77756226,26.502 8.75416604,27.2012308 C8.72609057,27.9581538 8.99280755,28.5627692 9.80231698,28.5996923 C10.6937132,28.6366154 11.004883,27.9673846 11.0352981,27.2012308 C11.0703925,26.2781538 11.0446566,25.3527692 11.0446566,24.4412308 C11.3066943,24.4296923 11.4400528,24.3927692 11.4611094,24.4273846 C11.9992226,25.2327692 11.9594491,28.1589231 11.2739396,28.6896923 C10.8036755,29.052 10.0386189,29.3496923 9.49816604,29.2389231 C8.95771321,29.1281538 8.20435472,28.5235385 8.12480755,28.0412308 C7.9236,26.8689231 8.05695849,25.6389231 8.05695849,24.432 C8.16692075,24.3996923 8.27688302,24.3696923 8.38450566,24.3373846" id="Fill-27" fill="#FEFEFE" mask="url(#mask-6)"></path>
                    <path d="M74.6365358,28.3917692 C74.9477057,28.4148462 75.268234,28.4886923 75.5677057,28.4448462 C76.0449887,28.3756154 76.5058943,28.2256154 76.9714792,28.1079231 C76.7164604,27.801 76.5246113,27.3625385 76.1947245,27.2079231 C74.8588,26.5871538 74.4049132,25.941 74.8307245,25.0433077 C75.2471774,24.171 76.4567623,24.0279231 77.9049887,24.8586923 C77.4651396,24.9948462 77.2054415,25.0940769 76.9340453,25.1563846 C76.4778189,25.2602308 76.0169132,25.3386923 75.5560075,25.4286923 C75.8858943,25.7656154 76.2134415,26.1048462 76.5480075,26.4371538 C76.9551019,26.841 77.6125358,27.1825385 77.729517,27.6533077 C78.0055925,28.7656154 76.8638566,29.5940769 75.6238566,29.2802308 C75.2705736,29.1902308 74.9477057,28.9986923 74.6084604,28.851 L74.6365358,28.3917692 Z" id="Fill-28" fill="#FEFEFE" mask="url(#mask-6)"></path>
                    <path d="M40.5702264,24.4128462 C41.9155094,24.3620769 41.6862264,25.3728462 41.9716604,25.9359231 C42.2804906,26.5405385 42.4816981,27.2005385 42.7507547,27.8836154 C43.6257736,26.7759231 43.4269057,25.1605385 44.6130943,24.3343846 C44.7417736,24.3920769 44.8751321,24.4497692 45.0061509,24.5074615 C44.4189057,25.9636154 43.9112075,27.4613077 43.2093208,28.8597692 C42.8630566,29.5474615 42.4068302,29.1413077 42.1892453,28.5874615 C41.6675094,27.249 41.1504528,25.9082308 40.5702264,24.4128462" id="Fill-29" fill="#FEFEFE" mask="url(#mask-6)"></path>
                    <path d="M85.8707019,29.3358462 L85.8707019,24.3489231 C86.6942491,24.9881538 86.7433811,28.3712308 85.8707019,29.3358462" id="Fill-30" fill="#FEFEFE" mask="url(#mask-6)"></path>
                    <path d="M32.7881736,24.3463846 C32.891117,24.6763846 33.082966,25.0086923 33.082966,25.3386923 C33.0759472,26.6194615 33.1999472,27.9302308 33.0034189,29.1902308 C32.8068906,29.1671538 32.6127019,29.1440769 32.4161736,29.121 L32.4161736,24.441 C32.5425132,24.4086923 32.6641736,24.3786923 32.7881736,24.3463846" id="Fill-31" fill="#FEFEFE" mask="url(#mask-6)"></path>
                </g>
            </g>
        </g>
    </g>
</svg>