<?xml version="1.0" encoding="UTF-8"?>
<svg width="17px" height="16px" viewBox="0 0 17 16" version="1.1" xmlns="http://www.w3.org/2000/svg" xmlns:xlink="http://www.w3.org/1999/xlink">
    <!-- Generator: Sketch 48.2 (47327) - http://www.bohemiancoding.com/sketch -->
    <title>LinkedIn</title>
    <desc>Created with Sketch.</desc>
    <defs></defs>
    <g id="Carreras-profesionales---Animacion-digital---Alumnos-Egresados---Interna" stroke="none" stroke-width="1" fill="none" fill-rule="evenodd" transform="translate(-654.000000, -960.000000)">
        <g id="info" transform="translate(529.000000, 488.000000)" fill="#000000" fill-rule="nonzero">
            <g id="linkedin-logo" transform="translate(125.000000, 472.000000)">
                <path d="M17,9.8095873 L17,16 L13.3563496,16 L13.3563496,10.2241838 C13.3563496,8.77325171 12.8293348,7.78304728 11.5104541,7.78304728 C10.503656,7.78304728 9.9045097,8.4503725 9.64092328,9.09589734 C9.5448006,9.32666994 9.5200585,9.64787519 9.5200585,9.97091012 L9.5200585,16 L5.8751828,16 C5.8751828,16 5.92427177,6.21766317 5.8751828,5.20414013 L9.51970278,5.20414013 L9.51970278,6.73441005 C9.51231177,6.74585525 9.5027074,6.75819582 9.49575116,6.76929066 L9.51970278,6.76929066 L9.51970278,6.73441005 C10.0039129,5.99985402 10.8686613,4.95051606 12.804237,4.95051606 C15.2022845,4.95047713 17,6.49351585 17,9.8095873 Z M2.06248765,0 C0.815580412,0 0,0.80556299 0,1.86490577 C0,2.9011635 0.791984507,3.73117406 2.01411011,3.73117406 L2.03845698,3.73117406 C3.30951346,3.73117406 4.09999605,2.90131921 4.09999605,1.86490577 C4.07604443,0.80556299 3.30951346,0 2.06248765,0 Z M0.216473657,16 L3.85996601,16 L3.85996601,5.20414013 L0.216473657,5.20414013 L0.216473657,16 Z" id="LinkedIn"></path>
            </g>
        </g>
    </g>
</svg>