<?xml version="1.0" encoding="UTF-8"?>
<svg width="236px" height="63px" viewBox="0 0 236 63" version="1.1" xmlns="http://www.w3.org/2000/svg" xmlns:xlink="http://www.w3.org/1999/xlink">
    <!-- Generator: Sketch 48.2 (47327) - http://www.bohemiancoding.com/sketch -->
    <title>Foundation / Icons / Logos / Escuela VR</title>
    <desc>Created with Sketch.</desc>
    <defs></defs>
    <g id="Escuela-VR" stroke="none" stroke-width="1" fill="none" fill-rule="evenodd" transform="translate(-260.000000, -343.000000)">
        <g id="Content" transform="translate(260.000000, 343.000000)" fill="#FFFFFF">
            <g id="Foundation-/-Icons-/-Logos-/-Escuela-VR">
                <g id="Combined-Shape">
                    <path d="M13.1398009,41.0528902 L3.86109059,41.0528902 L3.86109059,48.0250674 L13.1398009,48.0250674 C14.2100227,48.0250674 15.086758,48.918479 15.086758,50.0862238 C15.086758,51.2192198 14.2100227,52.1121742 13.1398009,52.1121742 L3.86109059,52.1121742 L3.86109059,58.9133504 L13.1398009,58.9133504 C14.2100227,58.9133504 15.086758,59.8401392 15.086758,60.9735924 C15.086758,62.1070456 14.2100227,63 13.1398009,63 L1.91456539,63 C0.843479857,63 0,62.1070456 0,60.9735924 L0,38.9921909 C0,37.8587378 0.843479857,36.9310345 1.91456539,36.9310345 L13.1398009,36.9310345 C14.2100227,36.9310345 15.086758,37.8587378 15.086758,38.9921909 C15.086758,40.1256441 14.2100227,41.0528902 13.1398009,41.0528902 Z M30.5707707,48.2828159 C34.225911,49.0835841 36.8361297,52.4232831 36.6276088,55.9723211 C36.3834076,60.0428543 32.6935138,62.4081077 29.3868352,62.8948673 C28.8298526,62.9648014 28.2385799,63 27.6815973,63 C24.2697315,63 20.8935459,61.5730672 18.8055563,59.1031442 C18.0743429,58.2338314 18.1786033,56.9463035 19.0492941,56.1807339 C19.9195214,55.4503629 21.2077174,55.5545693 21.9380041,56.4243453 C23.4699379,58.1986327 26.2191705,59.1730783 28.7955625,58.7895988 C30.5012637,58.5469137 32.3798057,57.5025341 32.4854563,55.7287098 C32.5901801,54.1628351 31.3719545,52.70163 29.6657899,52.3190767 C28.96933,52.1449363 28.1681462,52.1102008 27.3683526,52.0754654 C25.5583909,51.971259 23.5394448,51.8665894 21.6599762,50.5790616 C19.1183377,48.8395096 17.8648952,45.6739511 18.6317888,42.8904827 C19.4667993,39.8634029 22.2512489,37.533348 25.5583909,37.0456621 C28.760809,36.593638 32.1722115,37.4981494 34.6434162,39.4118419 C35.5136436,40.1070143 35.6878744,41.4297407 34.9914145,42.333789 C34.2958814,43.2040281 32.9724685,43.3777054 32.0670243,42.6820699 C30.5012637,41.4297407 28.2385799,40.8378484 26.1153734,41.1513938 C24.4791792,41.3945421 23.0167524,42.5426649 22.634464,44.0043332 C22.2860023,45.2223901 23.0519692,46.5094548 24.0269204,47.1703549 C24.9314379,47.7960563 26.1496636,47.8659904 27.5768735,47.9354613 C28.5518247,48.0049322 29.5263125,48.0401308 30.5707707,48.2828159 Z M56.8744757,56.4736142 C57.7023885,55.6839919 59.0109953,55.7525752 59.8035899,56.5774036 C60.5608663,57.4017747 60.5269242,58.7062289 59.7003875,59.4963084 C57.2533433,61.728923 54.0834235,63 50.7763591,63 C43.575582,63 37.716895,57.1265271 37.716895,49.9486 C37.716895,42.7697585 43.575582,36.9310345 50.7763591,36.9310345 C54.0141632,36.9310345 57.1161987,38.0987793 59.5270074,40.2628107 C60.3888623,41.0176841 60.4576639,42.3235099 59.6650693,43.1817155 C58.9073342,44.0065438 57.5987274,44.0746699 56.7712733,43.3193393 C55.1172824,41.8425124 52.9821389,41.052433 50.7763591,41.052433 C45.849246,41.052433 41.8523308,45.0362076 41.8523308,49.9486 C41.8523308,54.860078 45.849246,58.8433954 50.7763591,58.8433954 C53.0504819,58.8433954 55.2209435,58.0194815 56.8744757,56.4736142 Z M81.9676524,36.9310345 C83.1316793,36.9310345 84.0547945,37.8587378 84.0547945,39.0264826 L84.0547945,53.9323747 C84.0547945,59.8063048 79.0598622,63 74.3381757,63 C69.6524665,63 64.6575342,59.8063048 64.6575342,53.9323747 L64.6575342,39.0264826 C64.6575342,37.8587378 65.5815603,36.9310345 66.7446764,36.9310345 C67.907337,36.9310345 68.8659742,37.8587378 68.8659742,39.0264826 L68.8659742,53.9323747 C68.8659742,57.0922355 71.6366861,58.7409777 74.3381757,58.7409777 C77.0760981,58.7409777 79.84681,57.0922355 79.84681,53.9323747 L79.84681,39.0264826 C79.84681,37.8587378 80.8045363,36.9310345 81.9676524,36.9310345 Z M100.427793,41.0528902 L91.1489829,41.0528902 L91.1489829,48.0250674 L100.427793,48.0250674 C101.498508,48.0250674 102.374429,48.918479 102.374429,50.0862238 C102.374429,51.2192198 101.498508,52.1121742 100.427793,52.1121742 L91.1489829,52.1121742 L91.1489829,58.9133504 L100.427793,58.9133504 C101.498508,58.9133504 102.374429,59.8401392 102.374429,60.9735924 C102.374429,62.1070456 101.498508,63 100.427793,63 L89.2019143,63 C88.1307675,63 87.2876712,62.1070456 87.2876712,60.9735924 L87.2876712,38.9921909 C87.2876712,37.8587378 88.1307675,36.9310345 89.2019143,36.9310345 L100.427793,36.9310345 C101.498508,36.9310345 102.374429,37.8587378 102.374429,38.9921909 C102.374429,40.1256441 101.498508,41.0528902 100.427793,41.0528902 Z M120.82871,58.8100182 C121.923812,58.8100182 122.814666,59.7029727 122.849315,60.801677 C122.849315,61.9351301 121.959374,62.8623762 120.82871,62.8623762 L108.739274,63 L108.704625,63 C108.191723,63 107.677453,62.7933357 107.301325,62.4156704 C106.924286,62.0384623 106.684932,61.5227159 106.684932,60.9731352 L106.684932,38.9578993 C106.684932,37.8244461 107.609066,36.9310345 108.704625,36.9310345 C109.835744,36.9310345 110.726141,37.8244461 110.726141,38.9578993 L110.726141,58.9128932 L120.794973,58.8100182 L120.82871,58.8100182 Z M149.344336,62.1959443 C149.317562,62.2296776 149.293511,62.2629489 149.265377,62.2943718 C149.193225,62.3743153 149.115173,62.446403 149.03213,62.5138698 C149.018063,62.5258844 149.004903,62.537899 148.990382,62.5489894 C148.807052,62.6899302 148.600125,62.7966756 148.3755,62.8669149 C148.318777,62.8863232 148.263415,62.9057314 148.205784,62.9205186 C148.193532,62.9228291 148.180372,62.9246775 148.16812,62.926988 C147.940773,62.9782813 147.709795,62.9949169 147.484717,62.9658045 L127.378326,62.9658045 C127.265333,62.9865991 127.150978,63 127.036624,63 C126.730772,63 126.458046,62.931147 126.185774,62.7925167 C126.124059,62.7629422 126.071419,62.7236636 126.014242,62.6894681 C125.961149,62.6585074 125.907602,62.6303192 125.858139,62.5947374 C125.815937,62.5647009 125.780088,62.5295812 125.741516,62.496772 C125.675263,62.4422441 125.611279,62.3872541 125.553648,62.3248704 C125.526421,62.295296 125.503278,62.2624868 125.477866,62.2319881 C125.418874,62.1603625 125.36215,62.0868884 125.313141,62.0074071 C125.294082,61.9764463 125.279107,61.943175 125.26141,61.9112901 C125.216485,61.828574 125.174736,61.7449337 125.140702,61.6557482 C125.125727,61.6164696 125.116652,61.5753426 125.104853,61.5356019 C125.078987,61.4519617 125.054029,61.3692456 125.039054,61.2814464 C125.029071,61.2236838 125.026802,61.1649969 125.02181,61.1063101 C125.016365,61.0471612 125.004566,60.9903228 125.004566,60.9297875 C125.004566,60.9150003 125.007743,60.9015994 125.00865,60.8872743 C125.010012,60.8188833 125.020903,60.7504924 125.029071,60.6816393 C125.036331,60.6155589 125.041323,60.5494784 125.054937,60.4857085 C125.069912,60.4163933 125.095324,60.3480024 125.118013,60.2786872 C125.137526,60.2218488 125.152955,60.163162 125.177005,60.108172 C125.18472,60.0887637 125.187896,60.0693555 125.196972,60.0504094 L135.150788,38.145898 C135.492036,37.4176268 136.17317,36.9656921 136.95686,36.9310345 L136.991348,36.9310345 C137.774584,36.9310345 138.456626,37.3825072 138.832361,38.0770449 L149.569414,59.9806321 C149.590742,60.0231454 149.600271,60.0675071 149.618423,60.1104825 C149.630675,60.1391327 149.639751,60.1687072 149.650642,60.1978196 C149.683314,60.2879293 149.713264,60.3771148 149.733685,60.4681486 C149.745937,60.5217524 149.75229,60.5767424 149.760458,60.6317324 C149.771349,60.7084412 149.779971,60.7846878 149.783148,60.8613966 C149.783601,60.8845016 149.789954,60.9066825 149.789954,60.9297875 C149.789954,60.9750734 149.779517,61.0166625 149.776795,61.0610242 C149.772257,61.1266426 149.767719,61.1913367 149.757282,61.2560308 C149.745483,61.3318154 149.726878,61.4048274 149.706911,61.4778393 C149.692844,61.5305188 149.678777,61.5827362 149.659717,61.6340295 C149.631583,61.7102761 149.598456,61.7823639 149.562153,61.8535274 C149.539918,61.8988133 149.517682,61.943175 149.49227,61.9861504 C149.446891,62.0600866 149.397429,62.1289396 149.344336,62.1959443 Z M133.207219,52.2741738 C133.09831,52.5135421 131.290877,56.4950043 131.088488,56.9404697 L130.19725,58.8937706 L144.467941,58.8937706 L143.262683,56.4400143 L141.217012,52.2741738 L137.058962,43.8043247 L133.207219,52.2741738 Z M234.868682,60.6300175 L235.029583,60.8519588 C235.155842,61.0646908 235.232873,61.3110364 235.232873,61.5771817 C235.232873,62.3627247 234.602945,62.9986186 233.826703,62.9995395 L233.8226,62.9995395 L224.741973,62.9995395 L224.73787,62.9995395 C224.121617,62.9990791 223.574646,62.7209618 223.196324,62.2881304 L222.970699,61.977781 L211.815684,46.6048969 C211.809303,46.5943064 211.807024,46.5827949 211.800643,46.5731253 C211.788336,46.553786 211.774206,46.5358281 211.760532,46.5174097 C211.75096,46.5063587 211.739564,46.49761 211.729992,46.486559 C211.608291,46.3498027 211.437819,46.2613945 211.245012,46.2485017 C211.235895,46.2480412 211.227691,46.2457389 211.218575,46.2452785 L211.167068,46.2452785 L211.154306,46.2452785 C211.146557,46.2457389 211.139264,46.2480412 211.131971,46.2485017 L196.852386,46.2485017 C196.844637,46.2480412 196.836888,46.2457389 196.828684,46.2457389 L196.776265,46.2457389 L196.763503,46.2457389 C196.75621,46.2457389 196.749829,46.2480412 196.742536,46.2485017 C196.404325,46.2807338 196.138589,46.5441164 196.097566,46.87887 C196.093919,46.9138649 196.088905,46.9488598 196.089817,46.9852361 C196.090729,47.0087195 196.094831,47.0303611 196.097566,47.0524631 L196.097566,60.911358 C196.097566,62.0643473 195.173185,62.9986186 194.032295,62.9995395 C194.031384,62.9995395 194.030472,63 194.030472,63 L194.028193,62.9995395 L187.927645,62.9995395 C187.927645,62.9995395 187.927189,63 187.926277,63 L187.923998,62.9995395 C186.782652,62.9986186 185.858272,62.0643473 185.858272,60.911358 L185.858272,37.8603201 C185.858272,36.7068703 186.78402,35.7716781 187.926277,35.7716781 L193.25742,35.7716781 L202.491199,35.7716781 C202.519003,35.7744409 202.547264,35.7795059 202.57598,35.778585 C202.593756,35.7781245 202.611077,35.77352 202.629765,35.7716781 C202.996691,35.7353019 203.281116,35.4208084 203.272912,35.0409297 C203.269721,34.8963456 203.223228,34.7632729 203.14802,34.6523023 C203.142094,34.6435536 203.136169,34.6357258 203.129788,34.6274375 L190.180709,16.7584052 L190.157918,16.7266335 C190.145612,16.7077547 190.131937,16.6897968 190.118263,16.6718389 L190.089091,16.631779 C189.955083,16.4825903 189.763188,16.3863543 189.547134,16.3914194 C189.303732,16.3974054 189.093148,16.525413 188.968257,16.7155825 C188.955038,16.7349218 188.945011,16.7565634 188.934071,16.777284 L164.821318,60.7437509 L164.816759,60.7382254 C164.817671,60.7359231 164.818583,60.7336208 164.819494,60.7313185 C164.767532,60.8289358 164.708733,60.922409 164.637171,61.0052916 C164.379639,61.3036691 164.004052,61.4956805 163.581973,61.4956805 C163.126164,61.4956805 162.724596,61.2732788 162.467064,60.9339205 C162.421027,60.8726794 162.379549,60.8082152 162.343084,60.7405277 L130.77922,3.2982678 L130.74549,3.23702675 L130.54539,2.8737246 C130.447391,2.63106271 130.392694,2.36675925 130.392694,2.08910247 C130.392694,0.935192223 131.317531,0 132.459332,0 L173.917443,0 L173.917443,0.00460458997 C174.675453,0.0271670808 175.283502,0.651549481 175.283502,1.4228183 C175.283502,1.69172636 175.205559,1.93991376 175.077477,2.15448765 L175.08249,2.1572504 L171.076841,9.87270136 L171.070915,9.86809677 C170.717663,10.5072139 170.048991,10.9446499 169.273204,10.9446499 L148.635995,10.9446499 C148.623688,10.9446499 148.612748,10.9409662 148.599986,10.9414267 C148.589958,10.9414267 148.580842,10.9441894 148.570814,10.9446499 L148.558507,10.9446499 C148.175628,10.9695147 147.876161,11.2936778 147.884821,11.6846075 C147.8871,11.7647274 147.904421,11.8407031 147.930858,11.9125347 C147.956839,11.9875895 147.994671,12.0566584 148.043899,12.1178994 L162.913757,39.1574331 C162.937915,39.2209765 162.970277,39.2808361 163.011756,39.3342494 C163.145764,39.5129075 163.359538,39.6271013 163.598838,39.6220363 C163.83677,39.6165107 164.043707,39.4926473 164.170878,39.3084637 C164.20005,39.2651805 164.225575,39.2200555 164.246542,39.1712469 L179.703482,11.0118769 L185.151768,1.03142815 L185.152679,1.03234907 C185.503652,0.431910539 186.138594,0.0244043269 186.874726,0.00552550797 L186.874726,0 L186.927144,0 L198.134576,0 L213.142545,0 C216.313608,0 219.286394,0.612870925 222.060448,1.83585002 C224.835414,3.05975004 227.257583,4.71694197 229.327412,6.80742581 C231.398152,8.8997515 233.028125,11.3457097 234.216419,14.1485236 C235.405625,16.9513375 236,19.9328095 236,23.0910978 C236,25.4058252 235.679566,27.6298421 235.041889,29.7649905 C234.403301,31.9010598 233.499887,33.8699825 232.333472,35.6712981 C231.166601,37.4735346 229.767723,39.0869829 228.138662,40.5102617 C226.691012,41.775603 225.120294,42.8457097 223.428787,43.7242655 C223.423317,43.7265678 223.417848,43.7302514 223.412378,43.7330142 C223.347197,43.762944 223.284751,43.8043853 223.232333,43.8601009 C223.15439,43.9416021 223.105163,44.0406008 223.084651,44.145125 C223.080093,44.1635433 223.07827,44.1815012 223.075991,44.1999196 C223.063228,44.3127321 223.085563,44.426005 223.137981,44.5291478 C223.160315,44.5728914 223.186752,44.6157141 223.220482,44.6548531 L223.25558,44.6907689 L234.868682,60.6300175 Z M220.11232,33.5361497 C221.234978,32.757974 222.215423,31.8338328 223.051377,30.7660284 C223.887787,29.6986844 224.538682,28.5199094 225.000416,27.2292428 C225.463063,25.9394971 225.693702,24.5590411 225.693702,23.0910978 C225.693702,21.3560883 225.364152,19.7209984 224.703229,18.186749 C224.042306,16.6511183 223.139348,15.3167081 221.995268,14.1821371 C220.848452,13.0475661 219.517034,12.1464479 217.997367,11.4792428 C216.478155,10.8115773 214.860033,10.4786654 213.142545,10.4786654 L199.875311,10.4786654 L199.875311,10.4791259 C199.873944,10.4791259 199.87212,10.4786654 199.870753,10.4786654 C199.473743,10.488335 199.160603,10.820326 199.169263,11.2209253 C199.173365,11.3586025 199.216211,11.4847683 199.285038,11.5929762 C199.299624,11.6159991 199.315578,11.6381012 199.332898,11.6592823 L216.134019,34.8088584 C216.142224,34.8212907 216.150884,34.8328022 216.16,34.8443137 C216.29492,35.0225113 216.507327,35.1367052 216.745259,35.1307192 C216.76805,35.1302587 216.789017,35.1251937 216.811351,35.1224309 C216.902969,35.1118404 216.988661,35.0842128 217.06706,35.0423111 C218.150063,34.6863763 219.168796,34.1904619 220.11232,33.5361497 Z"></path>
                </g>
            </g>
        </g>
    </g>
</svg>