<?xml version="1.0" encoding="UTF-8"?>
<svg width="329px" height="35px" viewBox="0 0 329 35" version="1.1" xmlns="http://www.w3.org/2000/svg" xmlns:xlink="http://www.w3.org/1999/xlink">
    <!-- Generator: Sketch 48.2 (47327) - http://www.bohemiancoding.com/sketch -->
    <title>Foundation / Icons / Logos / Survive</title>
    <desc>Created with Sketch.</desc>
    <defs></defs>
    <g id="Survive-" stroke="none" stroke-width="1" fill="none" fill-rule="evenodd" transform="translate(-260.000000, -362.000000)">
        <g id="Content" transform="translate(260.000000, 362.000000)">
            <g id="Foundation-/-Icons-/-Logos-/-Survive">
                <g>
                    <path d="M1.82756189,29.745246 L4.85417078,27.5209634 C12.5324105,35.5361145 23.0277616,37.1885915 29.9028546,32.0933512 C31.5513961,30.8719909 32.8114305,29.3219453 33.6860068,27.5444115 C27.3784302,28.0524546 20.7398387,25.7644095 15.3294867,19.8151631 L18.3421581,17.6003421 C19.3500115,16.8582289 18.9828462,15.9696677 17.5255095,15.6237048 L2.68950735,12.1068947 C1.23129947,11.7605204 0.0365968991,12.6371518 0.0335480774,14.0518565 L1.10383071e-05,28.5193606 C-0.00347332939,29.9344766 0.818401901,30.4869477 1.82756189,29.745246" id="Fill-4" fill="#FFFFFF"></path>
                    <path d="M37.472784,5.25443514 C38.481073,4.51234491 39.3029484,5.064799 39.3003351,6.47987128 L39.2659269,20.94734 C39.2633137,22.3636463 38.0677398,23.239428 36.6108384,22.8930643 L21.7748342,19.3755402 C20.3174972,19.0304106 19.9498963,18.1410542 20.9586209,17.400198 L23.9704217,15.1846226 C18.560069,9.23679409 11.9210409,6.94758558 5.61433447,7.45684706 C6.48934643,5.67977954 7.7476389,4.12772497 9.3961806,2.90640241 C16.2717101,-2.18909189 26.7670627,-0.535431836 34.4457391,7.48070584 L37.472784,5.25443514 Z M79.4057377,28.9321523 C79.8284843,28.8945751 80.1358563,28.6088134 80.3287344,28.0739934 L81.7136698,23.4939416 C81.9439786,22.8075019 81.8092282,22.4640635 81.3094184,22.4640635 L55.5800048,22.4640635 C55.3100635,22.4640635 55.0502505,22.3404083 54.8010062,22.0917869 C54.5504408,21.8444763 54.3395078,21.548228 54.166446,21.2047896 C53.9929437,20.8609143 53.8780095,20.4890746 53.8194415,20.0888335 C53.7621945,19.6877185 53.7912584,19.3158787 53.906633,18.9720035 L57.3106236,7.80982037 C57.4251175,7.46638203 57.6364908,7.09410535 57.9451839,6.69342729 C58.2521155,6.29274922 58.5986796,5.92090949 58.9831148,5.57747114 C59.3671096,5.23359586 59.7519851,4.94783418 60.137301,4.71843834 C60.5208554,4.48991639 60.8674196,4.375 61.1756723,4.375 L95.3283114,4.375 C95.4049342,4.375 95.443686,4.50914195 95.443686,4.77611501 C95.443686,5.15800447 95.3948059,5.63471087 95.2992476,6.20710811 C95.2028085,6.7790684 95.1164978,7.14216924 95.0394346,7.29466286 C95.0011232,7.44715647 94.9148124,7.69490398 94.7805023,8.03834232 C94.6448711,8.38265455 94.4920658,8.73570567 94.319004,9.09749568 C94.1459421,9.46059653 93.9816874,9.77563348 93.8284418,10.0421696 C93.6743154,10.3100166 93.5400053,10.4432846 93.4241904,10.4432846 L65.444532,10.4432846 C65.0209047,10.5197499 64.7135327,10.786286 64.5210949,11.2446407 L63.079353,15.9382981 C62.963538,16.2817364 62.9727856,16.5203081 63.1079764,16.6540131 C63.2418462,16.7881551 63.4056605,16.8541337 63.5980982,16.8541337 L89.3283925,16.8541337 C89.5970128,16.8541337 89.8568258,16.9690501 90.1073912,17.197572 C90.3570759,17.4269679 90.5688895,17.7122926 90.7419514,18.0566048 C90.9150133,18.4000432 91.0387547,18.7718829 91.1166986,19.172561 C91.1933215,19.573239 91.1748263,19.9455157 91.0590113,20.288954 L87.5405268,31.5656166 C87.4247119,31.9090549 87.2128982,32.2813316 86.9055262,32.6815727 C86.5972735,33.0826877 86.2608377,33.4545275 85.8957784,33.7979658 C85.5298384,34.1418411 85.1458436,34.4276028 84.7420325,34.6569986 C84.3382215,34.8855206 84.0013453,35 83.7322847,35 L49.5796456,35 C49.4647114,35 49.4061433,34.8671689 49.4061433,34.5993219 C49.4061433,34.2178694 49.4545831,33.7407261 49.5505818,33.1678919 C49.6461401,32.5963685 49.7328912,32.215353 49.8103948,32.0235344 C49.8487062,31.8710407 49.9345766,31.6224194 50.0702078,31.279418 C50.2045179,30.9359796 50.3582039,30.5925413 50.5312657,30.2491029 C50.7052083,29.9052276 50.8677016,29.6002404 51.0222683,29.3332673 C51.1750736,29.0667312 51.3102644,28.9321523 51.425639,28.9321523 L79.4057377,28.9321523 Z M132.206184,4.375 L138.690837,4.375 C138.881368,4.375 139.03467,4.48991639 139.149427,4.71843834 C139.264184,4.94783418 139.264184,5.21480725 139.149427,5.51979448 L130.484827,33.9124452 C130.407738,34.1794183 130.235603,34.4271658 129.96842,34.6565617 C129.699923,34.8850836 129.470847,35 129.279439,35 L95.023127,35 C94.7546304,35 94.4970839,34.8850836 94.2482975,34.6565617 C93.9995111,34.4271658 93.7897071,34.1418411 93.6171334,33.7975289 C93.4454357,33.4545275 93.3201665,33.0826877 93.2439538,32.6815727 C93.166865,32.2813316 93.1870132,31.908618 93.3017704,31.5656166 L101.277828,5.51979448 C101.392147,5.21480725 101.583555,4.94783418 101.851175,4.71843834 C102.118358,4.48991639 102.36802,4.375 102.597097,4.375 L109.023933,4.375 C109.215341,4.375 109.377402,4.48991639 109.51187,4.71843834 C109.645023,4.94783418 109.655097,5.21480725 109.54034,5.51979448 L102.654475,28.0158798 C102.501612,28.6271651 102.654475,28.9321523 103.113504,28.9321523 L123.771098,28.9321523 L130.943855,5.51979448 C131.058613,5.21480725 131.249582,4.94783418 131.518079,4.71843834 C131.784824,4.48991639 132.014338,4.375 132.206184,4.375 Z M172.001736,35 L165.628695,35 C165.436276,35 165.292948,34.8667319 165.197397,34.598885 C165.101845,34.3323489 165.015497,34.0837275 164.938793,33.8552055 L163.331068,28.187599 L147.023708,28.187599 L145.301146,33.8552055 C145.223565,34.1606297 145.051747,34.4271658 144.784377,34.6565617 C144.515693,34.8850836 144.26717,35 144.037495,35 L137.606597,35 C137.414178,35 137.252003,34.8850836 137.118318,34.6565617 C136.983318,34.4271658 136.954828,34.1606297 137.031971,33.8552055 L145.760496,5.46255475 C145.836762,5.19645558 146.019099,4.94739724 146.305755,4.71843834 C146.592848,4.48947945 146.83129,4.375 147.023708,4.375 L181.246592,4.375 C181.5144,4.375 181.782646,4.48947945 182.051331,4.71843834 C182.318262,4.94739724 182.52909,5.23315891 182.682937,5.57747114 C182.835031,5.92047254 182.940664,6.29231227 182.998959,6.69342729 C183.055939,7.09366841 183.027011,7.46638203 182.912173,7.80982037 L177.744487,24.7532156 C177.629211,25.0970908 177.418383,25.4689306 177.112442,25.8700456 C176.806063,26.2702867 176.461112,26.6430003 176.078467,26.9860017 C175.695821,27.3294401 175.303533,27.6156387 174.90204,27.8445976 C174.499671,28.0735565 174.164363,28.187599 173.897431,28.187599 L171.944756,28.187599 L173.207968,33.8552055 C173.130825,34.1606297 172.958569,34.4271658 172.691199,34.6565617 C172.422515,34.8850836 172.193278,35 172.001736,35 Z M173.264949,10.4428477 L152.478927,10.4428477 L148.918527,22.1206252 L169.647568,22.1206252 C170.106918,22.0441599 170.432145,21.7396096 170.624125,21.2043527 L173.667318,11.2442038 C173.782156,10.7482718 173.647156,10.4812988 173.264949,10.4428477 Z M225.152102,4.375 C225.343061,4.375 225.495565,4.48991639 225.610052,4.71843834 C225.724977,4.94783418 225.724977,5.21480725 225.610052,5.51979448 L201.624051,33.8552055 C201.432656,34.0841644 201.174403,34.3327858 200.851479,34.598885 C200.526369,34.8667319 200.268554,35 200.07847,35 L193.952515,35 C193.761557,35 193.589826,34.8667319 193.437322,34.598885 C193.28438,34.3327858 193.17033,34.0841644 193.093859,33.8552055 L186.395904,5.51979448 C186.510829,5.21480725 186.700913,4.94783418 186.968779,4.71843834 C187.235334,4.48991639 187.463872,4.375 187.655267,4.375 L194.067003,4.375 C194.257961,4.375 194.410465,4.50914195 194.524953,4.77611501 C194.639877,5.04308807 194.715911,5.29127252 194.754802,5.51979448 L199.62052,26.3563648 L217.252466,5.51979448 C217.44255,5.29127252 217.690315,5.04308807 217.996198,4.77611501 C218.301643,4.50914195 218.548971,4.375 218.740366,4.375 L225.152102,4.375 Z M274.111182,19.6012035 C274.149236,19.9455157 274.274904,20.5559271 274.487742,21.4333116 C274.699695,22.3115699 275.038643,23.7141616 275.502816,25.6406497 C275.966104,27.5680117 276.622761,30.3059057 277.473229,33.8552055 C277.395351,34.1606297 277.221452,34.4271658 276.951532,34.6565617 C276.680728,34.8850836 276.430278,35 276.19797,35 L269.705298,35 C269.511045,35 269.3575,34.8667319 269.241568,34.598885 C269.125193,34.3323489 269.02873,34.0841644 268.951736,33.8552055 L266.169352,22.4059499 L251.096779,22.4059499 L247.561276,33.8552055 C247.482955,34.1606297 247.309498,34.4271658 247.039579,34.6565617 C246.768332,34.8850836 246.517439,35 246.285574,35 L239.793345,35 C239.599092,35 239.43537,34.8850836 239.300853,34.6565617 C239.164123,34.4271658 239.135361,34.1606297 239.213239,33.8552055 L248.024564,5.46255475 C248.102,5.19645558 248.286076,4.94739724 248.575465,4.71843834 C248.865297,4.48991639 249.106012,4.375 249.300266,4.375 L255.792937,4.375 C256.024802,4.375 256.198701,4.48030361 256.314191,4.69003695 C256.430124,4.89977029 256.449151,5.15756752 256.3726,5.46255475 L252.835769,16.796457 L268.023832,16.796457 L277.763061,5.46255475 C277.955544,5.23315891 278.198029,4.99546113 278.488304,4.74683973 C278.77725,4.49952917 279.018408,4.375 279.212219,4.375 L285.70489,4.375 C285.937198,4.375 286.111097,4.48030361 286.226145,4.69003695 C286.34252,4.89977029 286.361989,5.15756752 286.284996,5.46255475 L274.111182,19.6012035 Z M319.514872,35 L283.576235,35 C283.38477,35 283.223399,34.8850836 283.090377,34.6565617 C282.956047,34.4271658 282.927698,34.1610666 283.004458,33.8552055 L291.689273,5.46255475 C291.765597,5.15800447 291.936999,4.90020724 292.203479,4.69003695 C292.469523,4.48030361 292.718122,4.375 292.946658,4.375 L328.886168,4.375 C328.96162,4.375 329,4.50914195 329,4.77611501 C329,5.15800447 328.951589,5.63427392 328.856947,6.20710811 C328.761433,6.7790684 328.675513,7.14216924 328.600498,7.29466286 C328.562118,7.44715647 328.475762,7.69490398 328.34274,8.03834232 C328.209282,8.38265455 328.05707,8.73570567 327.885668,9.09749568 C327.714265,9.46059653 327.551586,9.77563348 327.400246,10.0417327 C327.247162,10.3100166 327.11414,10.4428477 326.999871,10.4428477 L298.374395,10.4428477 L296.4314,16.8541337 L310.508188,16.8541337 C310.584076,16.8541337 310.602394,17.1787834 310.565758,17.827209 C310.527378,18.4769454 310.431428,19.0484687 310.279652,19.5444007 C310.202891,19.7357824 310.098654,20.0023185 309.965632,20.3457568 C309.831302,20.6891952 309.69828,21.0138449 309.565258,21.3183952 C309.4318,21.6251302 309.298778,21.8912294 309.165755,22.1206252 C309.031425,22.3491472 308.908434,22.4640635 308.79373,22.4640635 L294.717378,22.4640635 L292.718122,28.9321523 L321.343599,28.9321523 C321.457867,28.9321523 321.514565,29.0667312 321.514565,29.3332673 C321.514565,29.7151568 321.457867,30.201476 321.343599,30.7926618 C321.229331,31.3847216 321.133816,31.7941385 321.057928,32.0235344 C321.019112,32.1380138 320.934065,32.3582338 320.801043,32.6815727 C320.666713,33.0062224 320.523659,33.3396111 320.37232,33.6834864 C320.219671,34.0269247 320.066587,34.3327858 319.915247,34.5993219 C319.762163,34.8667319 319.629577,35 319.514872,35 Z M231.141621,34.6565617 C230.876504,34.8850836 230.631282,35 230.404657,35 L224.059156,35 C223.869293,35 223.709272,34.8850836 223.577362,34.6565617 C223.444155,34.4271658 223.416043,34.1606297 223.492161,33.8552055 L232.104777,5.46255475 C232.180031,5.19645558 232.359514,4.94739724 232.642363,4.71843834 C232.925644,4.48947945 233.161351,4.375 233.351215,4.375 L239.696715,4.375 C239.923773,4.375 240.093742,4.48030361 240.206622,4.68960001 C240.292255,4.84821085 240.306095,5.04308807 240.28447,5.25544308 L231.62947,33.906328 C231.547297,34.1890311 231.389438,34.4407111 231.141621,34.6565617 Z" id="Combined-Shape" fill="#EAD82F"></path>
                </g>
            </g>
        </g>
    </g>
</svg>