<?xml version="1.0" encoding="utf-8"?>
<!-- Generator: Adobe Illustrator 16.0.0, SVG Export Plug-In . SVG Version: 6.00 Build 0)  -->
<!DOCTYPE svg PUBLIC "-//W3C//DTD SVG 1.1//EN" "http://www.w3.org/Graphics/SVG/1.1/DTD/svg11.dtd">
<svg version="1.1" id="Capa_1" xmlns="http://www.w3.org/2000/svg" xmlns:xlink="http://www.w3.org/1999/xlink" x="0px" y="0px"
	 width="50.09px" height="30px" viewBox="2.955 0 50.09 30" enable-background="new 2.955 0 50.09 30" xml:space="preserve">
<g>
	<g>
		<path fill="#FFF" d="M38.045,30c-0.248,0-0.495-0.095-0.685-0.283c-0.378-0.379-0.378-0.991,0-1.369L50.708,15L37.36,1.652
			c-0.378-0.378-0.378-0.991,0-1.369c0.378-0.378,0.99-0.378,1.369,0l14.031,14.031c0.182,0.182,0.284,0.428,0.284,0.685
			s-0.103,0.503-0.284,0.685L38.729,29.717C38.54,29.905,38.292,30,38.045,30z"/>
	</g>
	<g>
		<path fill="#FFF" d="M51.108,15.968H3.923c-0.535,0-0.968-0.433-0.968-0.968c0-0.535,0.434-0.968,0.968-0.968h47.185
			c0.535,0,0.969,0.433,0.969,0.968C52.077,15.535,51.644,15.968,51.108,15.968z"/>
	</g>
</g>
</svg>
