<?xml version="1.0" encoding="utf-8"?>
<!-- Generator: Adobe Illustrator 16.0.0, SVG Export Plug-In . SVG Version: 6.00 Build 0)  -->
<!DOCTYPE svg PUBLIC "-//W3C//DTD SVG 1.1//EN" "http://www.w3.org/Graphics/SVG/1.1/DTD/svg11.dtd">
<svg version="1.1" id="Layer_1" xmlns="http://www.w3.org/2000/svg" xmlns:xlink="http://www.w3.org/1999/xlink" x="0px" y="0px"
	 width="300px" height="122.006px" viewBox="0 0 300 122.006" enable-background="new 0 0 300 122.006" xml:space="preserve">
<g>
	<path fill="#FF6300" d="M52.855,66.077l2.839-10.287l2.633,10.287H52.855z M50.549,41.357L38.093,79.807h11.483l1.508-5.49h9.156
		l1.421,5.49h11.383L60.735,41.357H50.549z M99.265,61.336c0,3.903-0.161,8.949-5.753,8.949c-5.739,0-5.948-5.086-5.948-8.989
		l-0.038-19.938H75.953v22.771c0,10.592,5.804,15.679,17.51,15.679c11.703,0,17.447-5.087,17.447-15.679V41.357H99.296
		L99.265,61.336z M113.83,51.166h11.582v28.641h11.822V51.166h11.546v-9.809h-34.95V51.166z M169.069,58.159h-5.969v-7.644h5.344
		c4.357,0,5.649,1.397,5.649,3.818C174.094,57.778,171.195,58.159,169.069,58.159 M179.953,61.991
		c3.788-1.461,5.554-5.664,5.554-9.647c0-7.268-5.604-10.986-12.082-10.986H151.69v38.449h11.41V66.391h6.07
		c4.517,0,4.82,3.832,5.135,7.496c0.152,1.98,0.355,3.983,0.932,5.92h11.403c-1.03-1.779-1.082-6.358-1.239-8.241
		C184.987,66.78,183.064,63.218,179.953,61.991 M201.346,65.162h18.984v-9.157h-18.984v-4.799h23.158v-9.849h-34.943v38.449h34.948
		v-9.857h-23.163V65.162z M245.508,70.656c-5.235,0-6.907-5.139-6.907-10.072c0-4.938,1.672-10.072,6.907-10.072
		c4.619,0,5.639,4.059,5.845,5.395h10.867c-0.962-9.204-6.451-14.491-16.41-14.549c-11.17,0-18.388,7.662-18.388,19.227
		c0,10.848,6.655,19.223,18.388,19.223c10.62,0,16.563-7.868,16.563-15.267h-10.975C250.736,67.981,249.271,70.656,245.508,70.656
		 M12.021,41.357H0.237v38.449h34.946v-9.857H12.021V41.357z"/>
	<path fill="#00B7FC" d="M168.931,11.363c3.445,0,6.248,3.522,6.248,7.863c0,4.338-2.803,7.859-6.248,7.859
		c-3.452,0-6.25-3.521-6.25-7.859C162.681,14.886,165.479,11.363,168.931,11.363 M168.931,38.444
		c9.651,0,17.475-8.603,17.475-19.218C186.405,8.608,178.582,0,168.931,0c-9.654,0-17.484,8.608-17.484,19.227
		C151.446,29.842,159.276,38.444,168.931,38.444 M206.819,38.444c11.7,0,17.45-5.085,17.45-15.674V0h-11.613l-0.028,19.979
		c0,3.902-0.171,8.939-5.757,8.939c-5.74,0-5.949-5.076-5.949-8.979L200.887,0h-11.572v22.771
		C189.314,33.359,195.118,38.444,206.819,38.444 M93.216,38.444c11.712,0,17.455-5.085,17.455-15.674V0H99.06L99.03,19.979
		c0,3.902-0.17,8.939-5.754,8.939c-5.744,0-5.953-5.076-5.953-8.979L87.285,0H75.717v22.771
		C75.717,33.359,81.519,38.444,93.216,38.444 M148.537,28.645h-23.156V0H113.59v38.444h34.947V28.645z M11.582,38.444h11.824V9.809
		h11.541V0H0v9.809h11.582V38.444z M55.336,11.363c3.451,0,6.246,3.522,6.246,7.863c0,4.338-2.795,7.859-6.246,7.859
		c-3.454,0-6.255-3.521-6.255-7.859C49.081,14.886,51.882,11.363,55.336,11.363 M55.336,38.444c9.646,0,17.47-8.603,17.47-19.218
		C72.806,8.608,64.981,0,55.336,0c-9.653,0-17.481,8.608-17.481,19.227C37.854,29.842,45.683,38.444,55.336,38.444 M276.832,28.592
		v-4.789h18.984v-9.16h-18.984v-4.79H300V0h-34.952v38.444H300v-9.853H276.832z M251.221,15.208
		c-5.478-1.429-11.011-1.994-11.229-4.615c0-2.061,2.658-2.47,4.292-2.47c1.187,0,2.55,0.257,3.524,0.924
		c0.975,0.618,1.626,1.546,1.408,2.931h11.287C260.184,3.033,252.744,0,244.331,0c-7.979,0-15.628,3.648-15.628,12.134
		c0,7.397,6.999,8.992,13.143,10.633c6.664,1.806,8.349,2.317,8.349,4.221c0,2.72-2.983,3.343-4.938,3.343
		c-2.228,0-4.835-0.47-5.704-2.675c-0.258-0.668-0.431-1.488-0.431-2.415h-11.938c0.11,11.717,12.649,13.204,17.04,13.204
		c8.628,0,17.912-3.082,17.912-12.645C262.136,19.066,256.709,16.655,251.221,15.208"/>
	<g>
		<path fill="#00B7FC" d="M181.404,99.755h-6.1l-5.283-17.709h5.509l2.899,10.736h0.05l2.854-10.736h5.604L181.404,99.755z"/>
		<path fill="#00B7FC" d="M187.935,82.046h5.456v17.709h-5.456V82.046z"/>
		<path fill="#00B7FC" d="M205.739,99.755h-6.1l-5.279-17.709h5.505l2.904,10.736h0.045l2.854-10.736h5.603L205.739,99.755z"/>
		<path fill="#00B7FC" d="M212.268,82.046h14.659v4.54h-9.201v2.209h8.356v4.211h-8.356v2.205h9.472v4.544h-14.93V82.046z"/>
		<path fill="#00B7FC" d="M183.021,110.473c-0.1-0.646-0.594-2.604-2.854-2.604c-2.556,0-3.374,2.477-3.374,4.86
			c0,2.38,0.818,4.857,3.374,4.857c1.837,0,2.553-1.285,2.88-2.948h5.356c0,3.571-2.903,7.367-8.085,7.367
			c-5.729,0-8.982-4.042-8.982-9.276c0-5.583,3.524-9.274,8.982-9.274c4.859,0.022,7.538,2.577,8.008,7.018H183.021z"/>
		<path fill="#00B7FC" d="M190.686,103.871h10.393c3.1,0,5.777,1.717,5.777,5.063c0,1.838-0.84,3.769-2.655,4.44
			c1.489,0.57,2.409,2.205,2.605,4.414c0.076,0.87,0.101,2.975,0.595,3.79h-5.454c-0.273-0.892-0.374-1.806-0.448-2.724
			c-0.145-1.685-0.297-3.445-2.453-3.445h-2.902v6.169h-5.457V103.871z M196.143,111.614h2.852c1.018,0,2.404-0.175,2.404-1.761
			c0-1.121-0.617-1.761-2.703-1.761h-2.553V111.614z"/>
		<path fill="#00B7FC" d="M209.071,103.871h14.654v4.544h-9.202v2.21h8.361v4.211h-8.361v2.209h9.473v4.534h-14.925V103.871z"/>
		<path fill="#00B7FC" d="M231.442,103.871h5.333l6.445,17.708h-5.655l-0.743-2.527h-5.629l-0.794,2.527h-5.483L231.442,103.871z
			 M235.73,115.263l-1.586-5.459h-0.047l-1.714,5.459H235.73z"/>
		<path fill="#00B7FC" d="M244.464,103.871h5.583l5.159,9.478h0.05v-9.478h5.154v17.708h-5.305l-5.43-9.669h-0.052v9.669h-5.16
			V103.871z"/>
		<path fill="#00B7FC" d="M263.267,103.871h8.955c5.903,0,7.984,4.369,7.984,8.832c0,5.431-2.878,8.876-9.053,8.876h-7.887V103.871z
			 M268.724,117.045h2.132c3.401,0,3.897-2.756,3.897-4.418c0-1.111-0.35-4.212-4.292-4.212h-1.737V117.045z"/>
		<path fill="#00B7FC" d="M291.022,103.455c5.383,0,8.978,3.867,8.978,9.274c0,5.404-3.595,9.276-8.978,9.276
			c-5.381,0-8.978-3.872-8.978-9.276C282.045,107.322,285.642,103.455,291.022,103.455z M291.022,117.587
			c1.392,0,3.524-0.913,3.524-4.857c0-3.941-2.133-4.86-3.524-4.86c-1.387,0-3.519,0.919-3.519,4.86
			C287.504,116.674,289.636,117.587,291.022,117.587z"/>
	</g>
</g>
</svg>
