<?xml version="1.0" encoding="UTF-8"?>
<svg width="16px" height="16px" viewBox="0 0 16 16" version="1.1" xmlns="http://www.w3.org/2000/svg" xmlns:xlink="http://www.w3.org/1999/xlink">
    <!-- Generator: Sketch 47.1 (45422) - http://www.bohemiancoding.com/sketch -->
    <title>Foundation / Icons / Simple / Joystick</title>
    <desc>Created with Sketch.</desc>
    <defs>
        <path d="M10.2595067,2.7672148 C10.2595067,3.11151251 10.199127,3.4391043 10.0783659,3.75 C9.95760474,4.0608957 9.79059716,4.33838521 9.57733813,4.58247688 C9.3640791,4.82656854 9.11356773,5.02826231 8.82579651,5.18756423 C8.53802528,5.34686616 8.22713425,5.4522094 7.89311408,5.50359712 L7.89311408,9.08016444 C7.89311408,9.18807865 7.85457387,9.28057515 7.77749229,9.35765673 C7.70041071,9.43473831 7.60791421,9.47327852 7.5,9.47327852 C7.39208579,9.47327852 7.29958929,9.43473831 7.22250771,9.35765673 C7.14542613,9.28057515 7.10688592,9.18807865 7.10688592,9.08016444 L7.10688592,5.50359712 C6.77286575,5.4522094 6.46069004,5.34686616 6.17034943,5.18756423 C5.88000883,5.02826231 5.62949746,4.82656854 5.41880781,4.58247688 C5.20811817,4.33838521 5.04111059,4.0608957 4.91778006,3.75 C4.79444954,3.4391043 4.7327852,3.11151251 4.7327852,2.7672148 C4.7327852,2.38694568 4.8060116,2.02852172 4.9524666,1.69193217 C5.0989216,1.35534261 5.29676134,1.06243701 5.54599178,0.813206578 C5.79522221,0.563976143 6.08812781,0.366136395 6.42471737,0.219681398 C6.76130692,0.0732264003 7.11973088,0 7.5,0 C7.88026912,0 8.2374084,0.0732264003 8.57142857,0.219681398 C8.90544874,0.366136395 9.19835434,0.563976143 9.45015416,0.813206578 C9.70195398,1.06243701 9.89979373,1.35534261 10.0436793,1.69193217 C10.187565,2.02852172 10.2595067,2.38694568 10.2595067,2.7672148 Z M7.5,4.74049332 C7.77235491,4.74049332 8.02800497,4.68910637 8.26695786,4.58633094 C8.50591075,4.4835555 8.71531256,4.34224139 8.89516958,4.16238438 C9.07502659,3.98252736 9.2163407,3.77312555 9.31911614,3.53417266 C9.42189157,3.29521977 9.47327852,3.03956971 9.47327852,2.7672148 C9.47327852,2.49485989 9.42189157,2.23920983 9.31911614,2.00025694 C9.2163407,1.76130405 9.07502659,1.55190224 8.89516958,1.37204522 C8.71531256,1.19218821 8.50591075,1.0508741 8.26695786,0.948098664 C8.02800497,0.845323227 7.77235491,0.79393628 7.5,0.79393628 C7.22764509,0.79393628 6.97199503,0.845323227 6.73304214,0.948098664 C6.49408925,1.0508741 6.28468744,1.19218821 6.10483042,1.37204522 C5.92497341,1.55190224 5.7836593,1.76130405 5.68088386,2.00025694 C5.57810843,2.23920983 5.52672148,2.49485989 5.52672148,2.7672148 C5.52672148,3.03956971 5.57810843,3.29521977 5.68088386,3.53417266 C5.7836593,3.77312555 5.92497341,3.98252736 6.10483042,4.16238438 C6.28468744,4.34224139 6.49408925,4.4835555 6.73304214,4.58633094 C6.97199503,4.68910637 7.22764509,4.74049332 7.5,4.74049332 Z M7.10688592,1.97327852 C7.10688592,2.0863315 7.06834571,2.18139735 6.99126413,2.25847893 C6.91418255,2.33556051 6.8191167,2.37410072 6.70606372,2.37410072 C6.59814951,2.37410072 6.50565301,2.33556051 6.42857143,2.25847893 C6.35148985,2.18139735 6.31294964,2.0863315 6.31294964,1.97327852 C6.31294964,1.86536431 6.35148985,1.77286781 6.42857143,1.69578623 C6.50565301,1.61870465 6.59814951,1.58016444 6.70606372,1.58016444 C6.8191167,1.58016444 6.91418255,1.61870465 6.99126413,1.69578623 C7.06834571,1.77286781 7.10688592,1.86536431 7.10688592,1.97327852 Z M7.5,11.053443 C7.24820018,11.053443 7.00539685,11.0161874 6.77158273,10.9416752 C6.53776862,10.867163 6.3283668,10.7631045 6.14337102,10.6294964 C5.94809769,10.480472 5.79650619,10.3057564 5.68859198,10.1053443 C5.58067777,9.90493219 5.52672148,9.69424571 5.52672148,9.47327852 C5.52672148,9.26772765 5.57296973,9.07117257 5.66546763,8.8836074 C5.75796552,8.69604223 5.89157158,8.53031932 6.06628983,8.38643371 C6.15364895,8.3144909 6.25128415,8.28365874 6.35919836,8.29393628 C6.46711256,8.30421382 6.55447038,8.35046208 6.62127441,8.43268243 C6.69321721,8.51490277 6.72404938,8.60996863 6.71377184,8.71788284 C6.7034943,8.82579705 6.65724604,8.9157242 6.57502569,8.98766701 C6.51336043,9.03905473 6.45426544,9.10585776 6.39773895,9.18807811 C6.34121246,9.27029846 6.31294964,9.36536431 6.31294964,9.47327852 C6.31294964,9.68910694 6.42985495,9.87538462 6.66366906,10.0321172 C6.89748318,10.1888497 7.17625737,10.2672148 7.5,10.2672148 C7.81860385,10.2672148 8.0948087,10.1888497 8.32862282,10.0321172 C8.56243693,9.87538462 8.67934224,9.68910694 8.67934224,9.47327852 C8.67934224,9.36536431 8.65107942,9.27029846 8.59455293,9.18807811 C8.53802644,9.10585776 8.4815008,9.03905473 8.42497431,8.98766701 C8.33761518,8.9157242 8.29008226,8.82579705 8.2823741,8.71788284 C8.27466594,8.60996863 8.30421344,8.51490277 8.37101747,8.43268243 C8.44296028,8.35046208 8.53288744,8.30421382 8.64080164,8.29393628 C8.74871585,8.28365874 8.84378171,8.3144909 8.92600206,8.38643371 C9.1007203,8.53031932 9.23561104,8.69604223 9.33067831,8.8836074 C9.42574559,9.07117257 9.47327852,9.26772765 9.47327852,9.47327852 C9.47327852,9.69424571 9.41932223,9.90493219 9.31140802,10.1053443 C9.20349381,10.3057564 9.04933297,10.480472 8.84892086,10.6294964 C8.66906385,10.7631045 8.46223138,10.867163 8.22841727,10.9416752 C7.99460315,11.0161874 7.75179982,11.053443 7.5,11.053443 Z M13.7204522,11.508222 C13.8489215,11.4311404 13.9619728,11.3065271 14.0596095,11.1343782 C14.1572461,10.9622294 14.2060637,10.8042145 14.2060637,10.6603289 L14.2060637,10.3597122 L8.37872559,13.5817061 C8.25539507,13.6536489 8.11665031,13.7063205 7.96248715,13.7397225 C7.808324,13.7731245 7.65416316,13.7898253 7.5,13.7898253 C7.34069807,13.7898253 7.18525256,13.7731245 7.03365879,13.7397225 C6.88206502,13.7063205 6.74203559,13.6536489 6.61356629,13.5817061 L0.78622816,10.3597122 L0.78622816,10.6603289 C0.78622816,10.8042145 0.836330434,10.9622294 0.936536485,11.1343782 C1.03674254,11.3065271 1.14850915,11.4311404 1.27183967,11.508222 L7.01438849,14.8535457 C7.14285779,14.9254885 7.30472667,14.9614594 7.5,14.9614594 C7.69527333,14.9614594 7.85457287,14.9254885 7.97790339,14.8535457 L13.7204522,11.508222 Z M14.0750257,8.77183967 C14.3319643,8.90030897 14.5503588,9.1084261 14.7302158,9.39619733 C14.9100728,9.68396855 15,9.9743048 15,10.2672148 L15,10.6603289 C15,10.9481001 14.9152115,11.2384364 14.7456321,11.5313464 C14.5760526,11.8242563 14.3679355,12.0426509 14.1212744,12.1865365 L8.37872559,15.5318602 C8.25539507,15.603803 8.11793498,15.6577593 7.96634121,15.6937307 C7.81474744,15.7297021 7.65930193,15.7476876 7.5,15.7476876 C7.34069807,15.7476876 7.18525256,15.7297021 7.03365879,15.6937307 C6.88206502,15.6577593 6.74460493,15.603803 6.62127441,15.5318602 L0.878725591,12.1865365 C0.626925771,12.0426509 0.417523959,11.8242563 0.250513875,11.5313464 C0.0835037898,11.2384364 0,10.9481001 0,10.6603289 L0,10.2672148 C0,9.9743048 0.0886424846,9.68396855 0.265930113,9.39619733 C0.443217742,9.1084261 0.662896942,8.90030897 0.924974306,8.77183967 L5.74254882,6.35919836 C5.84018548,6.31294941 5.94039003,6.30652604 6.04316547,6.33992806 C6.1459409,6.37333007 6.22302133,6.43884843 6.27440904,6.5364851 C6.32065799,6.63412176 6.32708136,6.73432631 6.29367934,6.83710175 C6.26027733,6.93987718 6.19475897,7.01695761 6.0971223,7.06834532 L1.27954779,9.47327852 C1.24357639,9.48869484 1.2088902,9.50924961 1.17548818,9.53494347 C1.14208616,9.56063733 1.11253867,9.58890015 1.08684481,9.61973279 L6.99897225,12.8879753 C7.12744155,12.9650569 7.29316445,13.0035971 7.49614594,13.0035971 C7.69912743,13.0035971 7.86741968,12.9650569 8.00102775,12.8879753 L13.9131552,9.61973279 C13.8823226,9.58890015 13.8502057,9.56063733 13.8168037,9.53494347 C13.7834017,9.50924961 13.7512848,9.48869484 13.7204522,9.47327852 L8.9028777,7.06834532 C8.80524103,7.01695761 8.738438,6.93987718 8.7024666,6.83710175 C8.6664952,6.73432631 8.67420324,6.63412176 8.72559096,6.5364851 C8.7718399,6.43884843 8.84763565,6.37333007 8.95298047,6.33992806 C9.0583253,6.30652604 9.15724517,6.31294941 9.24974306,6.35919836 L14.0750257,8.77183967 Z" id="path-1"></path>
    </defs>
    <g id="Symbols" stroke="none" stroke-width="1" fill="none" fill-rule="evenodd">
        <g id="Foundation-/-Icons-/-Simple-/-Joystick">
            <g id="Foundation-/-Colors-/-Neutral-/-N001">
                <g>
                    <mask id="mask-2" fill="white">
                        <use xlink:href="#path-1"></use>
                    </mask>
                    <use id="Mask" fill="#252A32" xlink:href="#path-1"></use>
                </g>
            </g>
        </g>
    </g>
</svg>