<?xml version="1.0" encoding="UTF-8"?>
<svg width="16px" height="16px" viewBox="0 0 16 16" version="1.1" xmlns="http://www.w3.org/2000/svg" xmlns:xlink="http://www.w3.org/1999/xlink">
    <!-- Generator: Sketch 47.1 (45422) - http://www.bohemiancoding.com/sketch -->
    <title>Foundation / Icons / Simple / Letter</title>
    <desc>Created with Sketch.</desc>
    <defs>
        <path d="M14.1812946,0 C14.5189462,0 14.8064733,0.118703846 15.0438845,0.356115099 C15.2812958,0.593526352 15.3999996,0.878415583 15.3999996,1.21079134 L15.3999996,8.50719403 C15.3999996,8.84484559 15.2812958,9.13237269 15.0438845,9.36978394 C14.8064733,9.60719519 14.5189462,9.72589904 14.1812946,9.72589904 L1.21870501,9.72589904 C0.881053446,9.72589904 0.593526352,9.60719519 0.356115099,9.36978394 C0.118703846,9.13237269 0,8.84484559 0,8.50719403 L0,1.21079134 C0,0.878415583 0.118703846,0.593526352 0.356115099,0.356115099 C0.593526352,0.118703846 0.881053446,0 1.21870501,0 L14.1812946,0 Z M14.1812946,0.807194225 L1.21870501,0.807194225 C1.20287759,0.807194225 1.18968827,0.808513156 1.17913666,0.811151059 C1.16858505,0.813788962 1.1580336,0.815107893 1.14748199,0.815107893 L7.24892068,4.88273369 C7.36498841,4.96187078 7.51402768,5.00143873 7.69604297,5.00143873 C7.87805827,5.00143873 8.02973541,4.96187078 8.15107893,4.88273369 L14.2525176,0.815107893 C14.241966,0.815107893 14.2300956,0.813788962 14.2169061,0.811151059 C14.2037166,0.808513156 14.1918462,0.807194225 14.1812946,0.807194225 Z M14.1812946,8.91079115 C14.2920865,8.91079115 14.3870496,8.8712232 14.4661867,8.79208611 C14.5453238,8.71294903 14.5848917,8.61798595 14.5848917,8.50719403 L14.5848917,1.56690644 L8.59424439,5.55539555 C8.47290086,5.63980844 8.33309411,5.70311715 8.17481994,5.7453236 C8.01654577,5.78753004 7.85827398,5.80863295 7.69999981,5.80863295 C7.53644983,5.80863295 7.37685911,5.78753004 7.22122284,5.7453236 C7.06558658,5.70311715 6.92446089,5.63980844 6.79784156,5.55539555 L0.807194225,1.56690644 L0.807194225,8.50719403 C0.807194225,8.61798595 0.846762173,8.71294903 0.925899258,8.79208611 C1.00503634,8.8712232 1.10263728,8.91079115 1.21870501,8.91079115 L14.1812946,8.91079115 Z" id="path-1"></path>
    </defs>
    <g id="Symbols" stroke="none" stroke-width="1" fill="none" fill-rule="evenodd">
        <g id="Foundation-/-Icons-/-Simple-/-Letter">
            <g transform="translate(0.000000, 3.000000)" id="Foundation-/-Colors-/-Neutral-/-N001">
                <g>
                    <mask id="mask-2" fill="white">
                        <use xlink:href="#path-1"></use>
                    </mask>
                    <use id="Mask" fill="#252A32" xlink:href="#path-1"></use>
                </g>
            </g>
        </g>
    </g>
</svg>