<?xml version="1.0" encoding="utf-8"?>
<!-- Generator: Adobe Illustrator 22.0.0, SVG Export Plug-In . SVG Version: 6.00 Build 0)  -->
<svg version="1.1" id="Layer_1" xmlns="http://www.w3.org/2000/svg" xmlns:xlink="http://www.w3.org/1999/xlink" x="0px" y="0px"
	 viewBox="0 0 16 16" style="enable-background:new 0 0 16 16;" xml:space="preserve">
<style type="text/css">
	.st0{fill:#252A32;}
</style>
<title>Foundation / Icons / Simple / Medal</title>
<desc>Created with Sketch.</desc>
<g id="Symbols">
	<g id="Foundation-_x2F_-Icons-_x2F_-Simple-_x2F_-Medal">
		<g id="Page-1" transform="translate(2.000000, 0.000000)">
			<path id="Combined-Shape" class="st0" d="M10.1,4.5C10,4.4,9.9,4.3,9.9,4.2L9.8,2.6L8.1,2.5c-0.1,0-0.2,0-0.3-0.1L6.6,1.3l-1.3,1
				C5.2,2.4,5.1,2.5,5,2.5L3.4,2.6L3.2,4.2c0,0.1,0,0.2-0.1,0.3l-1,1.2l1.1,1.2c0,0.1,0,0.2,0,0.3l0.1,1.6L5,8.9
				c0.1,0,0.2,0,0.3,0.1l1.3,1.1L7.9,9c0,0,0.1-0.1,0.2-0.1l1.7-0.1l0.1-1.6c0-0.1,0-0.2,0.1-0.3l1.1-1.2L10.1,4.5z M9.5,9.8v5.8
				c0,0.4-0.4,0.6-0.8,0.4l-2.1-1.2l-2.3,1.3C4,16.2,3.6,16,3.6,15.6V9.8H2.9c-0.2,0-0.4-0.2-0.5-0.5L2.3,7.4L1,6
				C0.8,5.8,0.8,5.5,1,5.4L2.2,4l0.2-1.9c0-0.2,0.2-0.4,0.5-0.5l1.9-0.1l1.5-1.2c0.3-0.2,0.4-0.2,0.6,0l1.5,1.2l1.9,0.1
				c0.2,0,0.4,0.2,0.5,0.5L11,4l1.2,1.4c0.2,0.2,0.2,0.5,0,0.7L11,7.5l-0.2,1.9c0,0.2-0.2,0.5-0.5,0.5L9.5,9.8z M8.5,9.9H8.3
				l-1.5,1.2c-0.2,0.2-0.4,0.2-0.6,0L4.8,9.9H4.6v4.9l1.8-1c0.2-0.1,0.3-0.1,0.5,0l1.6,1C8.5,14.8,8.5,9.9,8.5,9.9z"/>
			<path id="Combined-Shape_1_" class="st0" d="M7.4,3.6C7.2,3.5,7.1,3.5,7,3.5H6C5.7,3.5,5.5,3.7,5.5,4S5.7,4.5,6,4.5h0.5V8
				c0,0.3,0.2,0.5,0.5,0.5S7.5,8.3,7.5,8V4C7.5,3.9,7.5,3.7,7.4,3.6z"/>
		</g>
	</g>
</g>
</svg>
