<?xml version="1.0" encoding="utf-8"?>
<!-- Generator: Adobe Illustrator 22.0.0, SVG Export Plug-In . SVG Version: 6.00 Build 0)  -->
<svg version="1.1" id="Layer_1" xmlns="http://www.w3.org/2000/svg" xmlns:xlink="http://www.w3.org/1999/xlink" x="0px" y="0px"
	 viewBox="0 0 16 16" style="enable-background:new 0 0 16 16;" xml:space="preserve">
<style type="text/css">
	.st0{fill:#010202;}
</style>
<title>menu</title>
<desc>Created with Sketch.</desc>
<g>
	<path class="st0" d="M1,2.5h14c0.3,0,0.5-0.2,0.5-0.5S15.3,1.5,15,1.5H1C0.7,1.5,0.5,1.7,0.5,2S0.7,2.5,1,2.5z"/>
	<path class="st0" d="M15,11.5H1c-0.3,0-0.5,0.2-0.5,0.5s0.2,0.5,0.5,0.5h14c0.3,0,0.5-0.2,0.5-0.5S15.3,11.5,15,11.5z"/>
	<path class="st0" d="M1,7.5h10c0.3,0,0.5-0.2,0.5-0.5S11.3,6.5,11,6.5H1C0.7,6.5,0.5,6.7,0.5,7S0.7,7.5,1,7.5z"/>
</g>
</svg>
