<?xml version="1.0" encoding="UTF-8"?>
<svg width="16px" height="16px" viewBox="0 0 16 16" version="1.1" xmlns="http://www.w3.org/2000/svg" xmlns:xlink="http://www.w3.org/1999/xlink">
    <!-- Generator: Sketch 47.1 (45422) - http://www.bohemiancoding.com/sketch -->
    <title>Foundation / Icons / Simple / Paper plane</title>
    <desc>Created with Sketch.</desc>
    <defs>
        <path d="M15.8671939,0.103395743 C15.9244831,0.155476794 15.9635433,0.217973117 15.9843757,0.290886587 C16.0052081,0.363800058 16.0052081,0.436712435 15.9843757,0.509625906 L11.984571,14.1105242 C11.9637386,14.1782296 11.9285844,14.2368199 11.8791074,14.2862969 C11.8296304,14.3357739 11.7710401,14.3683241 11.7033347,14.3839484 C11.6825023,14.3891565 11.6642742,14.3930625 11.6486499,14.3956665 C11.6330256,14.3982706 11.6174015,14.3995726 11.6017772,14.3995726 C11.5496962,14.3995726 11.4989179,14.3891566 11.4494409,14.3683241 C11.3999639,14.3474917 11.3569977,14.3188476 11.3205409,14.2823908 L7.71915431,10.7278769 L5.50832477,13.4543063 C5.47186803,13.5011792 5.4262978,13.5376354 5.3716127,13.5636759 C5.31692759,13.5897165 5.2609413,13.6027365 5.20365215,13.6027365 C5.17761162,13.6027365 5.1541755,13.6001325 5.13334308,13.5949244 C5.11251066,13.5897163 5.08907454,13.5845083 5.06303402,13.5793002 C4.98491244,13.5480515 4.92111411,13.4985753 4.87163711,13.4308699 C4.82216011,13.3631645 4.79742199,13.2850441 4.79742199,13.1965064 L4.79742199,8.68891398 L0.274205372,7.18117511 C0.196083797,7.15513458 0.132285467,7.10826234 0.0828084688,7.04055698 C0.0333314709,6.97285161 0.00598932955,6.89733522 0.000781224506,6.81400554 C-0.00442688054,6.73067586 0.0164052272,6.65385746 0.0632781725,6.58354804 C0.110151118,6.51323862 0.170043428,6.46246036 0.242956898,6.43121173 L15.4453395,0.0330866768 C15.518253,0.00183804653 15.5924674,-0.00727600058 15.6679849,0.00574426203 C15.7435024,0.0187645246 15.8099048,0.0513146929 15.8671939,0.103395743 Z M12.906401,1.97049207 L1.53195645,6.75932071 L5.12553096,7.95457484 L12.906401,1.97049207 Z M5.60207019,8.59516856 L5.60207019,12.0715613 L7.37542109,9.88416811 L13.1329524,2.80638875 L5.60207019,8.59516856 Z M11.4064742,13.2433791 L14.6563155,2.1970435 L8.22694201,10.1107195 L11.4064742,13.2433791 Z" id="path-1"></path>
    </defs>
    <g id="Symbols" stroke="none" stroke-width="1" fill="none" fill-rule="evenodd">
        <g id="Foundation-/-Icons-/-Simple-/-Paper-plane">
            <g transform="translate(0.000000, 1.000000)" id="Foundation-/-Colors-/-Neutral-/-N001">
                <g>
                    <mask id="mask-2" fill="white">
                        <use xlink:href="#path-1"></use>
                    </mask>
                    <use id="Mask" fill="#252A32" xlink:href="#path-1"></use>
                </g>
            </g>
        </g>
    </g>
</svg>