<?xml version="1.0" encoding="UTF-8"?>
<svg width="16px" height="16px" viewBox="0 0 16 16" version="1.1" xmlns="http://www.w3.org/2000/svg" xmlns:xlink="http://www.w3.org/1999/xlink">
    <!-- Generator: Sketch 47.1 (45422) - http://www.bohemiancoding.com/sketch -->
    <title>Foundation / Icons / Simple / Phone</title>
    <desc>Created with Sketch.</desc>
    <defs>
        <path d="M11.9934654,15.5949789 C11.6614918,15.5949789 11.3246412,15.5717899 10.9829037,15.5254113 C10.6411661,15.4790326 10.2945517,15.4094656 9.94305023,15.3167083 C9.59154873,15.223951 9.23761155,15.108006 8.88122807,14.96887 C8.5248446,14.829734 8.16358458,14.6674111 7.79743717,14.4818964 C7.46058156,14.3110276 7.12617195,14.1218543 6.7941983,13.9143708 C6.46222466,13.7068872 6.13513788,13.4835407 5.81292817,13.2443244 C5.49071845,13.005108 5.17339546,12.7512497 4.86094968,12.4827416 C4.54850389,12.2142335 4.24582658,11.9359656 3.95290866,11.6479297 C3.6648727,11.3550117 3.38660484,11.0523344 3.11809675,10.7398886 C2.84958865,10.4274428 2.59695073,10.1101199 2.36017541,9.78791014 C2.12340009,9.46570042 1.901274,9.13739318 1.69379047,8.80297855 C1.48630694,8.46856392 1.29713362,8.13537478 1.12626483,7.80340113 C0.940750145,7.43725373 0.77842723,7.07477324 0.639291217,6.71594878 C0.500155203,6.35712432 0.384210265,6.00196667 0.291452922,5.65046516 C0.19869558,5.29896365 0.127908144,4.95234931 0.0790884897,4.61061173 C0.0302688358,4.26887416 0.005859375,3.9320236 0.005859375,3.60004995 C0.005859375,3.38524347 0.0497964044,3.17410164 0.137671781,2.96661811 C0.225547158,2.75913458 0.33050784,2.56752031 0.452556974,2.39176956 C0.574606109,2.21601881 0.700314832,2.05857778 0.829686915,1.91944177 C0.959058998,1.78030576 1.0676811,1.67168366 1.15555648,1.59357221 C1.27760561,1.47640504 1.41673954,1.35923963 1.57296243,1.24207246 C1.72918532,1.12490529 1.88906729,1.01872414 2.05261313,0.92352581 C2.21615897,0.828327485 2.37970236,0.750217211 2.5432482,0.689192643 C2.70679404,0.628168076 2.85935317,0.59765625 3.00093016,0.59765625 C3.1376252,0.59765625 3.2914048,0.645254699 3.46227359,0.740453024 C3.63314238,0.835651349 3.82597712,0.983328586 4.04078359,1.18348917 C4.19700649,1.32994813 4.36299082,1.50081435 4.53874157,1.69609297 C4.71449233,1.89137159 4.89268139,2.10617484 5.07331411,2.34050918 C5.12701573,2.40885669 5.22465357,2.53944731 5.36623057,2.73228494 C5.50780756,2.92512258 5.65304386,3.1411463 5.8019438,3.38036261 C5.95084374,3.61957891 6.08265483,3.86123257 6.19738102,4.10533084 C6.31210721,4.34942911 6.36946944,4.55690953 6.36946944,4.72777832 C6.36946944,5.00605034 6.23643788,5.25014495 5.97037076,5.46006946 C5.70430365,5.66999398 5.40284681,5.87991534 5.0659912,6.08983985 C4.9390601,6.1679513 4.8121309,6.24728204 4.6851998,6.32783447 C4.5582687,6.4083869 4.44598518,6.48771765 4.34834587,6.56582909 C4.2458246,6.64882251 4.17869858,6.7122871 4.14696581,6.75622479 C4.11523303,6.80016248 4.09936688,6.82701289 4.09936688,6.83677682 C4.27511764,7.28103567 4.53385792,7.73993353 4.8755955,8.21348417 C5.21733308,8.68703482 5.60178208,9.13738937 6.02895406,9.56456134 C6.45612603,9.99173331 6.90648058,10.3761823 7.38003122,10.7179199 C7.85358186,11.0596575 8.31247973,11.3208387 8.75673858,11.5014714 C8.76650251,11.4965895 8.79335291,11.4795028 8.8372906,11.450211 C8.88122829,11.4209193 8.94469289,11.3550137 9.0276863,11.2524924 C9.10579775,11.1548531 9.1851285,11.0425696 9.26568092,10.9156385 C9.34623335,10.7887074 9.42800505,10.6593373 9.51099846,10.5275242 C9.716041,10.1906686 9.92352142,9.88921175 10.1334459,9.62314463 C10.3433704,9.35707752 10.589906,9.22404596 10.87306,9.22404596 C11.0439288,9.22404596 11.2514092,9.28140819 11.4955075,9.39613438 C11.7396057,9.51086056 11.9800389,9.64267165 12.2168142,9.7915716 C12.4535896,9.94047154 12.6683928,10.0857078 12.8612305,10.2272848 C13.0540681,10.3688618 13.1870996,10.4664997 13.2603291,10.5202013 C13.4897815,10.700834 13.7033643,10.8790231 13.9010839,11.0547738 C14.0988035,11.2305246 14.2708902,11.3989499 14.4173491,11.5600547 C14.6126278,11.7748612 14.757864,11.9664755 14.8530624,12.1349033 C14.9482607,12.3033311 14.9958591,12.4583311 14.9958591,12.5999081 C14.9958591,12.7414851 14.9653473,12.8940443 14.9043228,13.0575901 C14.8432982,13.221136 14.7651879,13.3846793 14.6699896,13.5482252 C14.5747913,13.711771 14.4686101,13.871653 14.3514429,14.0278759 C14.2342758,14.1840988 14.1195513,14.3232327 14.0072661,14.4452818 C13.9291547,14.5331572 13.8205326,14.6417793 13.6813965,14.7711514 C13.5422605,14.9005235 13.383599,15.0274527 13.2054073,15.1519428 C13.0272156,15.2764329 12.8343808,15.3813936 12.6268973,15.466828 C12.4194138,15.5522624 12.2082719,15.5949789 11.9934654,15.5949789 Z M2.99360725,1.35191613 C2.89108598,1.35191613 2.71777881,1.41538073 2.47368054,1.54231183 C2.22958227,1.66924293 1.95863725,1.86940051 1.66083737,2.14279057 C1.38256534,2.40153473 1.16288019,2.66149549 1.00177533,2.92268064 C0.840670477,3.18386579 0.760119256,3.4096533 0.760119256,3.60004995 C0.760119256,4.85959702 1.10917455,6.15451892 1.8072956,7.48485448 C2.50541665,8.81519005 3.39880291,10.0258993 4.48748119,11.1170186 C5.57615947,12.2081378 6.78442778,13.1027446 8.11232237,13.8008656 C9.44021695,14.4989867 10.7339184,14.848042 11.9934654,14.848042 C12.1887441,14.848042 12.4169725,14.7662703 12.6781577,14.6027244 C12.9393428,14.4391786 13.1968626,14.218273 13.4507248,13.9400009 C13.7241149,13.6422011 13.9242725,13.3700356 14.0512036,13.1234963 C14.1781347,12.8769571 14.2440402,12.7024294 14.2489222,12.5999081 C14.2342763,12.5315606 14.1158904,12.3643558 13.893761,12.0982887 C13.6716315,11.8322216 13.2896235,11.4917096 12.7477253,11.0767426 C12.518273,10.8961098 12.2998083,10.7374483 12.0923247,10.6007533 C11.8848412,10.4640583 11.6993293,10.3493338 11.5357835,10.2565765 C11.3722376,10.1638191 11.2331037,10.0942522 11.1183775,10.0478735 C11.0036513,10.0014948 10.9218796,9.97586489 10.87306,9.97098293 C10.868178,9.97586489 10.8437686,9.99295151 10.7998309,10.0222433 C10.7558932,10.0515351 10.6924286,10.1198816 10.6094352,10.2272848 C10.5362057,10.3200422 10.4605364,10.4274438 10.3824249,10.5494929 C10.3043135,10.6715421 10.2262032,10.7960303 10.1480918,10.9229614 C9.93816724,11.264699 9.72580494,11.5710377 9.51099846,11.8419868 C9.29619198,12.1129359 9.04477453,12.2484084 8.75673858,12.2484084 C8.70791892,12.2484084 8.66154095,12.244747 8.61760326,12.237424 C8.57366557,12.2301011 8.52972854,12.2166759 8.48579085,12.197148 C7.99271235,12.0018694 7.48743651,11.7187197 6.96994818,11.3476903 C6.45245985,10.9766609 5.96182969,10.5592591 5.49804297,10.0954724 C5.03425626,9.63168571 4.61807496,9.14227602 4.24948657,8.62722867 C3.88089818,8.11218132 3.59652796,7.60812596 3.39636738,7.11504745 C3.3524297,6.99788029 3.34266591,6.85020305 3.36707574,6.67201131 C3.39148556,6.49381957 3.52085571,6.29732342 3.75519005,6.08251694 C3.87723918,5.9751137 4.02003453,5.86771207 4.18358037,5.76030883 C4.34712621,5.6529056 4.51189007,5.54794491 4.67787689,5.44542364 C4.79992603,5.37219416 4.92197333,5.29652483 5.04402246,5.21841339 C5.1660716,5.14030194 5.27591417,5.06463261 5.37355348,4.99140313 C5.48095672,4.90352775 5.54930321,4.83762221 5.578595,4.79368452 C5.60788679,4.74974683 5.62253247,4.72533737 5.62253247,4.72045541 C5.62253247,4.67163575 5.59812301,4.58986406 5.54930335,4.47513787 C5.5004837,4.36041168 5.42969626,4.22127776 5.33693892,4.05773192 C5.24418158,3.89418608 5.12945711,3.70989465 4.99276208,3.5048521 C4.85606705,3.29980956 4.6998465,3.08012441 4.52409575,2.84579007 C4.10424673,2.30877388 3.76251428,1.92798629 3.49888814,1.70341588 C3.23526201,1.47884547 3.06683673,1.36168006 2.99360725,1.35191613 Z" id="path-1"></path>
    </defs>
    <g id="Symbols" stroke="none" stroke-width="1" fill="none" fill-rule="evenodd">
        <g id="Foundation-/-Icons-/-Simple-/-Phone">
            <g id="Foundation-/-Colors-/-Neutral-/-N001">
                <g>
                    <mask id="mask-2" fill="white">
                        <use xlink:href="#path-1"></use>
                    </mask>
                    <use id="Mask" fill="#252A32" xlink:href="#path-1"></use>
                </g>
            </g>
        </g>
    </g>
</svg>