<?xml version="1.0" encoding="UTF-8"?>
<svg width="16px" height="16px" viewBox="0 0 16 16" version="1.1" xmlns="http://www.w3.org/2000/svg" xmlns:xlink="http://www.w3.org/1999/xlink">
    <!-- Generator: Sketch 47.1 (45422) - http://www.bohemiancoding.com/sketch -->
    <title>Foundation / Icons / Simple / Podium</title>
    <desc>Created with Sketch.</desc>
    <defs>
        <path d="M15.5724563,4.20966084 C15.6930462,4.20966084 15.7944497,4.2507704 15.8766701,4.33299075 C15.9588904,4.4152111 16,4.51387404 16,4.62898253 L16,11.3627955 C16,11.477904 15.9588904,11.5765669 15.8766701,11.6587873 C15.7944497,11.7410076 15.6930462,11.7821172 15.5724563,11.7821172 L0.419321686,11.7821172 C0.304213196,11.7821172 0.205550257,11.7410076 0.123329908,11.6587873 C0.0411095581,11.5765669 0,11.477904 0,11.3627955 L0,2.94347379 C0,2.8283653 0.0411095581,2.72970236 0.123329908,2.64748201 C0.205550257,2.56526166 0.304213196,2.52415211 0.419321686,2.52415211 L5.04830421,2.52415211 L5.04830421,0.419321686 C5.04830421,0.304213196 5.08941377,0.205550257 5.17163412,0.123329908 C5.25385447,0.0411095581 5.35525805,0 5.47584789,0 L10.5241521,0 C10.6392606,0 10.7379235,0.0411095581 10.8201439,0.123329908 C10.9023642,0.205550257 10.9434738,0.304213196 10.9434738,0.419321686 L10.9434738,4.20966084 L15.5724563,4.20966084 Z M5.89516958,0.838643371 L5.89516958,10.9434738 L10.1048304,10.9434738 L10.1048304,0.838643371 L5.89516958,0.838643371 Z M0.838643371,3.36279548 L0.838643371,10.9434738 L5.04830421,10.9434738 L5.04830421,3.36279548 L0.838643371,3.36279548 Z M15.1531346,10.9434738 L15.1531346,5.04830421 L10.9434738,5.04830421 L10.9434738,10.9434738 L15.1531346,10.9434738 Z M8,5.88694758 C7.88489151,5.88694758 7.78622857,5.84583803 7.70400822,5.76361768 C7.62178787,5.68139733 7.58067831,5.58273439 7.58067831,5.4676259 L7.58067831,2.10483042 C7.58067831,1.98424058 7.62178787,1.882837 7.70400822,1.80061665 C7.78622857,1.7183963 7.88489151,1.67728674 8,1.67728674 C8.11510849,1.67728674 8.21377143,1.7183963 8.29599178,1.80061665 C8.37821213,1.882837 8.41932169,1.98424058 8.41932169,2.10483042 L8.41932169,5.4676259 C8.41932169,5.58273439 8.37821213,5.68139733 8.29599178,5.76361768 C8.21377143,5.84583803 8.11510849,5.88694758 8,5.88694758 Z M3.79033916,8.41932169 L2.10483042,8.41932169 C1.98972193,8.41932169 1.89105899,8.37821213 1.80883864,8.29599178 C1.72661829,8.21377143 1.68550874,8.11236785 1.68550874,7.99177801 L1.68550874,6.31449126 C1.68550874,6.19390142 1.72661829,6.09249784 1.80883864,6.01027749 C1.89105899,5.92805714 1.98972193,5.88694758 2.10483042,5.88694758 L3.37101747,5.88694758 L3.37101747,5.04830421 L2.10483042,5.04830421 C1.98972193,5.04830421 1.89105899,5.00719466 1.80883864,4.92497431 C1.72661829,4.84275396 1.68550874,4.74409102 1.68550874,4.62898253 C1.68550874,4.51387404 1.72661829,4.4152111 1.80883864,4.33299075 C1.89105899,4.2507704 1.98972193,4.20966084 2.10483042,4.20966084 L3.79033916,4.20966084 C3.90544765,4.20966084 4.00411059,4.2507704 4.08633094,4.33299075 C4.16855128,4.4152111 4.20966084,4.51387404 4.20966084,4.62898253 L4.20966084,6.31449126 C4.20966084,6.42959975 4.16855128,6.52826269 4.08633094,6.61048304 C4.00411059,6.69270339 3.90544765,6.73381295 3.79033916,6.73381295 L2.52415211,6.73381295 L2.52415211,7.57245632 L3.79033916,7.57245632 C3.90544765,7.57245632 4.00411059,7.61356588 4.08633094,7.69578623 C4.16855128,7.77800658 4.20966084,7.87666952 4.20966084,7.99177801 C4.20966084,8.11236785 4.16855128,8.21377143 4.08633094,8.29599178 C4.00411059,8.37821213 3.90544765,8.41932169 3.79033916,8.41932169 Z M13.8951696,5.88694758 C14.0102781,5.88694758 14.108941,5.92805714 14.1911614,6.01027749 C14.2733817,6.09249784 14.3144913,6.19390142 14.3144913,6.31449126 L14.3144913,9.67728674 C14.3144913,9.79239523 14.2733817,9.89105817 14.1911614,9.97327852 C14.108941,10.0554989 14.0102781,10.0966084 13.8951696,10.0966084 L12.2096608,10.0966084 C12.0945524,10.0966084 11.9958894,10.0554989 11.9136691,9.97327852 C11.8314487,9.89105817 11.7903392,9.79239523 11.7903392,9.67728674 C11.7903392,9.56217825 11.8314487,9.46351531 11.9136691,9.38129496 C11.9958894,9.29907461 12.0945524,9.25796506 12.2096608,9.25796506 L13.4676259,9.25796506 L13.4676259,8.41932169 L12.2096608,8.41932169 C12.0945524,8.41932169 11.9958894,8.37821213 11.9136691,8.29599178 C11.8314487,8.21377143 11.7903392,8.11236785 11.7903392,7.99177801 C11.7903392,7.87666952 11.8314487,7.77800658 11.9136691,7.69578623 C11.9958894,7.61356588 12.0945524,7.57245632 12.2096608,7.57245632 L13.4676259,7.57245632 L13.4676259,6.73381295 L12.2096608,6.73381295 C12.0945524,6.73381295 11.9958894,6.69270339 11.9136691,6.61048304 C11.8314487,6.52826269 11.7903392,6.42959975 11.7903392,6.31449126 C11.7903392,6.19390142 11.8314487,6.09249784 11.9136691,6.01027749 C11.9958894,5.92805714 12.0945524,5.88694758 12.2096608,5.88694758 L13.8951696,5.88694758 Z" id="path-1"></path>
    </defs>
    <g id="Symbols" stroke="none" stroke-width="1" fill="none" fill-rule="evenodd">
        <g id="Foundation-/-Icons-/-Simple-/-Podium">
            <g transform="translate(0.000000, 2.000000)" id="Foundation-/-Colors-/-Neutral-/-N001">
                <g>
                    <mask id="mask-2" fill="white">
                        <use xlink:href="#path-1"></use>
                    </mask>
                    <use id="Mask" fill="#252A32" xlink:href="#path-1"></use>
                </g>
            </g>
        </g>
    </g>
</svg>