<?xml version="1.0" encoding="UTF-8"?>
<svg width="16px" height="16px" viewBox="0 0 16 16" version="1.1" xmlns="http://www.w3.org/2000/svg" xmlns:xlink="http://www.w3.org/1999/xlink">
    <!-- Generator: Sketch 47.1 (45422) - http://www.bohemiancoding.com/sketch -->
    <title>Foundation / Icons / Simple / Vector pen</title>
    <desc>Created with Sketch.</desc>
    <defs>
        <path d="M9.9198806,9.38898956 C9.97997044,9.46410185 10.0062593,9.54922784 9.99874811,9.64437007 C9.99123689,9.73951231 9.95242945,9.82213459 9.88232464,9.8922394 C9.74211503,10.032449 9.56184824,10.2289899 9.34151885,10.4818679 C9.12118946,10.734746 8.90086337,11.0126573 8.68053398,11.3156102 C8.46020459,11.6185631 8.25990815,11.9327782 8.07963865,12.2582648 C7.89936915,12.5837514 7.77919128,12.8866997 7.71910145,13.167119 C7.87934101,13.2322163 8.03832631,13.3348682 8.19606212,13.4750778 C8.35379793,13.6152874 8.51278323,13.7905468 8.67302279,14.0008612 C8.82324737,14.2061682 8.94592894,14.3939461 9.04107118,14.5642006 C9.13621342,14.7344551 9.18628753,14.8220848 9.19129501,14.8270923 C9.22133993,14.8871821 9.23385846,14.9510266 9.22885097,15.0186277 C9.22384349,15.0862288 9.20381384,15.1475695 9.16876144,15.2026519 C9.13370904,15.2577342 9.08739048,15.3015491 9.02980439,15.3340977 C8.9722183,15.3666464 8.91087752,15.3829205 8.8457802,15.3829205 L1.15431995,15.3829205 C1.08421515,15.3829205 1.02037066,15.3666464 0.962784566,15.3340977 C0.905198475,15.3015491 0.858879924,15.2577342 0.823827521,15.2026519 C0.788775118,15.1475695 0.769997326,15.0862288 0.767493583,15.0186277 C0.76498984,14.9510266 0.77876022,14.8871821 0.808805137,14.8270923 C0.813812623,14.8220848 0.862634881,14.7344551 0.955273374,14.5642006 C1.04791187,14.3939461 1.17184529,14.2061682 1.32707736,14.0008612 C1.48731692,13.7905468 1.64630222,13.6152874 1.80403803,13.4750778 C1.96177384,13.3348682 2.11825544,13.2322163 2.27348751,13.167119 C2.21840516,12.8816922 2.100731,12.577492 1.9204615,12.2545092 C1.740192,11.9315263 1.53989556,11.6185631 1.31956617,11.3156102 C1.09923678,11.0126573 0.877658842,10.734746 0.654825709,10.4818679 C0.431992576,10.2289899 0.250473926,10.032449 0.110264314,9.8922394 C0.0451669945,9.82213459 0.00886326464,9.73951231 0.00135203544,9.64437007 C-0.00615919376,9.54922784 0.0176260086,9.46410185 0.0727083561,9.38898956 C0.578464456,8.71798641 1.02913145,7.99691923 1.42472285,7.22576636 C1.82031426,6.4546135 2.15956635,5.71852408 2.44248932,5.01747602 C2.72541229,4.31642796 2.95074578,3.69300529 3.11849657,3.1471893 C3.28624735,2.60137331 3.39515854,2.21830637 3.4452334,1.99797698 C3.33006122,1.89281977 3.23992783,1.76638264 3.17483051,1.6186618 C3.10973319,1.47094096 3.07718501,1.31696307 3.07718501,1.15672351 C3.07718501,0.836244401 3.18985176,0.5633405 3.41518864,0.338003624 C3.64052551,0.112666748 3.91092571,0 4.22639734,0 C4.34156952,0 4.4692585,0.0112666748 4.60946811,0.0338003624 C4.74967772,0.05633405 4.87987041,0.105156307 5.00005008,0.180268599 C5.12022974,0.105156307 5.24917058,0.05633405 5.38687644,0.0338003624 C5.52458231,0.0112666748 5.65101944,0 5.76619162,0 C6.08667074,0 6.35957464,0.112666748 6.58491151,0.338003624 C6.81024839,0.5633405 6.92291514,0.836244401 6.92291514,1.15672351 C6.92291514,1.31696307 6.89036696,1.47094096 6.82526964,1.6186618 C6.76017233,1.76638264 6.67003893,1.89281977 6.55486675,1.99797698 C6.59993412,2.21830637 6.70634161,2.60137331 6.87409239,3.1471893 C7.04184318,3.69300529 7.26842852,4.31642796 7.55385523,5.01747602 C7.83928194,5.71852408 8.17978589,6.4546135 8.5753773,7.22576636 C8.9709687,7.99691923 9.41913199,8.71798641 9.9198806,9.38898956 Z M5.00005008,9.23125453 C4.89489287,9.23125453 4.80475947,9.26881011 4.72964718,9.34392241 C4.65453488,9.4190347 4.6169793,9.5091681 4.6169793,9.61432531 C4.6169793,9.72449 4.65453488,9.8171271 4.72964718,9.8922394 C4.80475947,9.96735169 4.89489287,10.0049073 5.00005008,10.0049073 C5.10520728,10.0049073 5.19534068,9.96735169 5.27045297,9.8922394 C5.34556527,9.8171271 5.38312085,9.72449 5.38312085,9.61432531 C5.38312085,9.5091681 5.34556527,9.4190347 5.27045297,9.34392241 C5.19534068,9.26881011 5.10520728,9.23125453 5.00005008,9.23125453 Z M8.15475057,10.7334929 C8.33502007,10.488126 8.51153131,10.2652962 8.68428958,10.0649968 C8.85704785,9.86469736 9.00101092,9.70446021 9.1161831,9.58428054 C8.83075639,9.18868913 8.56661546,8.78058514 8.32375238,8.3599563 C8.0808893,7.93932747 7.85680766,7.5224605 7.65150073,7.10934289 C7.44619379,6.69622529 7.26091959,6.2956324 7.09567254,5.90755223 C6.9304255,5.51947205 6.78270688,5.16019031 6.65251224,4.82969623 C6.5223176,4.48918717 6.39963603,4.14743137 6.28446385,3.80441857 C6.16929167,3.46140577 6.06663974,3.13967961 5.97650499,2.83923044 C5.85131784,2.40357915 5.78371779,2.12441598 5.77370281,2.00173257 C5.76368784,1.87904916 5.76368784,1.79767873 5.77370281,1.75761884 C5.78371779,1.7025365 5.80499928,1.65121053 5.83754794,1.60363942 C5.8700966,1.5560683 5.91140774,1.51726086 5.96148261,1.48721595 C6.02157244,1.45717103 6.06789099,1.41210433 6.10043965,1.3520145 C6.13298831,1.29192466 6.1492624,1.22682832 6.1492624,1.15672351 C6.1492624,1.0515663 6.11170681,0.961432906 6.03659452,0.886320614 C5.96148223,0.811208322 5.87134883,0.773652739 5.76619162,0.773652739 C5.62097453,0.773652739 5.52583372,0.783667561 5.48076634,0.803697506 L5.41316562,0.833742273 C5.39814316,0.853772217 5.38938019,0.898838916 5.38687644,0.968943722 C5.3843727,1.03904853 5.38312085,1.10164117 5.38312085,1.15672351 L5.38312085,8.53271371 C5.60845773,8.607826 5.79248008,8.74427795 5.93519343,8.94207365 C6.07790679,9.13986936 6.1492624,9.363951 6.1492624,9.61432531 C6.1492624,9.93480442 6.03659565,10.2077083 5.81125877,10.4330452 C5.5859219,10.6583821 5.3155217,10.7710488 5.00005008,10.7710488 C4.67957096,10.7710488 4.40666706,10.6583821 4.18133019,10.4330452 C3.95599331,10.2077083 3.84332656,9.93480442 3.84332656,9.61432531 C3.84332656,9.363951 3.91593402,9.13986936 4.06115112,8.94207365 C4.20636822,8.74427795 4.39164243,8.607826 4.6169793,8.53271371 L4.6169793,1.15672351 C4.6169793,1.10164117 4.61572745,1.03904853 4.61322371,0.968943722 C4.61071996,0.898838916 4.60195699,0.853772217 4.58693453,0.833742273 L4.51933381,0.803697506 C4.47426643,0.783667561 4.37662192,0.773652739 4.22639734,0.773652739 C4.12124013,0.773652739 4.03110673,0.811208322 3.95599444,0.886320614 C3.88088214,0.961432906 3.84332656,1.0515663 3.84332656,1.15672351 C3.84332656,1.22682832 3.8608525,1.29192466 3.8959049,1.3520145 C3.93095731,1.41210433 3.97852771,1.45717103 4.03861754,1.48721595 C4.08869241,1.51726086 4.13000355,1.5560683 4.16255221,1.60363942 C4.19510087,1.65121053 4.21638236,1.7025365 4.22639734,1.75761884 C4.23641231,1.79767873 4.23516046,1.87904916 4.22264174,2.00173257 C4.21012302,2.12441598 4.14127112,2.40357915 4.01608397,2.83923044 C3.93095671,3.13967961 3.82955663,3.46140577 3.71188071,3.80441857 C3.59420478,4.14743137 3.47027136,4.48918717 3.34007672,4.82969623 C3.21488957,5.16019031 3.06967465,5.51947205 2.90442761,5.90755223 C2.73918056,6.2956324 2.55390636,6.69622529 2.34859942,7.10934289 C2.14329249,7.5224605 1.917959,7.93932747 1.67259218,8.3599563 C1.42722536,8.78058514 1.16433628,9.18868913 0.883917054,9.58428054 C0.999089235,9.70446021 1.14180045,9.86469736 1.31205498,10.0649968 C1.48230951,10.2652962 1.6600726,10.488126 1.84534958,10.7334929 C2.01560411,10.9588297 2.16833015,11.1766521 2.30353227,11.3869665 C2.4387344,11.597281 2.55515671,11.801333 2.65280269,11.9991287 C2.75044867,12.1969244 2.83181909,12.3859541 2.89691641,12.5662236 C2.96201373,12.7464931 3.00958414,12.9167451 3.03962906,13.0769847 L6.96047109,13.0769847 C6.98550853,12.9167451 7.03057522,12.7464931 7.09567254,12.5662236 C7.16076986,12.3859541 7.24339215,12.1969244 7.34354187,11.9991287 C7.44369159,11.801333 7.56136575,11.597281 7.69656788,11.3869665 C7.83177,11.1766521 7.98449604,10.9588297 8.15475057,10.7334929 Z M8.16977295,14.6167789 C8.02956334,14.411472 7.88059286,14.2324571 7.72285705,14.0797287 C7.56512123,13.9270004 7.42616558,13.8506374 7.30598591,13.8506374 L2.69411424,13.8506374 C2.57393457,13.8506374 2.43497892,13.9270004 2.2772431,14.0797287 C2.11950729,14.2324571 1.97053681,14.411472 1.8303272,14.6167789 L8.16977295,14.6167789 Z" id="path-1"></path>
    </defs>
    <g id="Symbols" stroke="none" stroke-width="1" fill="none" fill-rule="evenodd">
        <g id="Foundation-/-Icons-/-Simple-/-Vector-pen">
            <g id="Foundation-/-Colors-/-Neutral-/-N001" transform="translate(3.000000, 0.000000)">
                <mask id="mask-2" fill="white">
                    <use xlink:href="#path-1"></use>
                </mask>
                <use id="Mask" fill="#252A32" xlink:href="#path-1"></use>
            </g>
        </g>
    </g>
</svg>