<?xml version="1.0" encoding="UTF-8"?>
<svg width="16px" height="16px" viewBox="0 0 16 16" version="1.1" xmlns="http://www.w3.org/2000/svg" xmlns:xlink="http://www.w3.org/1999/xlink">
    <!-- Generator: Sketch 47.1 (45422) - http://www.bohemiancoding.com/sketch -->
    <title>Foundation / Icons / Simple / Wassap</title>
    <desc>Created with Sketch.</desc>
    <defs>
        <path d="M16,7.79422222 C16,12.098 12.4835556,15.5877778 8.14577778,15.5877778 C6.76822222,15.5877778 5.474,15.236 4.34888889,14.618 L0,16 L1.41755556,11.8186667 C0.702222222,10.644 0.290888889,9.26644444 0.290888889,7.79422222 C0.290888889,3.48955556 3.80733333,0 8.14577778,0 C12.4835556,0 16,3.48955556 16,7.79422222 Z M8.1457997,0.810364854 C4.26402469,0.810364854 1.10744767,3.9427844 1.10744767,7.79424415 C1.10744767,9.32161248 1.60504433,10.7371933 2.44795081,11.8889365 L1.56904495,14.4820759 L4.27326137,13.6228276 C5.38426848,14.351815 6.71553495,14.7774129 8.1457997,14.7774129 C12.0259168,14.7774129 15.1834412,11.6447565 15.1834412,7.79424415 C15.1834412,3.9427844 12.0259168,0.810364854 8.1457997,0.810364854 Z M12.112,9.58933333 C12.0633333,9.50955556 11.9348889,9.46177778 11.7431111,9.36622222 C11.5504444,9.27088889 10.6033333,8.80822222 10.4271111,8.74488889 C10.2508889,8.68133333 10.1215556,8.64933333 9.994,8.84022222 C9.86555556,9.03133333 9.49644444,9.46177778 9.38377778,9.58933333 C9.27177778,9.71711111 9.15977778,9.73266667 8.96711111,9.63711111 C8.77422222,9.54177778 8.15355556,9.33933333 7.41844444,8.68933333 C6.84644444,8.18222222 6.46,7.55733333 6.34711111,7.36622222 C6.23533333,7.17533333 6.336,7.072 6.43133333,6.97666667 C6.51822222,6.89066667 6.62422222,6.75355556 6.72044444,6.64244444 C6.81688889,6.53044444 6.84888889,6.45044444 6.91311111,6.32288889 C6.97733333,6.19533333 6.94533333,6.08422222 6.89666667,5.98866667 C6.84888889,5.89333333 6.46355556,4.95311111 6.30288889,4.57022222 C6.14333333,4.18844444 5.98266667,4.25177778 5.86977778,4.25177778 C5.75777778,4.25177778 5.62933333,4.236 5.50088889,4.236 C5.37244444,4.236 5.164,4.28377778 4.98777778,4.47488889 C4.81155556,4.66577778 4.31422222,5.12844444 4.31422222,6.06777778 C4.31422222,7.00777778 5.00355556,7.91666667 5.09977778,8.04333333 C5.19622222,8.17111111 6.43133333,10.1631111 8.38888889,10.928 C10.3464444,11.6926667 10.3464444,11.4375556 10.6995556,11.4053333 C11.052,11.3742222 11.8384444,10.9435556 11.9991111,10.4973333 C12.1597778,10.0511111 12.1597778,9.66844444 12.112,9.58933333 Z" id="path-1"></path>
    </defs>
    <g id="Symbols" stroke="none" stroke-width="1" fill="none" fill-rule="evenodd">
        <g id="Foundation-/-Icons-/-Simple-/-Wassap">
            <g id="Foundation-/-Colors-/-Neutral-/-N001">
                <g>
                    <mask id="mask-2" fill="white">
                        <use xlink:href="#path-1"></use>
                    </mask>
                    <use id="Mask" fill="#252A32" xlink:href="#path-1"></use>
                </g>
            </g>
        </g>
    </g>
</svg>