<?xml version="1.0" encoding="utf-8"?>
<!-- Generator: Adobe Illustrator 16.0.0, SVG Export Plug-In . SVG Version: 6.00 Build 0)  -->
<!DOCTYPE svg PUBLIC "-//W3C//DTD SVG 1.1//EN" "http://www.w3.org/Graphics/SVG/1.1/DTD/svg11.dtd">
<svg version="1.1" id="Layer_1" xmlns="http://www.w3.org/2000/svg" xmlns:xlink="http://www.w3.org/1999/xlink" x="0px" y="0px"
	 width="150px" height="61px" viewBox="0 0 150 61" enable-background="new 0 0 150 61" xml:space="preserve">
<g>
	<path fill="#00AFF0" d="M26.429,33.037l1.418-5.144l1.317,5.144H26.429z M25.275,20.678l-6.229,19.225h5.742l0.754-2.746h4.578
		l0.711,2.746h5.692l-6.155-19.225H25.275z M49.634,30.667c0,1.951-0.082,4.474-2.876,4.474c-2.871,0-2.974-2.543-2.974-4.494
		l-0.02-9.969h-5.786v11.385c0,5.297,2.902,7.84,8.755,7.84c5.851,0,8.724-2.543,8.724-7.84V20.678H49.65L49.634,30.667z
		 M56.916,25.581h5.792v14.321h5.911V25.581h5.773v-4.903H56.916V25.581z M84.537,29.079H81.55v-3.822h2.673
		c2.178,0,2.825,0.699,2.825,1.909C87.048,28.888,85.6,29.079,84.537,29.079 M89.977,30.994c1.895-0.73,2.777-2.832,2.777-4.824
		c0-3.633-2.801-5.492-6.04-5.492H75.847v19.225h5.703v-6.709h3.036c2.257,0,2.409,1.916,2.567,3.749
		c0.075,0.99,0.178,1.991,0.465,2.96h5.703c-0.516-0.891-0.542-3.18-0.621-4.121C92.494,33.39,91.533,31.608,89.977,30.994
		 M100.674,32.58h9.492v-4.579h-9.492v-2.399h11.578v-4.924h-17.47v19.225h17.474v-4.93h-11.582V32.58z M122.754,35.326
		c-2.619,0-3.454-2.568-3.454-5.035c0-2.469,0.835-5.036,3.454-5.036c2.31,0,2.82,2.029,2.922,2.696h5.433
		c-0.48-4.601-3.225-7.244-8.204-7.273c-5.586,0-9.195,3.831-9.195,9.613c0,5.423,3.329,9.611,9.195,9.611
		c5.309,0,8.281-3.935,8.281-7.634h-5.489C125.368,33.988,124.635,35.326,122.754,35.326 M6.01,20.678H0.119v19.225h17.475v-4.93
		H6.01V20.678z"/>
	<g>
		<g>
			<path fill="#EE1B24" d="M84.465,5.681c1.724,0,3.125,1.761,3.125,3.933c0,2.168-1.401,3.93-3.125,3.93
				c-1.725,0-3.124-1.762-3.124-3.93C81.341,7.441,82.74,5.681,84.465,5.681 M84.465,19.222c4.827,0,8.737-4.302,8.737-9.608
				C93.203,4.303,89.292,0,84.465,0c-4.826,0-8.741,4.303-8.741,9.613C75.725,14.92,79.64,19.222,84.465,19.222 M103.41,19.222
				c5.851,0,8.725-2.543,8.725-7.837V0h-5.807l-0.015,9.989c0,1.951-0.085,4.469-2.878,4.469c-2.869,0-2.973-2.538-2.973-4.489
				L100.444,0h-5.786v11.385C94.659,16.679,97.56,19.222,103.41,19.222 M46.61,19.222c5.855,0,8.727-2.543,8.727-7.837V0H49.53
				l-0.015,9.989c0,1.951-0.085,4.469-2.875,4.469c-2.872,0-2.977-2.538-2.977-4.489L43.645,0h-5.784v11.385
				C37.861,16.679,40.761,19.222,46.61,19.222 M74.269,14.322H62.691V0h-5.896v19.222h17.474V14.322z M5.791,19.222h5.914V4.903
				h5.77V0H0v4.903h5.79V19.222z M27.669,5.681c1.725,0,3.123,1.761,3.123,3.933c0,2.168-1.398,3.93-3.123,3.93
				c-1.729,0-3.127-1.762-3.127-3.93C24.542,7.441,25.941,5.681,27.669,5.681 M27.669,19.222c4.822,0,8.736-4.302,8.736-9.608
				C36.405,4.303,32.492,0,27.669,0c-4.828,0-8.74,4.303-8.74,9.613C18.929,14.92,22.841,19.222,27.669,19.222 M138.416,14.295
				v-2.396h9.491V7.32h-9.491V4.926H150V0h-17.477v19.222H150v-4.927H138.416z M125.61,7.603c-2.738-0.715-5.506-0.996-5.614-2.307
				c0-1.031,1.328-1.234,2.146-1.234c0.593,0,1.274,0.127,1.761,0.462c0.487,0.309,0.813,0.772,0.706,1.465h5.644
				C130.092,1.517,126.372,0,122.167,0c-3.99,0-7.814,1.822-7.814,6.066c0,3.699,3.499,4.496,6.571,5.315
				c3.333,0.903,4.175,1.159,4.175,2.111c0,1.36-1.492,1.671-2.469,1.671c-1.115,0-2.419-0.235-2.852-1.338
				c-0.13-0.333-0.216-0.743-0.216-1.207h-5.969c0.055,5.858,6.324,6.603,8.52,6.603c4.315,0,8.957-1.542,8.957-6.322
				C131.068,9.531,128.354,8.327,125.61,7.603"/>
			<g>
				<path fill="#EE1B24" d="M90.705,49.875h-3.052l-2.641-8.854h2.754l1.45,5.368h0.024l1.427-5.368h2.801L90.705,49.875z"/>
				<path fill="#EE1B24" d="M93.968,41.021h2.728v8.854h-2.728V41.021z"/>
				<path fill="#EE1B24" d="M102.871,49.875h-3.05l-2.64-8.854h2.752l1.452,5.368h0.023l1.426-5.368h2.803L102.871,49.875z"/>
				<path fill="#EE1B24" d="M106.134,41.021h7.329v2.27h-4.601v1.104h4.178v2.106h-4.178v1.102h4.736v2.271h-7.464V41.021z"/>
				<path fill="#EE1B24" d="M91.51,55.233c-0.048-0.322-0.297-1.302-1.426-1.302c-1.277,0-1.687,1.239-1.687,2.432
					c0,1.189,0.41,2.429,1.687,2.429c0.918,0,1.277-0.644,1.439-1.475h2.679c0,1.785-1.452,3.683-4.042,3.683
					c-2.865,0-4.49-2.021-4.49-4.637c0-2.791,1.761-4.638,4.49-4.638c2.431,0.012,3.769,1.288,4.004,3.508H91.51z"/>
				<path fill="#EE1B24" d="M95.343,51.934h5.195c1.55,0,2.89,0.858,2.89,2.531c0,0.92-0.42,1.885-1.327,2.221
					c0.745,0.284,1.203,1.102,1.301,2.207c0.039,0.435,0.05,1.487,0.299,1.895h-2.729c-0.136-0.445-0.186-0.902-0.223-1.361
					c-0.074-0.842-0.149-1.724-1.227-1.724h-1.452v3.085h-2.729V51.934z M98.072,55.805h1.427c0.508,0,1.201-0.087,1.201-0.88
					c0-0.561-0.308-0.88-1.35-0.88h-1.278V55.805z"/>
				<path fill="#EE1B24" d="M104.535,51.934h7.327v2.272h-4.601v1.104h4.181v2.105h-4.181v1.105h4.736v2.266h-7.462V51.934z"/>
				<path fill="#EE1B24" d="M115.721,51.934h2.667l3.223,8.854h-2.828l-0.373-1.263h-2.814l-0.396,1.263h-2.741L115.721,51.934z
					 M117.866,57.629l-0.794-2.729h-0.023l-0.857,2.729H117.866z"/>
				<path fill="#EE1B24" d="M122.232,51.934h2.79l2.58,4.739h0.025v-4.739h2.578v8.854h-2.653l-2.715-4.834h-0.024v4.834h-2.58
					V51.934z"/>
				<path fill="#EE1B24" d="M131.634,51.934h4.476c2.951,0,3.992,2.186,3.992,4.416c0,2.715-1.438,4.438-4.524,4.438h-3.944V51.934z
					 M134.362,58.521h1.066c1.7,0,1.948-1.379,1.948-2.21c0-0.556-0.175-2.105-2.145-2.105h-0.869V58.521z"/>
				<path fill="#EE1B24" d="M145.511,51.726c2.691,0,4.488,1.934,4.488,4.638c0,2.701-1.797,4.637-4.488,4.637
					c-2.689,0-4.489-1.936-4.489-4.637C141.022,53.659,142.822,51.726,145.511,51.726z M145.511,58.792
					c0.695,0,1.761-0.458,1.761-2.429c0-1.972-1.065-2.432-1.761-2.432c-0.694,0-1.76,0.46-1.76,2.432
					C143.751,58.334,144.817,58.792,145.511,58.792z"/>
			</g>
		</g>
	</g>
</g>
</svg>
