<?xml version="1.0" encoding="utf-8"?>
<!-- Generator: Adobe Illustrator 16.0.0, SVG Export Plug-In . SVG Version: 6.00 Build 0)  -->
<!DOCTYPE svg PUBLIC "-//W3C//DTD SVG 1.1//EN" "http://www.w3.org/Graphics/SVG/1.1/DTD/svg11.dtd">
<svg version="1.1" id="Layer_1" xmlns="http://www.w3.org/2000/svg" xmlns:xlink="http://www.w3.org/1999/xlink" x="0px" y="0px"
	 width="150px" height="61px" viewBox="0 0 150 61" enable-background="new 0 0 150 61" xml:space="preserve">
<g>
	<path fill="#F77121" d="M26.429,33.037l1.419-5.144l1.317,5.144H26.429z M25.275,20.678l-6.229,19.225h5.742l0.754-2.746h4.578
		l0.71,2.746h5.691l-6.154-19.225H25.275z M49.633,30.667c0,1.951-0.08,4.474-2.877,4.474c-2.869,0-2.974-2.543-2.974-4.494
		l-0.019-9.969h-5.786v11.385c0,5.297,2.901,7.84,8.754,7.84c5.852,0,8.724-2.543,8.724-7.84V20.678h-5.807L49.633,30.667z
		 M56.915,25.581h5.791v14.321h5.911V25.581h5.773v-4.903H56.915V25.581z M84.535,29.079H81.55v-3.822h2.672
		c2.179,0,2.825,0.699,2.825,1.909C87.047,28.888,85.598,29.079,84.535,29.079 M89.977,30.994c1.894-0.73,2.776-2.832,2.776-4.824
		c0-3.633-2.802-5.492-6.041-5.492H75.846v19.225h5.704v-6.709h3.035c2.258,0,2.41,1.916,2.567,3.749
		c0.076,0.99,0.178,1.991,0.466,2.96h5.702c-0.516-0.891-0.542-3.18-0.62-4.121C92.493,33.39,91.532,31.608,89.977,30.994
		 M100.673,32.58h9.491v-4.579h-9.491v-2.399h11.579v-4.924H94.78v19.225h17.474v-4.93h-11.581V32.58z M122.753,35.326
		c-2.618,0-3.453-2.568-3.453-5.035c0-2.469,0.835-5.036,3.453-5.036c2.31,0,2.819,2.029,2.922,2.696h5.435
		c-0.481-4.601-3.227-7.244-8.205-7.273c-5.586,0-9.194,3.831-9.194,9.613c0,5.423,3.328,9.611,9.194,9.611
		c5.309,0,8.281-3.935,8.281-7.634h-5.488C125.367,33.988,124.635,35.326,122.753,35.326 M6.013,20.678H0.12v19.225h17.474v-4.93
		H6.013V20.678z"/>
	<g>
		<g>
			<path fill="#00AFF0" d="M84.465,5.681c1.723,0,3.124,1.761,3.124,3.933c0,2.168-1.401,3.93-3.124,3.93
				c-1.726,0-3.125-1.762-3.125-3.93C81.34,7.441,82.739,5.681,84.465,5.681 M84.465,19.222c4.825,0,8.737-4.302,8.737-9.608
				C93.202,4.303,89.29,0,84.465,0c-4.827,0-8.741,4.303-8.741,9.613C75.724,14.92,79.638,19.222,84.465,19.222 M103.409,19.222
				c5.85,0,8.725-2.543,8.725-7.837V0h-5.807l-0.014,9.989c0,1.951-0.086,4.469-2.879,4.469c-2.87,0-2.974-2.538-2.974-4.489
				L100.442,0h-5.785v11.385C94.657,16.679,97.559,19.222,103.409,19.222 M46.608,19.222c5.856,0,8.728-2.543,8.728-7.837V0H49.53
				l-0.015,9.989c0,1.951-0.085,4.469-2.877,4.469c-2.872,0-2.976-2.538-2.976-4.489L43.644,0h-5.784v11.385
				C37.859,16.679,40.761,19.222,46.608,19.222 M74.269,14.322H62.69V0h-5.896v19.222h17.474V14.322z M5.793,19.222h5.911V4.903
				h5.771V0H0.002v4.903h5.791V19.222z M27.669,5.681c1.725,0,3.123,1.761,3.123,3.933c0,2.168-1.398,3.93-3.123,3.93
				c-1.728,0-3.127-1.762-3.127-3.93C24.542,7.441,25.941,5.681,27.669,5.681 M27.669,19.222c4.822,0,8.735-4.302,8.735-9.608
				C36.404,4.303,32.491,0,27.669,0c-4.826,0-8.74,4.303-8.74,9.613C18.929,14.92,22.843,19.222,27.669,19.222 M138.415,14.295
				v-2.396h9.491V7.32h-9.491V4.926h11.583V0h-17.476v19.222h17.476v-4.927H138.415z M125.609,7.603
				c-2.739-0.715-5.506-0.996-5.614-2.307c0-1.031,1.329-1.234,2.146-1.234c0.593,0,1.275,0.127,1.763,0.462
				c0.487,0.309,0.813,0.772,0.704,1.465h5.644C130.091,1.517,126.371,0,122.165,0c-3.99,0-7.814,1.822-7.814,6.066
				c0,3.699,3.499,4.496,6.571,5.315c3.332,0.903,4.175,1.159,4.175,2.111c0,1.36-1.492,1.671-2.47,1.671
				c-1.113,0-2.417-0.235-2.852-1.338c-0.129-0.333-0.215-0.743-0.215-1.207h-5.97c0.055,5.858,6.324,6.603,8.52,6.603
				c4.314,0,8.956-1.542,8.956-6.322C131.066,9.531,128.354,8.327,125.609,7.603"/>
			<g>
				<path fill="#00AFF0" d="M90.702,49.875h-3.051l-2.641-8.854h2.755l1.449,5.368h0.024l1.427-5.368h2.802L90.702,49.875z"/>
				<path fill="#00AFF0" d="M93.968,41.021h2.727v8.854h-2.727V41.021z"/>
				<path fill="#00AFF0" d="M102.869,49.875h-3.051l-2.639-8.854h2.752l1.452,5.368h0.022l1.427-5.368h2.802L102.869,49.875z"/>
				<path fill="#00AFF0" d="M106.134,41.021h7.328v2.27h-4.601v1.104h4.179v2.106h-4.179v1.102h4.736v2.271h-7.464V41.021z"/>
				<path fill="#00AFF0" d="M91.51,55.233c-0.05-0.322-0.297-1.302-1.427-1.302c-1.277,0-1.687,1.239-1.687,2.432
					c0,1.189,0.409,2.429,1.687,2.429c0.918,0,1.276-0.644,1.439-1.475h2.679c0,1.785-1.451,3.683-4.042,3.683
					c-2.865,0-4.491-2.021-4.491-4.637c0-2.791,1.763-4.638,4.491-4.638c2.43,0.012,3.769,1.288,4.003,3.508H91.51z"/>
				<path fill="#00AFF0" d="M95.343,51.934h5.195c1.55,0,2.889,0.858,2.889,2.531c0,0.92-0.42,1.885-1.327,2.221
					c0.744,0.284,1.204,1.102,1.303,2.207c0.038,0.435,0.05,1.487,0.298,1.895h-2.728c-0.137-0.445-0.188-0.902-0.224-1.361
					c-0.073-0.842-0.149-1.724-1.228-1.724H98.07v3.085h-2.728V51.934z M98.07,55.805h1.426c0.509,0,1.202-0.087,1.202-0.88
					c0-0.561-0.308-0.88-1.351-0.88H98.07V55.805z"/>
				<path fill="#00AFF0" d="M104.535,51.934h7.327v2.272h-4.602v1.104h4.181v2.105h-4.181v1.105h4.736v2.266h-7.462V51.934z"/>
				<path fill="#00AFF0" d="M115.721,51.934h2.666l3.223,8.854h-2.827l-0.372-1.263h-2.814l-0.397,1.263h-2.741L115.721,51.934z
					 M117.864,57.629l-0.793-2.729h-0.023l-0.856,2.729H117.864z"/>
				<path fill="#00AFF0" d="M122.23,51.934h2.792l2.579,4.739h0.024v-4.739h2.578v8.854h-2.652l-2.716-4.834h-0.025v4.834h-2.58
					V51.934z"/>
				<path fill="#00AFF0" d="M131.632,51.934h4.478c2.951,0,3.992,2.186,3.992,4.416c0,2.715-1.438,4.438-4.526,4.438h-3.943V51.934z
					 M134.36,58.521h1.066c1.7,0,1.948-1.379,1.948-2.21c0-0.556-0.175-2.105-2.146-2.105h-0.868V58.521z"/>
				<path fill="#00AFF0" d="M145.51,51.726c2.691,0,4.488,1.934,4.488,4.638c0,2.701-1.797,4.637-4.488,4.637
					c-2.69,0-4.488-1.936-4.488-4.637C141.021,53.659,142.819,51.726,145.51,51.726z M145.51,58.792
					c0.695,0,1.762-0.458,1.762-2.429c0-1.972-1.066-2.432-1.762-2.432c-0.693,0-1.76,0.46-1.76,2.432
					C143.75,58.334,144.816,58.792,145.51,58.792z"/>
			</g>
		</g>
	</g>
</g>
</svg>
