<?xml version="1.0" encoding="utf-8"?>
<!-- Generator: Adobe Illustrator 16.0.0, SVG Export Plug-In . SVG Version: 6.00 Build 0)  -->
<!DOCTYPE svg PUBLIC "-//W3C//DTD SVG 1.1//EN" "http://www.w3.org/Graphics/SVG/1.1/DTD/svg11.dtd">
<svg version="1.1" id="Layer_1" xmlns="http://www.w3.org/2000/svg" xmlns:xlink="http://www.w3.org/1999/xlink" x="0px" y="0px"
	 width="150px" height="61px" viewBox="0 0 150 61" enable-background="new 0 0 150 61" xml:space="preserve">
<g>
	<path fill="#A6CE39" d="M26.43,33.037l1.417-5.144l1.317,5.144H26.43z M25.276,20.678l-6.229,19.225h5.742l0.753-2.746h4.579
		l0.71,2.746h5.692L30.37,20.678H25.276z M49.634,30.667c0,1.951-0.082,4.474-2.875,4.474c-2.871,0-2.975-2.543-2.975-4.494
		l-0.019-9.969h-5.786v11.385c0,5.297,2.901,7.84,8.755,7.84c5.849,0,8.722-2.543,8.722-7.84V20.678H49.65L49.634,30.667z
		 M56.917,25.581h5.792v14.321h5.91V25.581h5.773v-4.903H56.917V25.581z M84.537,29.079H81.55v-3.822h2.674
		c2.177,0,2.824,0.699,2.824,1.909C87.048,28.888,85.6,29.079,84.537,29.079 M89.977,30.994c1.895-0.73,2.777-2.832,2.777-4.824
		c0-3.633-2.8-5.492-6.039-5.492H75.847v19.225h5.703v-6.709h3.036c2.257,0,2.409,1.916,2.568,3.749
		c0.075,0.99,0.177,1.991,0.464,2.96h5.704c-0.517-0.891-0.541-3.18-0.621-4.121C92.496,33.39,91.533,31.608,89.977,30.994
		 M100.674,32.58h9.492v-4.579h-9.492v-2.399h11.578v-4.924h-17.47v19.225h17.474v-4.93h-11.582V32.58z M122.754,35.326
		c-2.619,0-3.453-2.568-3.453-5.035c0-2.469,0.834-5.036,3.453-5.036c2.31,0,2.821,2.029,2.922,2.696h5.433
		c-0.48-4.601-3.224-7.244-8.203-7.273c-5.587,0-9.194,3.831-9.194,9.613c0,5.423,3.328,9.611,9.194,9.611
		c5.308,0,8.281-3.935,8.281-7.634h-5.489C125.37,33.988,124.636,35.326,122.754,35.326 M6.01,20.678H0.12v19.225h17.475v-4.93H6.01
		V20.678z"/>
	<path fill="#EE3696" d="M84.465,5.681c1.725,0,3.126,1.761,3.126,3.933c0,2.168-1.401,3.93-3.126,3.93s-3.124-1.762-3.124-3.93
		C81.341,7.441,82.74,5.681,84.465,5.681 M84.465,19.222c4.828,0,8.738-4.302,8.738-9.608C93.204,4.303,89.293,0,84.465,0
		c-4.826,0-8.741,4.303-8.741,9.613C75.725,14.92,79.64,19.222,84.465,19.222 M103.41,19.222c5.851,0,8.726-2.543,8.726-7.837V0
		h-5.807l-0.014,9.989c0,1.951-0.085,4.469-2.88,4.469c-2.869,0-2.972-2.538-2.972-4.489L100.444,0h-5.786v11.385
		C94.659,16.679,97.56,19.222,103.41,19.222 M46.611,19.222c5.854,0,8.727-2.543,8.727-7.837V0h-5.807l-0.016,9.989
		c0,1.951-0.084,4.469-2.875,4.469c-2.871,0-2.976-2.538-2.976-4.489L43.646,0h-5.785v11.385
		C37.861,16.679,40.762,19.222,46.611,19.222 M74.27,14.322H62.692V0h-5.896v19.222H74.27V14.322z M5.791,19.222h5.914V4.903h5.771
		V0H0v4.903h5.79V19.222z M27.67,5.681c1.725,0,3.123,1.761,3.123,3.933c0,2.168-1.398,3.93-3.123,3.93
		c-1.729,0-3.127-1.762-3.127-3.93C24.543,7.441,25.942,5.681,27.67,5.681 M27.67,19.222c4.822,0,8.735-4.302,8.735-9.608
		C36.405,4.303,32.493,0,27.67,0c-4.829,0-8.741,4.303-8.741,9.613C18.929,14.92,22.841,19.222,27.67,19.222 M138.417,14.295v-2.396
		h9.49V7.32h-9.49V4.926H150V0h-17.477v19.222H150v-4.927H138.417z M125.61,7.603c-2.738-0.715-5.505-0.996-5.614-2.307
		c0-1.031,1.33-1.234,2.146-1.234c0.593,0,1.275,0.127,1.763,0.462c0.487,0.309,0.813,0.772,0.706,1.465h5.642
		C130.092,1.517,126.373,0,122.167,0c-3.99,0-7.814,1.822-7.814,6.066c0,3.699,3.5,4.496,6.57,5.315
		c3.333,0.903,4.176,1.159,4.176,2.111c0,1.36-1.492,1.671-2.47,1.671c-1.113,0-2.417-0.235-2.851-1.338
		c-0.131-0.333-0.216-0.743-0.216-1.207h-5.969c0.054,5.858,6.324,6.603,8.519,6.603c4.315,0,8.957-1.542,8.957-6.322
		C131.068,9.531,128.355,8.327,125.61,7.603"/>
	<g>
		<g>
			<path fill="#EE3696" d="M90.705,49.875h-3.05l-2.641-8.854h2.753l1.449,5.368h0.026l1.426-5.368h2.803L90.705,49.875z"/>
			<path fill="#EE3696" d="M93.968,41.021h2.728v8.854h-2.728V41.021z"/>
			<path fill="#EE3696" d="M102.871,49.875h-3.05l-2.639-8.854h2.751l1.452,5.368h0.023l1.426-5.368h2.803L102.871,49.875z"/>
			<path fill="#EE3696" d="M106.134,41.021h7.33v2.27h-4.602v1.104h4.18v2.106h-4.18v1.102h4.737v2.271h-7.465V41.021z"/>
			<path fill="#EE3696" d="M91.51,55.233c-0.048-0.322-0.296-1.302-1.426-1.302c-1.277,0-1.686,1.239-1.686,2.432
				c0,1.189,0.409,2.429,1.686,2.429c0.918,0,1.277-0.644,1.439-1.475h2.68c0,1.785-1.452,3.683-4.044,3.683
				c-2.865,0-4.49-2.021-4.49-4.637c0-2.791,1.762-4.638,4.49-4.638c2.431,0.012,3.771,1.288,4.004,3.508H91.51z"/>
			<path fill="#EE3696" d="M95.344,51.934h5.195c1.55,0,2.89,0.858,2.89,2.531c0,0.92-0.421,1.885-1.327,2.221
				c0.744,0.284,1.203,1.102,1.301,2.207c0.04,0.435,0.05,1.487,0.299,1.895h-2.729c-0.136-0.445-0.186-0.902-0.223-1.361
				c-0.074-0.842-0.149-1.724-1.227-1.724h-1.451v3.085h-2.729V51.934z M98.073,55.805h1.425c0.508,0,1.202-0.087,1.202-0.88
				c0-0.561-0.309-0.88-1.351-0.88h-1.277V55.805z"/>
			<path fill="#EE3696" d="M104.535,51.934h7.328v2.272h-4.602v1.104h4.181v2.105h-4.181v1.105h4.737v2.266h-7.463V51.934z"/>
			<path fill="#EE3696" d="M115.721,51.934h2.667l3.223,8.854h-2.828l-0.372-1.263h-2.814l-0.398,1.263h-2.74L115.721,51.934z
				 M117.867,57.629l-0.795-2.729h-0.022l-0.857,2.729H117.867z"/>
			<path fill="#EE3696" d="M122.233,51.934h2.79l2.579,4.739h0.025v-4.739h2.578v8.854h-2.653l-2.715-4.834h-0.024v4.834h-2.579
				V51.934z"/>
			<path fill="#EE3696" d="M131.634,51.934h4.476c2.951,0,3.993,2.186,3.993,4.416c0,2.715-1.438,4.438-4.525,4.438h-3.944V51.934z
				 M134.362,58.521h1.067c1.699,0,1.947-1.379,1.947-2.21c0-0.556-0.174-2.105-2.144-2.105h-0.87V58.521z"/>
			<path fill="#EE3696" d="M145.511,51.726c2.692,0,4.488,1.934,4.488,4.638c0,2.701-1.796,4.637-4.488,4.637
				c-2.689,0-4.487-1.936-4.487-4.637C141.024,53.659,142.822,51.726,145.511,51.726z M145.511,58.792
				c0.695,0,1.762-0.458,1.762-2.429c0-1.972-1.067-2.432-1.762-2.432c-0.693,0-1.76,0.46-1.76,2.432
				C143.751,58.334,144.818,58.792,145.511,58.792z"/>
		</g>
	</g>
</g>
</svg>
