<?xml version="1.0" encoding="utf-8"?>
<!-- Generator: Adobe Illustrator 16.0.0, SVG Export Plug-In . SVG Version: 6.00 Build 0)  -->
<!DOCTYPE svg PUBLIC "-//W3C//DTD SVG 1.1//EN" "http://www.w3.org/Graphics/SVG/1.1/DTD/svg11.dtd">
<svg version="1.1" id="Layer_1" xmlns="http://www.w3.org/2000/svg" xmlns:xlink="http://www.w3.org/1999/xlink" x="0px" y="0px"
	 width="150px" height="61px" viewBox="0 0 150 61" enable-background="new 0 0 150 61" xml:space="preserve">
<g>
	<path fill="#00AFF0" d="M26.429,33.037l1.419-5.144l1.317,5.144H26.429z M25.278,20.678l-6.23,19.225h5.742l0.755-2.746h4.577
		l0.71,2.746h5.692L30.37,20.678H25.278z M49.634,30.667c0,1.951-0.081,4.474-2.875,4.474c-2.872,0-2.975-2.543-2.975-4.494
		l-0.02-9.969H37.98v11.385c0,5.297,2.901,7.84,8.754,7.84c5.85,0,8.722-2.543,8.722-7.84V20.678H49.65L49.634,30.667z
		 M56.917,25.581h5.792v14.321h5.91V25.581h5.773v-4.903H56.917V25.581z M84.539,29.079h-2.987v-3.822h2.673
		c2.177,0,2.825,0.699,2.825,1.909C87.049,28.888,85.6,29.079,84.539,29.079 M89.978,30.994c1.895-0.73,2.776-2.832,2.776-4.824
		c0-3.633-2.801-5.492-6.04-5.492H75.848v19.225h5.704v-6.709h3.036c2.258,0,2.409,1.916,2.567,3.749
		c0.076,0.99,0.179,1.991,0.466,2.96h5.702c-0.515-0.891-0.541-3.18-0.621-4.121C92.496,33.39,91.534,31.608,89.978,30.994
		 M100.675,32.58h9.492v-4.579h-9.492v-2.399h11.578v-4.924h-17.47v19.225h17.474v-4.93h-11.581V32.58z M122.755,35.326
		c-2.619,0-3.454-2.568-3.454-5.035c0-2.469,0.835-5.036,3.454-5.036c2.31,0,2.82,2.029,2.921,2.696h5.434
		c-0.48-4.601-3.225-7.244-8.203-7.273c-5.588,0-9.195,3.831-9.195,9.613c0,5.423,3.328,9.611,9.195,9.611
		c5.307,0,8.28-3.935,8.28-7.634h-5.489C125.37,33.988,124.637,35.326,122.755,35.326 M6.012,20.678H0.12v19.225h17.476v-4.93H6.012
		V20.678z"/>
	<g>
		<path fill="#A6CE39" d="M84.466,5.681c1.725,0,3.125,1.761,3.125,3.933c0,2.168-1.4,3.93-3.125,3.93s-3.125-1.762-3.125-3.93
			C81.341,7.441,82.741,5.681,84.466,5.681 M84.466,19.222c4.827,0,8.737-4.302,8.737-9.608C93.204,4.303,89.293,0,84.466,0
			c-4.826,0-8.741,4.303-8.741,9.613C75.726,14.92,79.641,19.222,84.466,19.222 M103.411,19.222c5.851,0,8.725-2.543,8.725-7.837V0
			h-5.807l-0.013,9.989c0,1.951-0.086,4.469-2.88,4.469c-2.869,0-2.973-2.538-2.973-4.489L100.445,0H94.66v11.385
			C94.66,16.679,97.561,19.222,103.411,19.222 M46.611,19.222c5.855,0,8.727-2.543,8.727-7.837V0h-5.807l-0.014,9.989
			c0,1.951-0.085,4.469-2.876,4.469c-2.872,0-2.977-2.538-2.977-4.489L43.646,0h-5.784v11.385
			C37.862,16.679,40.763,19.222,46.611,19.222 M74.271,14.322H62.692V0h-5.896v19.222h17.475V14.322z M5.792,19.222h5.914V4.903
			h5.77V0H0v4.903h5.792V19.222z M27.67,5.681c1.725,0,3.123,1.761,3.123,3.933c0,2.168-1.398,3.93-3.123,3.93
			c-1.728,0-3.127-1.762-3.127-3.93C24.543,7.441,25.943,5.681,27.67,5.681 M27.67,19.222c4.823,0,8.735-4.302,8.735-9.608
			C36.405,4.303,32.494,0,27.67,0c-4.828,0-8.741,4.303-8.741,9.613C18.929,14.92,22.843,19.222,27.67,19.222 M138.417,14.295
			v-2.396h9.49V7.32h-9.49V4.926H150V0h-17.475v19.222H150v-4.927H138.417z M125.611,7.603c-2.737-0.715-5.506-0.996-5.614-2.307
			c0-1.031,1.329-1.234,2.146-1.234c0.592,0,1.275,0.127,1.761,0.462c0.488,0.309,0.813,0.772,0.706,1.465h5.644
			C130.092,1.517,126.374,0,122.167,0c-3.99,0-7.814,1.822-7.814,6.066c0,3.699,3.5,4.496,6.57,5.315
			c3.333,0.903,4.176,1.159,4.176,2.111c0,1.36-1.492,1.671-2.469,1.671c-1.113,0-2.417-0.235-2.852-1.338
			c-0.13-0.333-0.216-0.743-0.216-1.207h-5.969c0.055,5.858,6.324,6.603,8.52,6.603c4.315,0,8.957-1.542,8.957-6.322
			C131.069,9.531,128.356,8.327,125.611,7.603"/>
		<g>
			<path fill="#A6CE39" d="M90.706,49.875h-3.051l-2.641-8.854h2.753l1.449,5.368h0.026l1.426-5.368h2.803L90.706,49.875z"/>
			<path fill="#A6CE39" d="M93.969,41.021h2.727v8.854h-2.727V41.021z"/>
			<path fill="#A6CE39" d="M102.872,49.875h-3.05l-2.639-8.854h2.751l1.452,5.368h0.022l1.427-5.368h2.803L102.872,49.875z"/>
			<path fill="#A6CE39" d="M106.135,41.021h7.33v2.27h-4.601v1.104h4.178v2.106h-4.178v1.102h4.736v2.271h-7.464V41.021z"/>
			<path fill="#A6CE39" d="M91.512,55.233c-0.049-0.322-0.298-1.302-1.427-1.302c-1.277,0-1.687,1.239-1.687,2.432
				c0,1.189,0.41,2.429,1.687,2.429c0.919,0,1.277-0.644,1.439-1.475h2.679c0,1.785-1.452,3.683-4.042,3.683
				c-2.865,0-4.492-2.021-4.492-4.637c0-2.791,1.763-4.638,4.492-4.638c2.43,0.012,3.769,1.288,4.003,3.508H91.512z"/>
			<path fill="#A6CE39" d="M95.345,51.934h5.195c1.55,0,2.889,0.858,2.889,2.531c0,0.92-0.42,1.885-1.327,2.221
				c0.744,0.284,1.203,1.102,1.301,2.207c0.041,0.435,0.052,1.487,0.299,1.895h-2.728c-0.137-0.445-0.187-0.902-0.224-1.361
				c-0.074-0.842-0.149-1.724-1.227-1.724h-1.451v3.085h-2.728V51.934z M98.073,55.805h1.425c0.509,0,1.202-0.087,1.202-0.88
				c0-0.561-0.308-0.88-1.35-0.88h-1.278V55.805z"/>
			<path fill="#A6CE39" d="M104.536,51.934h7.327v2.272h-4.601v1.104h4.181v2.105h-4.181v1.105H112v2.266h-7.463V51.934z"/>
			<path fill="#A6CE39" d="M115.722,51.934h2.667l3.222,8.854h-2.828l-0.372-1.263h-2.814l-0.396,1.263h-2.741L115.722,51.934z
				 M117.867,57.629l-0.794-2.729h-0.023l-0.856,2.729H117.867z"/>
			<path fill="#A6CE39" d="M122.233,51.934h2.791l2.579,4.739h0.024v-4.739h2.579v8.854h-2.653l-2.714-4.834h-0.027v4.834h-2.579
				V51.934z"/>
			<path fill="#A6CE39" d="M131.635,51.934h4.476c2.952,0,3.992,2.186,3.992,4.416c0,2.715-1.437,4.438-4.524,4.438h-3.944V51.934z
				 M134.363,58.521h1.065c1.7,0,1.948-1.379,1.948-2.21c0-0.556-0.174-2.105-2.145-2.105h-0.868V58.521z"/>
			<path fill="#A6CE39" d="M145.512,51.726c2.69,0,4.487,1.934,4.487,4.638c0,2.701-1.797,4.637-4.487,4.637
				s-4.488-1.936-4.488-4.637C141.024,53.659,142.822,51.726,145.512,51.726z M145.512,58.792c0.695,0,1.762-0.458,1.762-2.429
				c0-1.972-1.067-2.432-1.762-2.432c-0.694,0-1.76,0.46-1.76,2.432C143.752,58.334,144.818,58.792,145.512,58.792z"/>
		</g>
	</g>
</g>
</svg>
