<?xml version="1.0" encoding="utf-8"?>
<!-- Generator: Adobe Illustrator 16.0.0, SVG Export Plug-In . SVG Version: 6.00 Build 0)  -->
<!DOCTYPE svg PUBLIC "-//W3C//DTD SVG 1.1//EN" "http://www.w3.org/Graphics/SVG/1.1/DTD/svg11.dtd">
<svg version="1.1" id="Layer_1" xmlns="http://www.w3.org/2000/svg" xmlns:xlink="http://www.w3.org/1999/xlink" x="0px" y="0px"
	 width="150px" height="61px" viewBox="0 0 150 61" enable-background="new 0 0 150 61" xml:space="preserve">
<g>
	<path fill="#9F3D9B" d="M26.428,33.037l1.419-5.144l1.316,5.144H26.428z M25.276,20.678l-6.23,19.225h5.742l0.755-2.746h4.578
		l0.71,2.746h5.692l-6.154-19.225H25.276z M49.632,30.667c0,1.951-0.081,4.474-2.875,4.474c-2.871,0-2.975-2.543-2.975-4.494
		l-0.019-9.969h-5.786v11.385c0,5.297,2.902,7.84,8.754,7.84s8.725-2.543,8.725-7.84V20.678h-5.808L49.632,30.667z M56.915,25.581
		h5.791v14.321h5.912V25.581h5.772v-4.903H56.915V25.581z M84.537,29.079H81.55v-3.822h2.673c2.177,0,2.825,0.699,2.825,1.909
		C87.047,28.888,85.598,29.079,84.537,29.079 M89.976,30.994c1.895-0.73,2.776-2.832,2.776-4.824c0-3.633-2.8-5.492-6.041-5.492
		H75.845v19.225h5.705v-6.709h3.036c2.257,0,2.409,1.916,2.566,3.749c0.076,0.99,0.179,1.991,0.466,2.96h5.702
		c-0.514-0.891-0.54-3.18-0.619-4.121C92.494,33.39,91.531,31.608,89.976,30.994 M100.673,32.58h9.492v-4.579h-9.492v-2.399h11.578
		v-4.924h-17.47v19.225h17.473v-4.93h-11.581V32.58z M122.753,35.326c-2.619,0-3.454-2.568-3.454-5.035
		c0-2.469,0.835-5.036,3.454-5.036c2.31,0,2.818,2.029,2.921,2.696h5.435c-0.481-4.601-3.228-7.244-8.205-7.273
		c-5.586,0-9.195,3.831-9.195,9.613c0,5.423,3.329,9.611,9.195,9.611c5.309,0,8.282-3.935,8.282-7.634h-5.489
		C125.368,33.988,124.634,35.326,122.753,35.326 M6.01,20.678H0.119v19.225h17.476v-4.93H6.01V20.678z"/>
	<g>
		<g>
			<path fill="#F77121" d="M84.464,5.681c1.724,0,3.125,1.761,3.125,3.933c0,2.168-1.401,3.93-3.125,3.93
				c-1.726,0-3.125-1.762-3.125-3.93C81.34,7.441,82.738,5.681,84.464,5.681 M84.464,19.222c4.826,0,8.738-4.302,8.738-9.608
				C93.202,4.303,89.29,0,84.464,0c-4.827,0-8.74,4.303-8.74,9.613C75.724,14.92,79.638,19.222,84.464,19.222 M103.41,19.222
				c5.85,0,8.725-2.543,8.725-7.837V0h-5.807l-0.015,9.989c0,1.951-0.086,4.469-2.879,4.469c-2.87,0-2.973-2.538-2.973-4.489
				L100.443,0h-5.787v11.385C94.657,16.679,97.559,19.222,103.41,19.222 M46.608,19.222c5.856,0,8.728-2.543,8.728-7.837V0H49.53
				l-0.015,9.989c0,1.951-0.085,4.469-2.875,4.469c-2.873,0-2.977-2.538-2.977-4.489L43.644,0H37.86v11.385
				C37.86,16.679,40.761,19.222,46.608,19.222 M74.268,14.322H62.69V0h-5.896v19.222h17.474V14.322z M5.79,19.222h5.913V4.903h5.771
				V0H0v4.903h5.79V19.222z M27.669,5.681c1.724,0,3.123,1.761,3.123,3.933c0,2.168-1.399,3.93-3.123,3.93
				c-1.729,0-3.129-1.762-3.129-3.93C24.54,7.441,25.94,5.681,27.669,5.681 M27.669,19.222c4.822,0,8.735-4.302,8.735-9.608
				C36.404,4.303,32.491,0,27.669,0c-4.828,0-8.742,4.303-8.742,9.613C18.927,14.92,22.841,19.222,27.669,19.222 M138.416,14.295
				v-2.396h9.492V7.32h-9.492V4.926H150V0h-17.477v19.222H150v-4.927H138.416z M125.609,7.603c-2.738-0.715-5.506-0.996-5.614-2.307
				c0-1.031,1.33-1.234,2.146-1.234c0.594,0,1.273,0.127,1.762,0.462c0.487,0.309,0.813,0.772,0.706,1.465h5.644
				C130.09,1.517,126.371,0,122.166,0c-3.991,0-7.815,1.822-7.815,6.066c0,3.699,3.5,4.496,6.571,5.315
				c3.333,0.903,4.176,1.159,4.176,2.111c0,1.36-1.494,1.671-2.469,1.671c-1.115,0-2.417-0.235-2.852-1.338
				c-0.13-0.333-0.217-0.743-0.217-1.207h-5.969c0.055,5.858,6.324,6.603,8.52,6.603c4.315,0,8.957-1.542,8.957-6.322
				C131.067,9.531,128.354,8.327,125.609,7.603"/>
			<g>
				<path fill="#F77121" d="M90.704,49.875h-3.052l-2.641-8.854h2.753l1.449,5.368h0.026l1.426-5.368h2.802L90.704,49.875z"/>
				<path fill="#F77121" d="M93.967,41.021h2.728v8.854h-2.728V41.021z"/>
				<path fill="#F77121" d="M102.87,49.875h-3.051l-2.64-8.854h2.752l1.452,5.368h0.022l1.427-5.368h2.803L102.87,49.875z"/>
				<path fill="#F77121" d="M106.133,41.021h7.329v2.27h-4.601v1.104h4.178v2.106h-4.178v1.102h4.736v2.271h-7.465V41.021z"/>
				<path fill="#F77121" d="M91.509,55.233c-0.048-0.322-0.296-1.302-1.427-1.302c-1.277,0-1.685,1.239-1.685,2.432
					c0,1.189,0.408,2.429,1.685,2.429c0.92,0,1.278-0.644,1.44-1.475h2.679c0,1.785-1.452,3.683-4.043,3.683
					c-2.864,0-4.491-2.021-4.491-4.637c0-2.791,1.762-4.638,4.491-4.638c2.431,0.012,3.77,1.288,4.003,3.508H91.509z"/>
				<path fill="#F77121" d="M95.342,51.934h5.195c1.55,0,2.89,0.858,2.89,2.531c0,0.92-0.42,1.885-1.328,2.221
					c0.744,0.284,1.203,1.102,1.302,2.207c0.039,0.435,0.05,1.487,0.299,1.895h-2.728c-0.136-0.445-0.188-0.902-0.223-1.361
					c-0.074-0.842-0.15-1.724-1.228-1.724h-1.45v3.085h-2.729V51.934z M98.071,55.805h1.426c0.509,0,1.201-0.087,1.201-0.88
					c0-0.561-0.307-0.88-1.35-0.88h-1.277V55.805z"/>
				<path fill="#F77121" d="M104.535,51.934h7.327v2.272h-4.601v1.104h4.18v2.105h-4.18v1.105h4.736v2.266h-7.462V51.934z"/>
				<path fill="#F77121" d="M115.72,51.934h2.667l3.223,8.854h-2.829l-0.371-1.263h-2.815l-0.397,1.263h-2.74L115.72,51.934z
					 M117.865,57.629l-0.794-2.729h-0.023l-0.857,2.729H117.865z"/>
				<path fill="#F77121" d="M122.231,51.934h2.79l2.58,4.739h0.024v-4.739h2.579v8.854h-2.654l-2.715-4.834h-0.024v4.834h-2.58
					V51.934z"/>
				<path fill="#F77121" d="M131.634,51.934h4.476c2.95,0,3.992,2.186,3.992,4.416c0,2.715-1.438,4.438-4.525,4.438h-3.943V51.934z
					 M134.362,58.521h1.065c1.7,0,1.949-1.379,1.949-2.21c0-0.556-0.175-2.105-2.146-2.105h-0.867V58.521z"/>
				<path fill="#F77121" d="M145.51,51.726c2.69,0,4.49,1.934,4.49,4.638c0,2.701-1.799,4.637-4.49,4.637s-4.487-1.936-4.487-4.637
					C141.023,53.659,142.82,51.726,145.51,51.726z M145.51,58.792c0.697,0,1.761-0.458,1.761-2.429c0-1.972-1.064-2.432-1.761-2.432
					c-0.694,0-1.758,0.46-1.758,2.432C143.752,58.334,144.816,58.792,145.51,58.792z"/>
			</g>
		</g>
	</g>
</g>
</svg>
